NotoSerifEthiopic-Light.ufo
<glyph name="hyphen" format="2">
  <advance width="310"/>
  <unicode hex="002D"/>
  <outline>
    <contour>
      <point x="25" y="259" type="line"/>
      <point x="285" y="259" type="line"/>
      <point x="285" y="287" type="line"/>
      <point x="25" y="287" type="line"/>
    </contour>
  </outline>
</glyph>
<glyph name="dieresiscomb" format="2">
  <unicode hex="0308"/>
  <anchor x="3" y="536" name="_top"/>
  <anchor x="3" y="738" name="top"/>
  <outline>
    <contour>
      <point x="83" y="658" type="curve" smooth="yes"/>
      <point x="98" y="658"/>
      <point x="106" y="666"/>
      <point x="106" y="698" type="curve" smooth="yes"/>
      <point x="106" y="729"/>
      <point x="98" y="738"/>
      <point x="83" y="738" type="curve" smooth="yes"/>
      <point x="69" y="738"/>
      <point x="60" y="729"/>
      <point x="60" y="698" type="curve" smooth="yes"/>
      <point x="60" y="666"/>
      <point x="69" y="658"/>
    </contour>
    <contour>
      <point x="-78" y="658" type="curve" smooth="yes"/>
      <point x="-63" y="658"/>
      <point x="-55" y="666"/>
      <point x="-55" y="698" type="curve" smooth="yes"/>
      <point x="-55" y="729"/>
      <point x="-63" y="738"/>
      <point x="-78" y="738" type="curve" smooth="yes"/>
      <point x="-92" y="738"/>
      <point x="-101" y="729"/>
      <point x="-101" y="698" type="curve" smooth="yes"/>
      <point x="-101" y="666"/>
      <point x="-92" y="658"/>
    </contour>
  </outline>
</glyph>
<glyph name="ha-ethiopic" format="2">
  <advance width="597"/>
  <unicode hex="1200"/>
  <note>
uni1200
</note>
  <anchor x="298" y="720" name="top"/>
  <outline>
    <contour>
      <point x="284" y="-12" type="curve" smooth="yes"/>
      <point x="427" y="-12"/>
      <point x="497" y="110"/>
      <point x="497" y="297" type="curve" smooth="yes"/>
      <point x="497" y="628" type="line" smooth="yes"/>
      <point x="497" y="670"/>
      <point x="490" y="700"/>
      <point x="480" y="716" type="curve"/>
      <point x="421" y="712" type="line"/>
      <point x="421" y="692" type="line"/>
      <point x="449" y="692"/>
      <point x="469" y="682"/>
      <point x="469" y="626" type="curve" smooth="yes"/>
      <point x="469" y="303" type="line" smooth="yes"/>
      <point x="469" y="107"/>
      <point x="401" y="12"/>
      <point x="285" y="12" type="curve" smooth="yes"/>
      <point x="192" y="12"/>
      <point x="147" y="72"/>
      <point x="147" y="208" type="curve" smooth="yes"/>
      <point x="147" y="312"/>
      <point x="150" y="476"/>
      <point x="150" y="628" type="curve" smooth="yes"/>
      <point x="150" y="676"/>
      <point x="143" y="700"/>
      <point x="133" y="716" type="curve"/>
      <point x="74" y="712" type="line"/>
      <point x="74" y="692" type="line"/>
      <point x="102" y="692"/>
      <point x="122" y="683"/>
      <point x="122" y="626" type="curve" smooth="yes"/>
      <point x="122" y="490"/>
      <point x="119" y="277"/>
      <point x="119" y="206" type="curve" smooth="yes"/>
      <point x="119" y="50"/>
      <point x="173" y="-12"/>
    </contour>
  </outline>
</glyph>
<glyph name="hi-ethiopic" format="2">
  <advance width="486"/>
  <unicode hex="1202"/>
  <note>
uni1202
</note>
  <anchor x="251" y="716" name="top"/>
  <outline>
    <contour>
      <point x="227" y="0" type="curve"/>
      <point x="277" y="0" type="line"/>
      <point x="277" y="25" type="line"/>
      <point x="256" y="25"/>
      <point x="244" y="34"/>
      <point x="244" y="55" type="curve" smooth="yes"/>
      <point x="244" y="69"/>
      <point x="248" y="87"/>
      <point x="258" y="111" type="curve" smooth="yes"/>
      <point x="420" y="512" type="line" smooth="yes"/>
      <point x="446" y="577"/>
      <point x="456" y="620"/>
      <point x="456" y="651" type="curve" smooth="yes"/>
      <point x="456" y="684"/>
      <point x="444" y="703"/>
      <point x="431" y="716" type="curve"/>
      <point x="379" y="712" type="line"/>
      <point x="379" y="692" type="line"/>
      <point x="410" y="692"/>
      <point x="427" y="674"/>
      <point x="427" y="637" type="curve" smooth="yes"/>
      <point x="427" y="609"/>
      <point x="417" y="571"/>
      <point x="397" y="521" type="curve" smooth="yes"/>
      <point x="347" y="399" type="line"/>
      <point x="314" y="389"/>
      <point x="286" y="379"/>
      <point x="236" y="379" type="curve" smooth="yes"/>
      <point x="155" y="379"/>
      <point x="121" y="414"/>
      <point x="121" y="491" type="curve" smooth="yes"/>
      <point x="121" y="527"/>
      <point x="126" y="591"/>
      <point x="126" y="635" type="curve" smooth="yes"/>
      <point x="126" y="670"/>
      <point x="119" y="699"/>
      <point x="105" y="716" type="curve"/>
      <point x="46" y="712" type="line"/>
      <point x="46" y="692" type="line"/>
      <point x="82" y="692"/>
      <point x="98" y="678"/>
      <point x="98" y="630" type="curve" smooth="yes"/>
      <point x="98" y="597"/>
      <point x="93" y="515"/>
      <point x="93" y="486" type="curve" smooth="yes"/>
      <point x="93" y="403"/>
      <point x="135" y="356"/>
      <point x="232" y="356" type="curve" smooth="yes"/>
      <point x="283" y="356"/>
      <point x="311" y="365"/>
      <point x="337" y="373" type="curve"/>
      <point x="231" y="114" type="line" smooth="yes"/>
      <point x="218" y="83"/>
      <point x="213" y="58"/>
      <point x="213" y="40" type="curve" smooth="yes"/>
      <point x="213" y="21"/>
      <point x="219" y="8"/>
    </contour>
    <component base="rightdoubleflag" xOffset="238" yOffset="1"/>
  </outline>
</glyph>
<glyph name="haa-ethiopic" format="2">
  <advance width="506"/>
  <unicode hex="1203"/>
  <note>
uni1203
</note>
  <anchor x="251" y="716" name="top"/>
  <outline>
    <contour>
      <point x="227" y="-3" type="curve"/>
      <point x="277" y="2" type="line"/>
      <point x="277" y="22" type="line"/>
      <point x="256" y="22"/>
      <point x="244" y="32"/>
      <point x="244" y="55" type="curve" smooth="yes"/>
      <point x="244" y="68"/>
      <point x="249" y="87"/>
      <point x="258" y="110" type="curve" smooth="yes"/>
      <point x="420" y="512" type="line" smooth="yes"/>
      <point x="446" y="576"/>
      <point x="456" y="620"/>
      <point x="456" y="651" type="curve" smooth="yes"/>
      <point x="456" y="684"/>
      <point x="445" y="702"/>
      <point x="431" y="716" type="curve"/>
      <point x="379" y="712" type="line"/>
      <point x="379" y="692" type="line"/>
      <point x="410" y="692"/>
      <point x="427" y="674"/>
      <point x="427" y="637" type="curve" smooth="yes"/>
      <point x="427" y="609"/>
      <point x="417" y="570"/>
      <point x="397" y="521" type="curve" smooth="yes"/>
      <point x="347" y="399" type="line"/>
      <point x="314" y="389"/>
      <point x="286" y="379"/>
      <point x="236" y="379" type="curve" smooth="yes"/>
      <point x="155" y="379"/>
      <point x="121" y="414"/>
      <point x="121" y="491" type="curve" smooth="yes"/>
      <point x="121" y="527"/>
      <point x="126" y="591"/>
      <point x="126" y="635" type="curve" smooth="yes"/>
      <point x="126" y="670"/>
      <point x="119" y="699"/>
      <point x="105" y="716" type="curve"/>
      <point x="46" y="712" type="line"/>
      <point x="46" y="692" type="line"/>
      <point x="82" y="692"/>
      <point x="98" y="678"/>
      <point x="98" y="630" type="curve" smooth="yes"/>
      <point x="98" y="597"/>
      <point x="93" y="515"/>
      <point x="93" y="486" type="curve" smooth="yes"/>
      <point x="93" y="403"/>
      <point x="135" y="356"/>
      <point x="232" y="356" type="curve" smooth="yes"/>
      <point x="283" y="356"/>
      <point x="311" y="365"/>
      <point x="337" y="373" type="curve"/>
      <point x="231" y="114" type="line" smooth="yes"/>
      <point x="218" y="82"/>
      <point x="213" y="57"/>
      <point x="213" y="38" type="curve" smooth="yes"/>
      <point x="213" y="18"/>
      <point x="219" y="5"/>
    </contour>
  </outline>
</glyph>
<glyph name="hee-ethiopic" format="2">
  <advance width="550"/>
  <unicode hex="1204"/>
  <note>
uni1204
</note>
  <anchor x="283" y="716" name="top"/>
  <outline>
    <contour>
      <point x="267" y="0" type="curve"/>
      <point x="376" y="0" type="line" smooth="yes"/>
      <point x="469" y="0"/>
      <point x="520" y="52"/>
      <point x="520" y="122" type="curve" smooth="yes"/>
      <point x="520" y="185"/>
      <point x="481" y="230"/>
      <point x="390" y="230" type="curve" smooth="yes"/>
      <point x="307" y="230" type="line"/>
      <point x="420" y="512" type="line" smooth="yes"/>
      <point x="446" y="577"/>
      <point x="456" y="620"/>
      <point x="456" y="651" type="curve" smooth="yes"/>
      <point x="456" y="684"/>
      <point x="444" y="703"/>
      <point x="431" y="716" type="curve"/>
      <point x="379" y="712" type="line"/>
      <point x="379" y="692" type="line"/>
      <point x="410" y="692"/>
      <point x="427" y="674"/>
      <point x="427" y="637" type="curve" smooth="yes"/>
      <point x="427" y="609"/>
      <point x="417" y="571"/>
      <point x="397" y="521" type="curve" smooth="yes"/>
      <point x="347" y="399" type="line"/>
      <point x="314" y="389"/>
      <point x="286" y="379"/>
      <point x="236" y="379" type="curve" smooth="yes"/>
      <point x="155" y="379"/>
      <point x="121" y="414"/>
      <point x="121" y="491" type="curve" smooth="yes"/>
      <point x="121" y="527"/>
      <point x="126" y="591"/>
      <point x="126" y="635" type="curve" smooth="yes"/>
      <point x="126" y="670"/>
      <point x="119" y="699"/>
      <point x="105" y="716" type="curve"/>
      <point x="46" y="712" type="line"/>
      <point x="46" y="692" type="line"/>
      <point x="82" y="692"/>
      <point x="98" y="678"/>
      <point x="98" y="630" type="curve" smooth="yes"/>
      <point x="98" y="597"/>
      <point x="93" y="515"/>
      <point x="93" y="486" type="curve" smooth="yes"/>
      <point x="93" y="403"/>
      <point x="135" y="356"/>
      <point x="232" y="356" type="curve" smooth="yes"/>
      <point x="283" y="356"/>
      <point x="311" y="365"/>
      <point x="337" y="373" type="curve"/>
      <point x="237" y="129" type="line" smooth="yes"/>
      <point x="227" y="105"/>
      <point x="223" y="83"/>
      <point x="223" y="66" type="curve" smooth="yes"/>
      <point x="223" y="30"/>
      <point x="242" y="10"/>
    </contour>
    <contour>
      <point x="296" y="22" type="line" smooth="yes"/>
      <point x="273" y="22"/>
      <point x="252" y="35"/>
      <point x="252" y="69" type="curve" smooth="yes"/>
      <point x="252" y="85"/>
      <point x="256" y="106"/>
      <point x="267" y="132" type="curve" smooth="yes"/>
      <point x="298" y="207" type="line"/>
      <point x="386" y="207" type="line" smooth="yes"/>
      <point x="463" y="207"/>
      <point x="492" y="172"/>
      <point x="492" y="122" type="curve" smooth="yes"/>
      <point x="492" y="68"/>
      <point x="459" y="22"/>
      <point x="374" y="22" type="curve" smooth="yes"/>
    </contour>
  </outline>
</glyph>
<glyph name="he-ethiopic" format="2">
  <advance width="636"/>
  <unicode hex="1205"/>
  <note>
uni1205
</note>
  <anchor x="326" y="716" name="top"/>
  <outline>
    <contour>
      <point x="323" y="-12" type="curve" smooth="yes"/>
      <point x="466" y="-12"/>
      <point x="536" y="110"/>
      <point x="536" y="297" type="curve" smooth="yes"/>
      <point x="536" y="628" type="line" smooth="yes"/>
      <point x="536" y="670"/>
      <point x="529" y="700"/>
      <point x="519" y="716" type="curve"/>
      <point x="460" y="712" type="line"/>
      <point x="460" y="692" type="line"/>
      <point x="488" y="692"/>
      <point x="508" y="682"/>
      <point x="508" y="626" type="curve" smooth="yes"/>
      <point x="508" y="303" type="line" smooth="yes"/>
      <point x="508" y="107"/>
      <point x="440" y="12"/>
      <point x="324" y="12" type="curve" smooth="yes"/>
      <point x="231" y="12"/>
      <point x="186" y="72"/>
      <point x="186" y="208" type="curve" smooth="yes"/>
      <point x="186" y="271"/>
      <point x="189" y="371"/>
      <point x="189" y="446" type="curve" smooth="yes"/>
      <point x="189" y="483"/>
      <point x="171" y="516"/>
      <point x="129" y="516" type="curve" smooth="yes"/>
      <point x="111" y="516" type="line"/>
      <point x="111" y="663" type="line" smooth="yes"/>
      <point x="111" y="691"/>
      <point x="104" y="707"/>
      <point x="90" y="716" type="curve"/>
      <point x="40" y="712" type="line"/>
      <point x="40" y="692" type="line"/>
      <point x="70" y="692"/>
      <point x="83" y="683"/>
      <point x="83" y="654" type="curve" smooth="yes"/>
      <point x="83" y="491" type="line"/>
      <point x="120" y="491" type="line" smooth="yes"/>
      <point x="145" y="491"/>
      <point x="161" y="476"/>
      <point x="161" y="441" type="curve" smooth="yes"/>
      <point x="161" y="371"/>
      <point x="158" y="271"/>
      <point x="158" y="206" type="curve" smooth="yes"/>
      <point x="158" y="50"/>
      <point x="212" y="-12"/>
    </contour>
  </outline>
</glyph>
<glyph name="ho-ethiopic" format="2">
  <advance width="769"/>
  <unicode hex="1206"/>
  <note>
uni1206
</note>
  <anchor x="411" y="717" name="top"/>
  <outline>
    <contour>
      <point x="284" y="-12" type="curve" smooth="yes"/>
      <point x="427" y="-12"/>
      <point x="497" y="110"/>
      <point x="497" y="297" type="curve" smooth="yes"/>
      <point x="497" y="525" type="line"/>
      <point x="518" y="503"/>
      <point x="551" y="487"/>
      <point x="597" y="487" type="curve" smooth="yes"/>
      <point x="605" y="487" type="line" smooth="yes"/>
      <point x="698" y="487"/>
      <point x="749" y="539"/>
      <point x="749" y="609" type="curve" smooth="yes"/>
      <point x="749" y="672"/>
      <point x="710" y="717"/>
      <point x="619" y="717" type="curve" smooth="yes"/>
      <point x="469" y="717" type="line"/>
      <point x="469" y="303" type="line" smooth="yes"/>
      <point x="469" y="107"/>
      <point x="401" y="12"/>
      <point x="285" y="12" type="curve" smooth="yes"/>
      <point x="192" y="12"/>
      <point x="147" y="72"/>
      <point x="147" y="208" type="curve" smooth="yes"/>
      <point x="147" y="312"/>
      <point x="150" y="476"/>
      <point x="150" y="628" type="curve" smooth="yes"/>
      <point x="150" y="676"/>
      <point x="143" y="700"/>
      <point x="133" y="716" type="curve"/>
      <point x="74" y="712" type="line"/>
      <point x="74" y="692" type="line"/>
      <point x="102" y="692"/>
      <point x="122" y="683"/>
      <point x="122" y="626" type="curve" smooth="yes"/>
      <point x="122" y="490"/>
      <point x="119" y="277"/>
      <point x="119" y="206" type="curve" smooth="yes"/>
      <point x="119" y="50"/>
      <point x="173" y="-12"/>
    </contour>
    <contour>
      <point x="603" y="509" type="curve" smooth="yes"/>
      <point x="524" y="509"/>
      <point x="497" y="555"/>
      <point x="497" y="593" type="curve" smooth="yes"/>
      <point x="497" y="694" type="line"/>
      <point x="615" y="694" type="line" smooth="yes"/>
      <point x="692" y="694"/>
      <point x="721" y="659"/>
      <point x="721" y="609" type="curve" smooth="yes"/>
      <point x="721" y="555"/>
      <point x="688" y="509"/>
    </contour>
  </outline>
</glyph>
<glyph name="la-ethiopic" format="2">
  <advance width="616"/>
  <unicode hex="1208"/>
  <note>
uni1208
</note>
  <anchor x="332" y="714" name="top"/>
  <outline>
    <contour>
      <point x="133" y="-3" type="curve"/>
      <point x="178" y="0" type="line"/>
      <point x="178" y="20" type="line"/>
      <point x="137" y="20"/>
      <point x="108" y="60"/>
      <point x="108" y="148" type="curve" smooth="yes"/>
      <point x="108" y="280"/>
      <point x="188" y="424"/>
      <point x="314" y="511" type="curve"/>
      <point x="482" y="85" type="line" smooth="yes"/>
      <point x="505" y="26"/>
      <point x="522" y="3"/>
      <point x="542" y="-3" type="curve"/>
      <point x="584" y="0" type="line"/>
      <point x="584" y="20" type="line"/>
      <point x="550" y="20"/>
      <point x="532" y="39"/>
      <point x="505" y="106" type="curve" smooth="yes"/>
      <point x="263" y="714" type="line"/>
      <point x="233" y="714" type="line"/>
      <point x="303" y="537" type="line"/>
      <point x="170" y="442"/>
      <point x="80" y="294"/>
      <point x="80" y="142" type="curve" smooth="yes"/>
      <point x="80" y="53"/>
      <point x="106" y="17"/>
    </contour>
  </outline>
</glyph>
<glyph name="li-ethiopic" format="2">
  <advance width="780"/>
  <unicode hex="120A"/>
  <note>
uni120A
</note>
  <anchor x="415" y="714" name="top"/>
  <outline>
    <contour>
      <point x="133" y="-2" type="curve"/>
      <point x="178" y="1" type="line"/>
      <point x="178" y="21" type="line"/>
      <point x="137" y="21"/>
      <point x="108" y="60"/>
      <point x="108" y="148" type="curve" smooth="yes"/>
      <point x="108" y="280"/>
      <point x="188" y="424"/>
      <point x="314" y="511" type="curve"/>
      <point x="482" y="85" type="line" smooth="yes"/>
      <point x="505" y="26"/>
      <point x="521" y="4"/>
      <point x="545" y="0" type="curve"/>
      <point x="692" y="0" type="line"/>
      <point x="692" y="25" type="line"/>
      <point x="574" y="25" type="line" smooth="yes"/>
      <point x="540" y="25"/>
      <point x="533" y="39"/>
      <point x="506" y="106" type="curve" smooth="yes"/>
      <point x="264" y="714" type="line"/>
      <point x="233" y="714" type="line"/>
      <point x="303" y="537" type="line"/>
      <point x="170" y="442"/>
      <point x="80" y="294"/>
      <point x="80" y="142" type="curve" smooth="yes"/>
      <point x="80" y="53"/>
      <point x="106" y="18"/>
    </contour>
    <component base="rightdoubleflag" xOffset="558"/>
  </outline>
</glyph>
<glyph name="laa-ethiopic" format="2">
  <advance width="596"/>
  <unicode hex="120B"/>
  <note>
uni120B
</note>
  <anchor x="312" y="714" name="top"/>
  <outline>
    <contour>
      <point x="522" y="-3" type="curve"/>
      <point x="564" y="0" type="line"/>
      <point x="564" y="20" type="line"/>
      <point x="530" y="20"/>
      <point x="513" y="39"/>
      <point x="486" y="106" type="curve" smooth="yes"/>
      <point x="244" y="714" type="line"/>
      <point x="213" y="714" type="line"/>
      <point x="283" y="537" type="line"/>
      <point x="146" y="475"/>
      <point x="60" y="396"/>
      <point x="60" y="281" type="curve" smooth="yes"/>
      <point x="60" y="216"/>
      <point x="88" y="182"/>
      <point x="113" y="164" type="curve"/>
      <point x="158" y="167" type="line"/>
      <point x="158" y="187" type="line"/>
      <point x="117" y="187"/>
      <point x="88" y="221"/>
      <point x="88" y="287" type="curve" smooth="yes"/>
      <point x="88" y="382"/>
      <point x="170" y="461"/>
      <point x="294" y="511" type="curve"/>
      <point x="462" y="85" type="line" smooth="yes"/>
      <point x="485" y="26"/>
      <point x="502" y="3"/>
    </contour>
  </outline>
</glyph>
<glyph name="lee-ethiopic" format="2">
  <advance width="734"/>
  <unicode hex="120C"/>
  <note>
uni120C
</note>
  <anchor x="392" y="714" name="top"/>
  <outline>
    <contour>
      <point x="133" y="-2" type="curve"/>
      <point x="178" y="1" type="line"/>
      <point x="178" y="21" type="line"/>
      <point x="137" y="21"/>
      <point x="108" y="60"/>
      <point x="108" y="148" type="curve" smooth="yes"/>
      <point x="108" y="280"/>
      <point x="188" y="424"/>
      <point x="314" y="511" type="curve"/>
      <point x="482" y="85" type="line" smooth="yes"/>
      <point x="506" y="24"/>
      <point x="533" y="1"/>
      <point x="574" y="0" type="curve"/>
      <point x="589" y="0" type="line" smooth="yes"/>
      <point x="665" y="0"/>
      <point x="704" y="56"/>
      <point x="704" y="123" type="curve" smooth="yes"/>
      <point x="704" y="189"/>
      <point x="656" y="230"/>
      <point x="578" y="230" type="curve" smooth="yes"/>
      <point x="457" y="230" type="line"/>
      <point x="264" y="714" type="line"/>
      <point x="233" y="714" type="line"/>
      <point x="303" y="537" type="line"/>
      <point x="170" y="442"/>
      <point x="80" y="294"/>
      <point x="80" y="142" type="curve" smooth="yes"/>
      <point x="80" y="53"/>
      <point x="106" y="18"/>
    </contour>
    <contour>
      <point x="592" y="24" type="curve" smooth="yes"/>
      <point x="550" y="24"/>
      <point x="532" y="41"/>
      <point x="506" y="106" type="curve" smooth="yes"/>
      <point x="466" y="207" type="line"/>
      <point x="574" y="207" type="line" smooth="yes"/>
      <point x="638" y="207"/>
      <point x="676" y="176"/>
      <point x="676" y="123" type="curve" smooth="yes"/>
      <point x="676" y="66"/>
      <point x="648" y="24"/>
    </contour>
  </outline>
</glyph>
<glyph name="le-ethiopic" format="2">
  <advance width="616"/>
  <unicode hex="120D"/>
  <note>
uni120D
</note>
  <anchor x="332" y="714" name="top"/>
  <outline>
    <contour>
      <point x="542" y="-3" type="curve"/>
      <point x="584" y="0" type="line"/>
      <point x="584" y="20" type="line"/>
      <point x="550" y="20"/>
      <point x="533" y="39"/>
      <point x="506" y="106" type="curve" smooth="yes"/>
      <point x="264" y="714" type="line"/>
      <point x="233" y="714" type="line"/>
      <point x="303" y="537" type="line"/>
      <point x="170" y="442"/>
      <point x="80" y="294"/>
      <point x="80" y="131" type="curve" smooth="yes"/>
      <point x="80" y="40"/>
      <point x="130" y="7"/>
      <point x="173" y="0" type="curve"/>
      <point x="197" y="0" type="line" smooth="yes"/>
      <point x="274" y="0"/>
      <point x="324" y="56"/>
      <point x="324" y="123" type="curve" smooth="yes"/>
      <point x="324" y="189"/>
      <point x="276" y="230"/>
      <point x="198" y="230" type="curve" smooth="yes"/>
      <point x="118" y="230" type="line"/>
      <point x="145" y="340"/>
      <point x="216" y="443"/>
      <point x="314" y="511" type="curve"/>
      <point x="482" y="85" type="line" smooth="yes"/>
      <point x="505" y="26"/>
      <point x="522" y="3"/>
    </contour>
    <contour>
      <point x="195" y="22" type="curve" smooth="yes"/>
      <point x="169" y="22"/>
      <point x="107" y="30"/>
      <point x="107" y="133" type="curve" smooth="yes"/>
      <point x="107" y="160"/>
      <point x="109" y="184"/>
      <point x="113" y="207" type="curve"/>
      <point x="194" y="207" type="line" smooth="yes"/>
      <point x="258" y="207"/>
      <point x="296" y="176"/>
      <point x="296" y="123" type="curve" smooth="yes"/>
      <point x="296" y="66"/>
      <point x="261" y="22"/>
    </contour>
  </outline>
</glyph>
<glyph name="lwa-ethiopic" format="2">
  <advance width="695"/>
  <unicode hex="120F"/>
  <note>
uni120F
</note>
  <anchor x="362" y="714" name="top"/>
  <outline>
    <contour>
      <point x="488" y="22" type="line"/>
      <point x="520" y="22" type="line"/>
      <point x="244" y="714" type="line"/>
      <point x="213" y="714" type="line"/>
      <point x="283" y="537" type="line"/>
      <point x="146" y="475"/>
      <point x="60" y="396"/>
      <point x="60" y="281" type="curve" smooth="yes"/>
      <point x="60" y="216"/>
      <point x="88" y="182"/>
      <point x="113" y="164" type="curve"/>
      <point x="158" y="167" type="line"/>
      <point x="158" y="187" type="line"/>
      <point x="117" y="187"/>
      <point x="88" y="221"/>
      <point x="88" y="287" type="curve" smooth="yes"/>
      <point x="88" y="382"/>
      <point x="170" y="461"/>
      <point x="294" y="511" type="curve"/>
    </contour>
    <component base="footright" xOffset="142"/>
  </outline>
</glyph>
<glyph name="hha-ethiopic" format="2">
  <advance width="758"/>
  <unicode hex="1210"/>
  <note>
uni1210
</note>
  <anchor x="391" y="716" name="top"/>
  <outline>
    <contour>
      <point x="113" y="-4" type="curve"/>
      <point x="168" y="2" type="line"/>
      <point x="168" y="22" type="line"/>
      <point x="128" y="23"/>
      <point x="108" y="43"/>
      <point x="108" y="126" type="curve" smooth="yes"/>
      <point x="108" y="294"/>
      <point x="214" y="396"/>
      <point x="387" y="396" type="curve" smooth="yes"/>
      <point x="564" y="396"/>
      <point x="624" y="320"/>
      <point x="624" y="214" type="curve" smooth="yes"/>
      <point x="624" y="174"/>
      <point x="621" y="121"/>
      <point x="621" y="74" type="curve" smooth="yes"/>
      <point x="621" y="32"/>
      <point x="630" y="10"/>
      <point x="649" y="-4" type="curve"/>
      <point x="703" y="2" type="line"/>
      <point x="703" y="22" type="line"/>
      <point x="663" y="22"/>
      <point x="649" y="38"/>
      <point x="649" y="86" type="curve" smooth="yes"/>
      <point x="649" y="117"/>
      <point x="652" y="179"/>
      <point x="652" y="218" type="curve" smooth="yes"/>
      <point x="652" y="334"/>
      <point x="578" y="420"/>
      <point x="392" y="420" type="curve" smooth="yes"/>
      <point x="200" y="420"/>
      <point x="80" y="304"/>
      <point x="80" y="120" type="curve" smooth="yes"/>
      <point x="80" y="46"/>
      <point x="98" y="12"/>
    </contour>
    <component base="stem1" xOffset="242"/>
  </outline>
</glyph>
<glyph name="hhi-ethiopic" format="2">
  <advance width="899"/>
  <unicode hex="1212"/>
  <note>
uni1212
</note>
  <anchor x="474" y="716" name="top"/>
  <outline>
    <contour>
      <point x="113" y="-4" type="curve"/>
      <point x="168" y="2" type="line"/>
      <point x="168" y="22" type="line"/>
      <point x="128" y="23"/>
      <point x="108" y="43"/>
      <point x="108" y="126" type="curve" smooth="yes"/>
      <point x="108" y="294"/>
      <point x="214" y="396"/>
      <point x="387" y="396" type="curve" smooth="yes"/>
      <point x="564" y="396"/>
      <point x="624" y="320"/>
      <point x="624" y="214" type="curve" smooth="yes"/>
      <point x="624" y="174"/>
      <point x="621" y="121"/>
      <point x="621" y="74" type="curve" smooth="yes"/>
      <point x="621" y="32"/>
      <point x="631" y="14"/>
      <point x="645" y="0" type="curve"/>
      <point x="703" y="0" type="line"/>
      <point x="703" y="25" type="line"/>
      <point x="663" y="25"/>
      <point x="649" y="41"/>
      <point x="649" y="86" type="curve" smooth="yes"/>
      <point x="649" y="117"/>
      <point x="652" y="179"/>
      <point x="652" y="218" type="curve" smooth="yes"/>
      <point x="652" y="334"/>
      <point x="578" y="420"/>
      <point x="392" y="420" type="curve" smooth="yes"/>
      <point x="200" y="420"/>
      <point x="80" y="304"/>
      <point x="80" y="120" type="curve" smooth="yes"/>
      <point x="80" y="46"/>
      <point x="98" y="12"/>
    </contour>
    <component base="stem1" xOffset="247"/>
    <component base="rightdoubleflag" xOffset="677"/>
  </outline>
</glyph>
<glyph name="hhaa-ethiopic" format="2">
  <advance width="743"/>
  <unicode hex="1213"/>
  <note>
uni1213
</note>
  <anchor x="376" y="716" name="top"/>
  <outline>
    <contour>
      <point x="634" y="-4" type="curve"/>
      <point x="688" y="2" type="line"/>
      <point x="688" y="22" type="line"/>
      <point x="648" y="22"/>
      <point x="634" y="38"/>
      <point x="634" y="86" type="curve" smooth="yes"/>
      <point x="634" y="117"/>
      <point x="637" y="179"/>
      <point x="637" y="218" type="curve" smooth="yes"/>
      <point x="637" y="333"/>
      <point x="564" y="419"/>
      <point x="366" y="420" type="curve"/>
      <point x="366" y="649" type="line" smooth="yes"/>
      <point x="366" y="687"/>
      <point x="359" y="707"/>
      <point x="345" y="716" type="curve"/>
      <point x="295" y="712" type="line"/>
      <point x="295" y="692" type="line"/>
      <point x="325" y="692"/>
      <point x="338" y="682"/>
      <point x="338" y="640" type="curve" smooth="yes"/>
      <point x="338" y="419" type="line"/>
      <point x="164" y="412"/>
      <point x="65" y="325"/>
      <point x="65" y="223" type="curve" smooth="yes"/>
      <point x="65" y="190"/>
      <point x="75" y="168"/>
      <point x="86" y="152" type="curve"/>
      <point x="150" y="158" type="line"/>
      <point x="150" y="178" type="line"/>
      <point x="106" y="179"/>
      <point x="93" y="194"/>
      <point x="93" y="231" type="curve" smooth="yes"/>
      <point x="93" y="315"/>
      <point x="180" y="389"/>
      <point x="338" y="396" type="curve"/>
      <point x="338" y="220" type="line" smooth="yes"/>
      <point x="338" y="182"/>
      <point x="346" y="163"/>
      <point x="361" y="153" type="curve"/>
      <point x="409" y="158" type="line"/>
      <point x="409" y="178" type="line"/>
      <point x="380" y="178"/>
      <point x="366" y="187"/>
      <point x="366" y="231" type="curve" smooth="yes"/>
      <point x="366" y="396" type="line"/>
      <point x="550" y="395"/>
      <point x="609" y="319"/>
      <point x="609" y="214" type="curve" smooth="yes"/>
      <point x="609" y="174"/>
      <point x="606" y="121"/>
      <point x="606" y="74" type="curve" smooth="yes"/>
      <point x="606" y="32"/>
      <point x="615" y="10"/>
    </contour>
  </outline>
</glyph>
<glyph name="hhee-ethiopic" format="2">
  <advance width="932"/>
  <unicode hex="1214"/>
  <note>
uni1214
</note>
  <anchor x="491" y="716" name="top"/>
  <outline>
    <contour>
      <point x="113" y="-4" type="curve"/>
      <point x="168" y="2" type="line"/>
      <point x="168" y="22" type="line"/>
      <point x="128" y="23"/>
      <point x="108" y="43"/>
      <point x="108" y="126" type="curve" smooth="yes"/>
      <point x="108" y="294"/>
      <point x="214" y="396"/>
      <point x="383" y="396" type="curve" smooth="yes"/>
      <point x="564" y="396"/>
      <point x="624" y="320"/>
      <point x="624" y="214" type="curve" smooth="yes"/>
      <point x="624" y="107" type="line" smooth="yes"/>
      <point x="624" y="40"/>
      <point x="664" y="0"/>
      <point x="750" y="0" type="curve" smooth="yes"/>
      <point x="758" y="0" type="line" smooth="yes"/>
      <point x="851" y="0"/>
      <point x="902" y="52"/>
      <point x="902" y="122" type="curve" smooth="yes"/>
      <point x="902" y="185"/>
      <point x="863" y="230"/>
      <point x="772" y="230" type="curve" smooth="yes"/>
      <point x="652" y="230" type="line"/>
      <point x="647" y="340"/>
      <point x="572" y="420"/>
      <point x="384" y="420" type="curve" smooth="yes"/>
      <point x="200" y="420"/>
      <point x="80" y="304"/>
      <point x="80" y="120" type="curve" smooth="yes"/>
      <point x="80" y="46"/>
      <point x="98" y="12"/>
    </contour>
    <contour>
      <point x="756" y="22" type="curve" smooth="yes"/>
      <point x="677" y="22"/>
      <point x="652" y="60"/>
      <point x="652" y="106" type="curve" smooth="yes"/>
      <point x="652" y="207" type="line"/>
      <point x="768" y="207" type="line" smooth="yes"/>
      <point x="845" y="207"/>
      <point x="874" y="172"/>
      <point x="874" y="122" type="curve" smooth="yes"/>
      <point x="874" y="68"/>
      <point x="841" y="22"/>
    </contour>
    <component base="stem1" xOffset="244"/>
  </outline>
</glyph>
<glyph name="hhe-ethiopic" format="2">
  <advance width="758"/>
  <unicode hex="1215"/>
  <note>
uni1215
</note>
  <anchor x="391" y="771" name="top"/>
  <outline>
    <contour>
      <point x="113" y="-4" type="curve"/>
      <point x="168" y="2" type="line"/>
      <point x="168" y="22" type="line"/>
      <point x="128" y="23"/>
      <point x="108" y="43"/>
      <point x="108" y="126" type="curve" smooth="yes"/>
      <point x="108" y="285"/>
      <point x="203" y="385"/>
      <point x="359" y="395" type="curve"/>
      <point x="359" y="64" type="line" smooth="yes"/>
      <point x="359" y="26"/>
      <point x="367" y="7"/>
      <point x="382" y="-3" type="curve"/>
      <point x="430" y="2" type="line"/>
      <point x="430" y="22" type="line"/>
      <point x="401" y="22"/>
      <point x="387" y="31"/>
      <point x="387" y="75" type="curve" smooth="yes"/>
      <point x="387" y="396" type="line"/>
      <point x="564" y="396"/>
      <point x="624" y="322"/>
      <point x="624" y="214" type="curve" smooth="yes"/>
      <point x="624" y="174"/>
      <point x="621" y="121"/>
      <point x="621" y="74" type="curve" smooth="yes"/>
      <point x="621" y="32"/>
      <point x="630" y="10"/>
      <point x="649" y="-4" type="curve"/>
      <point x="703" y="2" type="line"/>
      <point x="703" y="22" type="line"/>
      <point x="663" y="22"/>
      <point x="649" y="38"/>
      <point x="649" y="86" type="curve" smooth="yes"/>
      <point x="649" y="117"/>
      <point x="652" y="179"/>
      <point x="652" y="218" type="curve" smooth="yes"/>
      <point x="652" y="347"/>
      <point x="568" y="420"/>
      <point x="387" y="420" type="curve"/>
      <point x="387" y="648" type="line" smooth="yes"/>
      <point x="387" y="686"/>
      <point x="376" y="706"/>
      <point x="361" y="714" type="curve"/>
      <point x="201" y="714" type="line"/>
      <point x="202" y="719"/>
      <point x="202" y="725"/>
      <point x="202" y="729" type="curve" smooth="yes"/>
      <point x="202" y="753"/>
      <point x="188" y="771"/>
      <point x="167" y="771" type="curve" smooth="yes"/>
      <point x="160" y="771"/>
      <point x="156" y="770"/>
      <point x="152" y="768" type="curve"/>
      <point x="161" y="758"/>
      <point x="165" y="740"/>
      <point x="165" y="724" type="curve" smooth="yes"/>
      <point x="165" y="708"/>
      <point x="162" y="698"/>
      <point x="159" y="689" type="curve"/>
      <point x="322" y="689" type="line" smooth="yes"/>
      <point x="349" y="689"/>
      <point x="359" y="681"/>
      <point x="359" y="639" type="curve" smooth="yes"/>
      <point x="359" y="419" type="line"/>
      <point x="186" y="406"/>
      <point x="80" y="293"/>
      <point x="80" y="120" type="curve" smooth="yes"/>
      <point x="80" y="46"/>
      <point x="98" y="12"/>
    </contour>
  </outline>
</glyph>
<glyph name="hho-ethiopic" format="2">
  <advance width="726"/>
  <unicode hex="1216"/>
  <note>
uni1216
</note>
  <anchor x="388" y="716" name="top"/>
  <outline>
    <contour>
      <point x="113" y="-4" type="curve"/>
      <point x="168" y="2" type="line"/>
      <point x="168" y="22" type="line"/>
      <point x="128" y="23"/>
      <point x="108" y="43"/>
      <point x="108" y="126" type="curve" smooth="yes"/>
      <point x="108" y="294"/>
      <point x="214" y="396"/>
      <point x="407" y="396" type="curve" smooth="yes"/>
      <point x="594" y="396"/>
      <point x="621" y="311"/>
      <point x="621" y="255" type="curve" smooth="yes"/>
      <point x="621" y="242"/>
      <point x="621" y="228"/>
      <point x="621" y="217" type="curve" smooth="yes"/>
      <point x="621" y="185"/>
      <point x="627" y="169"/>
      <point x="636" y="156" type="curve"/>
      <point x="696" y="162" type="line"/>
      <point x="696" y="182" type="line"/>
      <point x="662" y="182"/>
      <point x="649" y="191"/>
      <point x="649" y="223" type="curve" smooth="yes"/>
      <point x="649" y="235"/>
      <point x="649" y="247"/>
      <point x="649" y="259" type="curve" smooth="yes"/>
      <point x="649" y="325"/>
      <point x="608" y="420"/>
      <point x="412" y="420" type="curve" smooth="yes"/>
      <point x="200" y="420"/>
      <point x="80" y="304"/>
      <point x="80" y="120" type="curve" smooth="yes"/>
      <point x="80" y="46"/>
      <point x="98" y="12"/>
    </contour>
    <contour>
      <point x="380" y="153" type="curve"/>
      <point x="428" y="158" type="line"/>
      <point x="428" y="178" type="line"/>
      <point x="399" y="178"/>
      <point x="385" y="187"/>
      <point x="385" y="231" type="curve" smooth="yes"/>
      <point x="385" y="649" type="line" smooth="yes"/>
      <point x="385" y="687"/>
      <point x="378" y="707"/>
      <point x="364" y="716" type="curve"/>
      <point x="314" y="712" type="line"/>
      <point x="314" y="692" type="line"/>
      <point x="344" y="692"/>
      <point x="357" y="682"/>
      <point x="357" y="640" type="curve" smooth="yes"/>
      <point x="357" y="220" type="line" smooth="yes"/>
      <point x="357" y="182"/>
      <point x="365" y="163"/>
    </contour>
  </outline>
</glyph>
<glyph name="hhwa-ethiopic" format="2">
  <advance width="906"/>
  <unicode hex="1217"/>
  <note>
uni1217
</note>
  <anchor x="470" y="716" name="top"/>
  <outline>
    <contour>
      <point x="634" y="1" type="curve"/>
      <point x="688" y="1" type="line"/>
      <point x="688" y="25" type="line"/>
      <point x="648" y="25"/>
      <point x="634" y="39"/>
      <point x="634" y="86" type="curve" smooth="yes"/>
      <point x="634" y="117"/>
      <point x="637" y="179"/>
      <point x="637" y="218" type="curve" smooth="yes"/>
      <point x="637" y="333"/>
      <point x="564" y="419"/>
      <point x="366" y="420" type="curve"/>
      <point x="366" y="649" type="line" smooth="yes"/>
      <point x="366" y="687"/>
      <point x="359" y="707"/>
      <point x="345" y="716" type="curve"/>
      <point x="295" y="712" type="line"/>
      <point x="295" y="692" type="line"/>
      <point x="325" y="692"/>
      <point x="338" y="682"/>
      <point x="338" y="640" type="curve" smooth="yes"/>
      <point x="338" y="419" type="line"/>
      <point x="164" y="412"/>
      <point x="65" y="325"/>
      <point x="65" y="223" type="curve" smooth="yes"/>
      <point x="65" y="190"/>
      <point x="75" y="168"/>
      <point x="86" y="152" type="curve"/>
      <point x="150" y="158" type="line"/>
      <point x="150" y="178" type="line"/>
      <point x="106" y="179"/>
      <point x="93" y="194"/>
      <point x="93" y="231" type="curve" smooth="yes"/>
      <point x="93" y="315"/>
      <point x="180" y="389"/>
      <point x="338" y="396" type="curve"/>
      <point x="338" y="220" type="line" smooth="yes"/>
      <point x="338" y="182"/>
      <point x="346" y="163"/>
      <point x="361" y="153" type="curve"/>
      <point x="409" y="158" type="line"/>
      <point x="409" y="178" type="line"/>
      <point x="380" y="178"/>
      <point x="366" y="187"/>
      <point x="366" y="231" type="curve" smooth="yes"/>
      <point x="366" y="396" type="line"/>
      <point x="550" y="395"/>
      <point x="609" y="319"/>
      <point x="609" y="214" type="curve" smooth="yes"/>
      <point x="609" y="174"/>
      <point x="606" y="121"/>
      <point x="606" y="74" type="curve" smooth="yes"/>
      <point x="606" y="32"/>
      <point x="615" y="15"/>
    </contour>
    <component base="footright" xOffset="353"/>
  </outline>
</glyph>
<glyph name="ma-ethiopic" format="2">
  <advance width="840"/>
  <unicode hex="1218"/>
  <note>
uni1218
</note>
  <anchor x="425" y="714" name="top"/>
  <outline>
    <contour>
      <point x="233" y="170" type="curve" smooth="yes"/>
      <point x="301" y="170"/>
      <point x="335" y="189"/>
      <point x="376" y="221" type="curve"/>
      <point x="376" y="689" type="line"/>
      <point x="502" y="689" type="line"/>
      <point x="502" y="213" type="line"/>
      <point x="571" y="213" type="line" smooth="yes"/>
      <point x="722" y="213"/>
      <point x="790" y="319"/>
      <point x="790" y="471" type="curve" smooth="yes"/>
      <point x="790" y="617"/>
      <point x="722" y="714"/>
      <point x="576" y="714" type="curve" smooth="yes"/>
      <point x="331" y="714" type="line" smooth="yes"/>
      <point x="191" y="714"/>
      <point x="60" y="639"/>
      <point x="60" y="404" type="curve" smooth="yes"/>
      <point x="60" y="255"/>
      <point x="128" y="170"/>
    </contour>
    <contour>
      <point x="238" y="195" type="curve" smooth="yes"/>
      <point x="142" y="195"/>
      <point x="87" y="272"/>
      <point x="87" y="405" type="curve" smooth="yes"/>
      <point x="87" y="623"/>
      <point x="201" y="689"/>
      <point x="331" y="689" type="curve" smooth="yes"/>
      <point x="348" y="689" type="line"/>
      <point x="348" y="230" type="line"/>
      <point x="320" y="210"/>
      <point x="294" y="195"/>
    </contour>
    <contour>
      <point x="530" y="238" type="line"/>
      <point x="530" y="689" type="line"/>
      <point x="571" y="689" type="line" smooth="yes"/>
      <point x="707" y="689"/>
      <point x="762" y="592"/>
      <point x="762" y="471" type="curve" smooth="yes"/>
      <point x="762" y="338"/>
      <point x="709" y="238"/>
      <point x="567" y="238" type="curve" smooth="yes"/>
    </contour>
  </outline>
</glyph>
<glyph name="mee-ethiopic" format="2">
  <advance width="954"/>
  <unicode hex="121C"/>
  <note>
uni121C
</note>
  <anchor x="479" y="714" name="top"/>
  <outline>
    <contour>
      <point x="671" y="0" type="curve"/>
      <point x="780" y="0" type="line" smooth="yes"/>
      <point x="873" y="0"/>
      <point x="924" y="52"/>
      <point x="924" y="122" type="curve" smooth="yes"/>
      <point x="924" y="185"/>
      <point x="885" y="230"/>
      <point x="794" y="230" type="curve" smooth="yes"/>
      <point x="711" y="230" type="line"/>
      <point x="780" y="400" type="line" smooth="yes"/>
      <point x="813" y="482"/>
      <point x="834" y="536"/>
      <point x="834" y="591" type="curve" smooth="yes"/>
      <point x="834" y="676"/>
      <point x="777" y="714"/>
      <point x="677" y="714" type="curve" smooth="yes"/>
      <point x="278" y="714" type="line" smooth="yes"/>
      <point x="130" y="714"/>
      <point x="35" y="632"/>
      <point x="35" y="486" type="curve" smooth="yes"/>
      <point x="35" y="365"/>
      <point x="94" y="298"/>
      <point x="197" y="298" type="curve" smooth="yes"/>
      <point x="269" y="298"/>
      <point x="322" y="328"/>
      <point x="367" y="372" type="curve"/>
      <point x="367" y="689" type="line"/>
      <point x="545" y="689" type="line"/>
      <point x="531" y="634"/>
      <point x="519" y="580"/>
      <point x="519" y="516" type="curve" smooth="yes"/>
      <point x="519" y="431"/>
      <point x="560" y="383"/>
      <point x="655" y="383" type="curve" smooth="yes"/>
      <point x="745" y="383" type="line"/>
      <point x="641" y="129" type="line" smooth="yes"/>
      <point x="631" y="104"/>
      <point x="627" y="83"/>
      <point x="627" y="66" type="curve" smooth="yes"/>
      <point x="627" y="30"/>
      <point x="646" y="10"/>
    </contour>
    <contour>
      <point x="201" y="323" type="curve" smooth="yes"/>
      <point x="116" y="323"/>
      <point x="61" y="376"/>
      <point x="61" y="486" type="curve" smooth="yes"/>
      <point x="61" y="615"/>
      <point x="137" y="689"/>
      <point x="279" y="689" type="curve" smooth="yes"/>
      <point x="341" y="689" type="line"/>
      <point x="341" y="382" type="line"/>
      <point x="306" y="347"/>
      <point x="261" y="323"/>
    </contour>
    <contour>
      <point x="700" y="22" type="line" smooth="yes"/>
      <point x="677" y="22"/>
      <point x="656" y="35"/>
      <point x="656" y="69" type="curve" smooth="yes"/>
      <point x="656" y="85"/>
      <point x="660" y="106"/>
      <point x="671" y="132" type="curve" smooth="yes"/>
      <point x="702" y="207" type="line"/>
      <point x="790" y="207" type="line" smooth="yes"/>
      <point x="867" y="207"/>
      <point x="896" y="172"/>
      <point x="896" y="122" type="curve" smooth="yes"/>
      <point x="896" y="68"/>
      <point x="863" y="22"/>
      <point x="778" y="22" type="curve" smooth="yes"/>
    </contour>
    <contour>
      <point x="664" y="408" type="line" smooth="yes"/>
      <point x="593" y="408"/>
      <point x="545" y="431"/>
      <point x="545" y="519" type="curve" smooth="yes"/>
      <point x="545" y="581"/>
      <point x="556" y="633"/>
      <point x="571" y="689" type="curve"/>
      <point x="673" y="689" type="line" smooth="yes"/>
      <point x="756" y="689"/>
      <point x="808" y="661"/>
      <point x="808" y="588" type="curve" smooth="yes"/>
      <point x="808" y="541"/>
      <point x="787" y="489"/>
      <point x="765" y="435" type="curve" smooth="yes"/>
      <point x="754" y="408" type="line"/>
    </contour>
  </outline>
</glyph>
<glyph name="me-ethiopic" format="2">
  <advance width="841"/>
  <unicode hex="121D"/>
  <note>
uni121D
</note>
  <anchor x="428" y="714" name="top"/>
  <outline>
    <contour>
      <point x="208" y="298" type="curve" smooth="yes"/>
      <point x="281" y="298"/>
      <point x="325" y="323"/>
      <point x="370" y="360" type="curve"/>
      <point x="370" y="689" type="line"/>
      <point x="529" y="689" type="line"/>
      <point x="529" y="394" type="line"/>
      <point x="618" y="394" type="line" smooth="yes"/>
      <point x="769" y="394"/>
      <point x="821" y="467"/>
      <point x="821" y="558" type="curve" smooth="yes"/>
      <point x="821" y="654"/>
      <point x="776" y="714"/>
      <point x="634" y="714" type="curve" smooth="yes"/>
      <point x="279" y="714" type="line" smooth="yes"/>
      <point x="131" y="714"/>
      <point x="35" y="632"/>
      <point x="35" y="486" type="curve" smooth="yes"/>
      <point x="35" y="365"/>
      <point x="100" y="298"/>
    </contour>
    <contour>
      <point x="232" y="-3" type="curve"/>
      <point x="282" y="2" type="line"/>
      <point x="282" y="22" type="line"/>
      <point x="261" y="22"/>
      <point x="249" y="32"/>
      <point x="249" y="54" type="curve" smooth="yes"/>
      <point x="249" y="68"/>
      <point x="254" y="87"/>
      <point x="264" y="110" type="curve" smooth="yes"/>
      <point x="370" y="360" type="line"/>
      <point x="338" y="353" type="line"/>
      <point x="237" y="114" type="line" smooth="yes"/>
      <point x="224" y="83"/>
      <point x="218" y="58"/>
      <point x="218" y="38" type="curve" smooth="yes"/>
      <point x="218" y="18"/>
      <point x="224" y="5"/>
    </contour>
    <contour>
      <point x="212" y="323" type="curve" smooth="yes"/>
      <point x="119" y="323"/>
      <point x="63" y="376"/>
      <point x="63" y="486" type="curve" smooth="yes"/>
      <point x="63" y="615"/>
      <point x="138" y="689"/>
      <point x="280" y="689" type="curve" smooth="yes"/>
      <point x="342" y="689" type="line"/>
      <point x="342" y="365" type="line"/>
      <point x="309" y="343"/>
      <point x="273" y="323"/>
    </contour>
    <contour>
      <point x="557" y="419" type="line"/>
      <point x="557" y="689" type="line"/>
      <point x="629" y="689" type="line" smooth="yes"/>
      <point x="758" y="689"/>
      <point x="793" y="639"/>
      <point x="793" y="558" type="curve" smooth="yes"/>
      <point x="793" y="481"/>
      <point x="756" y="419"/>
      <point x="615" y="419" type="curve" smooth="yes"/>
    </contour>
  </outline>
</glyph>
<glyph name="mo-ethiopic" format="2">
  <advance width="841"/>
  <unicode hex="121E"/>
  <note>
uni121E
</note>
  <anchor x="428" y="714" name="top"/>
  <outline>
    <contour>
      <point x="208" y="298" type="curve" smooth="yes"/>
      <point x="281" y="298"/>
      <point x="325" y="323"/>
      <point x="370" y="360" type="curve"/>
      <point x="370" y="689" type="line"/>
      <point x="529" y="689" type="line"/>
      <point x="529" y="394" type="line"/>
      <point x="618" y="394" type="line" smooth="yes"/>
      <point x="769" y="394"/>
      <point x="821" y="467"/>
      <point x="821" y="558" type="curve" smooth="yes"/>
      <point x="821" y="654"/>
      <point x="776" y="714"/>
      <point x="634" y="714" type="curve" smooth="yes"/>
      <point x="279" y="714" type="line" smooth="yes"/>
      <point x="131" y="714"/>
      <point x="35" y="632"/>
      <point x="35" y="486" type="curve" smooth="yes"/>
      <point x="35" y="365"/>
      <point x="100" y="298"/>
    </contour>
    <contour>
      <point x="365" y="-3" type="curve"/>
      <point x="413" y="2" type="line"/>
      <point x="413" y="22" type="line"/>
      <point x="384" y="22"/>
      <point x="370" y="31"/>
      <point x="370" y="75" type="curve" smooth="yes"/>
      <point x="370" y="458" type="line"/>
      <point x="342" y="449" type="line"/>
      <point x="342" y="64" type="line" smooth="yes"/>
      <point x="342" y="26"/>
      <point x="350" y="7"/>
    </contour>
    <contour>
      <point x="212" y="323" type="curve" smooth="yes"/>
      <point x="119" y="323"/>
      <point x="63" y="376"/>
      <point x="63" y="486" type="curve" smooth="yes"/>
      <point x="63" y="615"/>
      <point x="138" y="689"/>
      <point x="280" y="689" type="curve" smooth="yes"/>
      <point x="342" y="689" type="line"/>
      <point x="342" y="365" type="line"/>
      <point x="309" y="343"/>
      <point x="273" y="323"/>
    </contour>
    <contour>
      <point x="557" y="419" type="line"/>
      <point x="557" y="689" type="line"/>
      <point x="629" y="689" type="line" smooth="yes"/>
      <point x="758" y="689"/>
      <point x="793" y="639"/>
      <point x="793" y="558" type="curve" smooth="yes"/>
      <point x="793" y="481"/>
      <point x="756" y="419"/>
      <point x="615" y="419" type="curve" smooth="yes"/>
    </contour>
  </outline>
</glyph>
<glyph name="mwa-ethiopic" format="2">
  <advance width="941"/>
  <unicode hex="121F"/>
  <note>
uni121F
</note>
  <anchor x="473" y="714" name="top"/>
  <outline>
    <contour>
      <point x="630" y="2" type="curve"/>
      <point x="680" y="2" type="line"/>
      <point x="680" y="25" type="line"/>
      <point x="659" y="25"/>
      <point x="648" y="34"/>
      <point x="648" y="55" type="curve" smooth="yes"/>
      <point x="648" y="68"/>
      <point x="652" y="86"/>
      <point x="662" y="110" type="curve" smooth="yes"/>
      <point x="780" y="400" type="line" smooth="yes"/>
      <point x="813" y="482"/>
      <point x="834" y="536"/>
      <point x="834" y="591" type="curve" smooth="yes"/>
      <point x="834" y="676"/>
      <point x="777" y="714"/>
      <point x="677" y="714" type="curve" smooth="yes"/>
      <point x="278" y="714" type="line" smooth="yes"/>
      <point x="130" y="714"/>
      <point x="35" y="632"/>
      <point x="35" y="486" type="curve" smooth="yes"/>
      <point x="35" y="365"/>
      <point x="94" y="298"/>
      <point x="197" y="298" type="curve" smooth="yes"/>
      <point x="269" y="298"/>
      <point x="322" y="328"/>
      <point x="367" y="372" type="curve"/>
      <point x="367" y="689" type="line"/>
      <point x="545" y="689" type="line"/>
      <point x="531" y="634"/>
      <point x="519" y="580"/>
      <point x="519" y="516" type="curve" smooth="yes"/>
      <point x="519" y="431"/>
      <point x="560" y="383"/>
      <point x="655" y="383" type="curve" smooth="yes"/>
      <point x="745" y="383" type="line"/>
      <point x="635" y="114" type="line" smooth="yes"/>
      <point x="621" y="80"/>
      <point x="617" y="56"/>
      <point x="617" y="36" type="curve" smooth="yes"/>
      <point x="617" y="20"/>
      <point x="622" y="9"/>
    </contour>
    <contour>
      <point x="201" y="323" type="curve" smooth="yes"/>
      <point x="116" y="323"/>
      <point x="61" y="376"/>
      <point x="61" y="486" type="curve" smooth="yes"/>
      <point x="61" y="615"/>
      <point x="137" y="689"/>
      <point x="279" y="689" type="curve" smooth="yes"/>
      <point x="341" y="689" type="line"/>
      <point x="341" y="382" type="line"/>
      <point x="306" y="347"/>
      <point x="261" y="323"/>
    </contour>
    <contour>
      <point x="664" y="408" type="line" smooth="yes"/>
      <point x="593" y="408"/>
      <point x="545" y="431"/>
      <point x="545" y="519" type="curve" smooth="yes"/>
      <point x="545" y="581"/>
      <point x="556" y="633"/>
      <point x="571" y="689" type="curve"/>
      <point x="673" y="689" type="line" smooth="yes"/>
      <point x="756" y="689"/>
      <point x="808" y="661"/>
      <point x="808" y="588" type="curve" smooth="yes"/>
      <point x="808" y="541"/>
      <point x="787" y="489"/>
      <point x="765" y="435" type="curve" smooth="yes"/>
      <point x="754" y="408" type="line"/>
    </contour>
    <component base="footright" xOffset="388"/>
  </outline>
</glyph>
<glyph name="sza-ethiopic" format="2">
  <advance width="863"/>
  <unicode hex="1220"/>
  <note>
uni1220
</note>
  <anchor x="418" y="716" name="top"/>
  <outline>
    <contour>
      <point x="281" y="-12" type="curve" smooth="yes"/>
      <point x="381" y="-12"/>
      <point x="439" y="49"/>
      <point x="449" y="171" type="curve"/>
      <point x="469" y="140"/>
      <point x="510" y="112"/>
      <point x="584" y="112" type="curve" smooth="yes"/>
      <point x="693" y="112"/>
      <point x="763" y="200"/>
      <point x="763" y="327" type="curve" smooth="yes"/>
      <point x="763" y="628" type="line" smooth="yes"/>
      <point x="763" y="670"/>
      <point x="756" y="700"/>
      <point x="746" y="716" type="curve"/>
      <point x="687" y="712" type="line"/>
      <point x="687" y="692" type="line"/>
      <point x="715" y="692"/>
      <point x="735" y="682"/>
      <point x="735" y="626" type="curve" smooth="yes"/>
      <point x="735" y="333" type="line" smooth="yes"/>
      <point x="735" y="217"/>
      <point x="677" y="136"/>
      <point x="585" y="136" type="curve" smooth="yes"/>
      <point x="500" y="136"/>
      <point x="457" y="180"/>
      <point x="457" y="244" type="curve" smooth="yes"/>
      <point x="457" y="628" type="line" smooth="yes"/>
      <point x="457" y="670"/>
      <point x="450" y="700"/>
      <point x="440" y="716" type="curve"/>
      <point x="381" y="712" type="line"/>
      <point x="381" y="692" type="line"/>
      <point x="409" y="692"/>
      <point x="429" y="682"/>
      <point x="429" y="626" type="curve" smooth="yes"/>
      <point x="429" y="250" type="line" smooth="yes"/>
      <point x="429" y="74"/>
      <point x="381" y="12"/>
      <point x="282" y="12" type="curve" smooth="yes"/>
      <point x="193" y="12"/>
      <point x="147" y="72"/>
      <point x="147" y="208" type="curve" smooth="yes"/>
      <point x="147" y="312"/>
      <point x="150" y="476"/>
      <point x="150" y="628" type="curve" smooth="yes"/>
      <point x="150" y="676"/>
      <point x="143" y="700"/>
      <point x="133" y="716" type="curve"/>
      <point x="74" y="712" type="line"/>
      <point x="74" y="692" type="line"/>
      <point x="102" y="692"/>
      <point x="122" y="683"/>
      <point x="122" y="626" type="curve" smooth="yes"/>
      <point x="122" y="490"/>
      <point x="119" y="277"/>
      <point x="119" y="206" type="curve" smooth="yes"/>
      <point x="119" y="38"/>
      <point x="184" y="-12"/>
    </contour>
  </outline>
</glyph>
<glyph name="szaa-ethiopic" format="2">
  <advance width="787"/>
  <unicode hex="1223"/>
  <note>
uni1223
</note>
  <anchor x="405" y="716" name="top"/>
  <outline>
    <contour>
      <point x="543" y="-3" type="curve"/>
      <point x="593" y="2" type="line"/>
      <point x="593" y="22" type="line"/>
      <point x="572" y="22"/>
      <point x="562" y="32"/>
      <point x="562" y="54" type="curve" smooth="yes"/>
      <point x="562" y="67"/>
      <point x="566" y="86"/>
      <point x="575" y="110" type="curve" smooth="yes"/>
      <point x="717" y="490" type="line"/>
      <point x="675" y="455" type="line"/>
      <point x="548" y="114" type="line" smooth="yes"/>
      <point x="536" y="81"/>
      <point x="530" y="55"/>
      <point x="530" y="36" type="curve" smooth="yes"/>
      <point x="530" y="17"/>
      <point x="535" y="4"/>
    </contour>
    <component base="shorttoploops"/>
  </outline>
</glyph>
<glyph name="szee-ethiopic" format="2">
  <advance width="855"/>
  <unicode hex="1224"/>
  <note>
uni1224
</note>
  <anchor x="449" y="716" name="top"/>
  <outline>
    <contour>
      <point x="572" y="0" type="curve"/>
      <point x="681" y="0" type="line" smooth="yes"/>
      <point x="774" y="0"/>
      <point x="825" y="52"/>
      <point x="825" y="122" type="curve" smooth="yes"/>
      <point x="825" y="185"/>
      <point x="786" y="230"/>
      <point x="695" y="230" type="curve" smooth="yes"/>
      <point x="612" y="230" type="line"/>
      <point x="717" y="489" type="line"/>
      <point x="671" y="449" type="line"/>
      <point x="542" y="129" type="line" smooth="yes"/>
      <point x="532" y="104"/>
      <point x="528" y="83"/>
      <point x="528" y="66" type="curve" smooth="yes"/>
      <point x="528" y="30"/>
      <point x="547" y="10"/>
    </contour>
    <contour>
      <point x="601" y="22" type="line" smooth="yes"/>
      <point x="578" y="22"/>
      <point x="557" y="35"/>
      <point x="557" y="69" type="curve" smooth="yes"/>
      <point x="557" y="85"/>
      <point x="561" y="106"/>
      <point x="572" y="132" type="curve" smooth="yes"/>
      <point x="603" y="207" type="line"/>
      <point x="691" y="207" type="line" smooth="yes"/>
      <point x="768" y="207"/>
      <point x="797" y="172"/>
      <point x="797" y="122" type="curve" smooth="yes"/>
      <point x="797" y="68"/>
      <point x="764" y="22"/>
      <point x="679" y="22" type="curve" smooth="yes"/>
    </contour>
    <component base="shorttoploops"/>
  </outline>
</glyph>
<glyph name="sze-ethiopic" format="2">
  <advance width="866"/>
  <unicode hex="1225"/>
  <note>
uni1225
</note>
  <anchor x="415" y="716" name="top"/>
  <outline>
    <contour>
      <point x="52" y="-3" type="curve"/>
      <point x="102" y="2" type="line"/>
      <point x="102" y="22" type="line"/>
      <point x="82" y="22"/>
      <point x="72" y="32"/>
      <point x="72" y="52" type="curve" smooth="yes"/>
      <point x="72" y="66"/>
      <point x="77" y="85"/>
      <point x="87" y="110" type="curve" smooth="yes"/>
      <point x="208" y="396" type="line"/>
      <point x="194" y="437" type="line"/>
      <point x="60" y="114" type="line" smooth="yes"/>
      <point x="46" y="80"/>
      <point x="40" y="54"/>
      <point x="40" y="34" type="curve" smooth="yes"/>
      <point x="40" y="16"/>
      <point x="44" y="4"/>
    </contour>
    <component base="shorttoploops" xOffset="54"/>
  </outline>
</glyph>
<glyph name="szo-ethiopic" format="2">
  <advance width="812"/>
  <unicode hex="1226"/>
  <note>
uni1226
</note>
  <anchor x="405" y="716" name="top"/>
  <outline>
    <contour>
      <point x="276" y="-3" type="curve"/>
      <point x="326" y="2" type="line"/>
      <point x="326" y="22" type="line"/>
      <point x="305" y="22"/>
      <point x="294" y="32"/>
      <point x="294" y="54" type="curve" smooth="yes"/>
      <point x="294" y="68"/>
      <point x="299" y="86"/>
      <point x="308" y="110" type="curve" smooth="yes"/>
      <point x="457" y="494" type="line"/>
      <point x="439" y="494" type="line"/>
      <point x="379" y="362" type="line"/>
      <point x="281" y="114" type="line" smooth="yes"/>
      <point x="268" y="81"/>
      <point x="263" y="55"/>
      <point x="263" y="36" type="curve" smooth="yes"/>
      <point x="263" y="17"/>
      <point x="268" y="4"/>
    </contour>
    <component base="shorttoploops"/>
  </outline>
</glyph>
<glyph name="szwa-ethiopic" format="2">
  <advance width="849"/>
  <unicode hex="1227"/>
  <note>
uni1227
</note>
  <anchor x="446" y="716" name="top"/>
  <outline>
    <contour>
      <point x="543" y="0" type="curve"/>
      <point x="593" y="0" type="line"/>
      <point x="593" y="25" type="line"/>
      <point x="572" y="25"/>
      <point x="562" y="34"/>
      <point x="562" y="54" type="curve" smooth="yes"/>
      <point x="562" y="68"/>
      <point x="566" y="86"/>
      <point x="575" y="110" type="curve" smooth="yes"/>
      <point x="716" y="481" type="line" smooth="yes"/>
      <point x="730" y="517"/>
      <point x="737" y="555"/>
      <point x="737" y="580" type="curve" smooth="yes"/>
      <point x="737" y="628" type="line" smooth="yes"/>
      <point x="737" y="670"/>
      <point x="730" y="700"/>
      <point x="720" y="716" type="curve"/>
      <point x="661" y="712" type="line"/>
      <point x="661" y="692" type="line"/>
      <point x="689" y="692"/>
      <point x="709" y="682"/>
      <point x="709" y="626" type="curve" smooth="yes"/>
      <point x="709" y="586" type="line" smooth="yes"/>
      <point x="709" y="520"/>
      <point x="683" y="425"/>
      <point x="577" y="425" type="curve" smooth="yes"/>
      <point x="489" y="425"/>
      <point x="445" y="485"/>
      <point x="445" y="581" type="curve" smooth="yes"/>
      <point x="445" y="628" type="line" smooth="yes"/>
      <point x="445" y="670"/>
      <point x="438" y="700"/>
      <point x="428" y="716" type="curve"/>
      <point x="369" y="712" type="line"/>
      <point x="369" y="692" type="line"/>
      <point x="397" y="692"/>
      <point x="417" y="682"/>
      <point x="417" y="626" type="curve" smooth="yes"/>
      <point x="417" y="548" type="line" smooth="yes"/>
      <point x="417" y="403"/>
      <point x="375" y="316"/>
      <point x="269" y="316" type="curve" smooth="yes"/>
      <point x="191" y="316"/>
      <point x="150" y="371"/>
      <point x="150" y="501" type="curve" smooth="yes"/>
      <point x="150" y="543"/>
      <point x="150" y="586"/>
      <point x="150" y="628" type="curve" smooth="yes"/>
      <point x="150" y="676"/>
      <point x="143" y="700"/>
      <point x="133" y="716" type="curve"/>
      <point x="74" y="712" type="line"/>
      <point x="74" y="692" type="line"/>
      <point x="102" y="692"/>
      <point x="122" y="683"/>
      <point x="122" y="626" type="curve" smooth="yes"/>
      <point x="122" y="584"/>
      <point x="122" y="541"/>
      <point x="122" y="499" type="curve" smooth="yes"/>
      <point x="122" y="354"/>
      <point x="172" y="292"/>
      <point x="268" y="292" type="curve" smooth="yes"/>
      <point x="375" y="292"/>
      <point x="425" y="369"/>
      <point x="438" y="486" type="curve"/>
      <point x="460" y="428"/>
      <point x="505" y="401"/>
      <point x="576" y="401" type="curve" smooth="yes"/>
      <point x="613" y="401"/>
      <point x="641" y="410"/>
      <point x="664" y="425" type="curve"/>
      <point x="548" y="114" type="line" smooth="yes"/>
      <point x="536" y="82"/>
      <point x="530" y="57"/>
      <point x="530" y="38" type="curve" smooth="yes"/>
      <point x="530" y="20"/>
      <point x="535" y="7"/>
    </contour>
    <component base="footright" xOffset="296"/>
  </outline>
</glyph>
<glyph name="ra-ethiopic" format="2">
  <advance width="507"/>
  <unicode hex="1228"/>
  <note>
uni1228
</note>
  <anchor x="256" y="716" name="top"/>
  <outline>
    <contour>
      <point x="438" y="-34" type="curve" smooth="yes"/>
      <point x="444" y="-34"/>
      <point x="448" y="-33"/>
      <point x="452" y="-31" type="curve"/>
      <point x="443" y="-21"/>
      <point x="439" y="-4"/>
      <point x="439" y="12" type="curve" smooth="yes"/>
      <point x="439" y="28"/>
      <point x="443" y="45"/>
      <point x="452" y="55" type="curve"/>
      <point x="448" y="57"/>
      <point x="444" y="58"/>
      <point x="438" y="58" type="curve" smooth="yes"/>
      <point x="418" y="58"/>
      <point x="404" y="44"/>
      <point x="401" y="25" type="curve"/>
      <point x="298" y="25" type="line"/>
      <point x="298" y="0" type="line"/>
      <point x="401" y="0" type="line"/>
      <point x="404" y="-20"/>
      <point x="418" y="-34"/>
    </contour>
    <component base="nose"/>
  </outline>
</glyph>
<glyph name="ru-ethiopic" format="2">
  <advance width="597"/>
  <unicode hex="1229"/>
  <note>
uni1229
</note>
  <anchor x="298" y="716" name="top"/>
  <outline>
    <contour>
      <point x="215" y="203" type="curve" smooth="yes"/>
      <point x="428" y="203" type="line"/>
      <point x="428" y="228" type="line"/>
      <point x="207" y="228" type="line" smooth="yes"/>
      <point x="116" y="228"/>
      <point x="56" y="266"/>
      <point x="56" y="345" type="curve" smooth="yes"/>
      <point x="56" y="423"/>
      <point x="105" y="455"/>
      <point x="216" y="509" type="curve" smooth="yes"/>
      <point x="311" y="555"/>
      <point x="368" y="576"/>
      <point x="368" y="650" type="curve" smooth="yes"/>
      <point x="368" y="683"/>
      <point x="355" y="703"/>
      <point x="342" y="716" type="curve"/>
      <point x="277" y="714" type="line"/>
      <point x="277" y="694" type="line"/>
      <point x="309" y="694"/>
      <point x="339" y="679"/>
      <point x="339" y="642" type="curve" smooth="yes"/>
      <point x="339" y="591"/>
      <point x="284" y="570"/>
      <point x="203" y="530" type="curve" smooth="yes"/>
      <point x="91" y="475"/>
      <point x="30" y="438"/>
      <point x="30" y="344" type="curve" smooth="yes"/>
      <point x="30" y="250"/>
      <point x="90" y="203"/>
    </contour>
    <contour>
      <point x="334" y="-3" type="curve"/>
      <point x="393" y="2" type="line"/>
      <point x="393" y="21" type="line"/>
      <point x="365" y="21"/>
      <point x="345" y="31"/>
      <point x="345" y="87" type="curve" smooth="yes"/>
      <point x="345" y="214" type="line"/>
      <point x="317" y="214" type="line"/>
      <point x="317" y="85" type="line" smooth="yes"/>
      <point x="317" y="43"/>
      <point x="324" y="13"/>
    </contour>
    <component base="rightsingleflag" xOffset="354" yOffset="-159"/>
  </outline>
</glyph>
<glyph name="ri-ethiopic" format="2">
  <advance width="532"/>
  <unicode hex="122A"/>
  <note>
uni122A
</note>
  <anchor x="276" y="716" name="top"/>
  <outline>
    <contour>
      <point x="268" y="0" type="curve" smooth="yes"/>
      <point x="427" y="0"/>
      <point x="492" y="87"/>
      <point x="492" y="181" type="curve" smooth="yes"/>
      <point x="492" y="216"/>
      <point x="484" y="240"/>
      <point x="476" y="254" type="curve"/>
      <point x="422" y="250" type="line"/>
      <point x="422" y="230" type="line"/>
      <point x="455" y="230"/>
      <point x="464" y="214"/>
      <point x="464" y="176" type="curve" smooth="yes"/>
      <point x="464" y="88"/>
      <point x="404" y="25"/>
      <point x="271" y="25" type="curve" smooth="yes"/>
      <point x="158" y="25"/>
      <point x="86" y="72"/>
      <point x="86" y="186" type="curve" smooth="yes"/>
      <point x="86" y="299"/>
      <point x="153" y="355"/>
      <point x="250" y="433" type="curve" smooth="yes"/>
      <point x="344" y="508"/>
      <point x="406" y="566"/>
      <point x="406" y="643" type="curve" smooth="yes"/>
      <point x="406" y="684"/>
      <point x="394" y="703"/>
      <point x="381" y="716" type="curve"/>
      <point x="329" y="712" type="line"/>
      <point x="329" y="692" type="line"/>
      <point x="361" y="692"/>
      <point x="377" y="679"/>
      <point x="377" y="637" type="curve" smooth="yes"/>
      <point x="377" y="572"/>
      <point x="325" y="526"/>
      <point x="228" y="447" type="curve" smooth="yes"/>
      <point x="121" y="360"/>
      <point x="60" y="302"/>
      <point x="60" y="187" type="curve" smooth="yes"/>
      <point x="60" y="55"/>
      <point x="144" y="0"/>
    </contour>
  </outline>
</glyph>
<glyph name="raa-ethiopic" format="2">
  <advance width="620"/>
  <unicode hex="122B"/>
  <note>
uni122B
</note>
  <anchor x="325" y="716" name="top"/>
  <outline>
    <contour>
      <point x="275" y="0" type="curve" smooth="yes"/>
      <point x="338" y="0" type="line"/>
      <point x="338" y="26" type="line" smooth="yes"/>
      <point x="338" y="181"/>
      <point x="397" y="261"/>
      <point x="514" y="261" type="curve" smooth="yes"/>
      <point x="543" y="261" type="line"/>
      <point x="542" y="256"/>
      <point x="541" y="251"/>
      <point x="541" y="244" type="curve" smooth="yes"/>
      <point x="541" y="220"/>
      <point x="553" y="202"/>
      <point x="576" y="202" type="curve" smooth="yes"/>
      <point x="582" y="202"/>
      <point x="586" y="203"/>
      <point x="590" y="205" type="curve"/>
      <point x="581" y="215"/>
      <point x="577" y="232"/>
      <point x="577" y="248" type="curve" smooth="yes"/>
      <point x="577" y="264"/>
      <point x="580" y="277"/>
      <point x="583" y="286" type="curve"/>
      <point x="514" y="286" type="line" smooth="yes"/>
      <point x="384" y="286"/>
      <point x="312" y="196"/>
      <point x="312" y="25" type="curve"/>
      <point x="275" y="25" type="line" smooth="yes"/>
      <point x="160" y="25"/>
      <point x="86" y="70"/>
      <point x="86" y="186" type="curve" smooth="yes"/>
      <point x="86" y="299"/>
      <point x="153" y="355"/>
      <point x="250" y="433" type="curve" smooth="yes"/>
      <point x="344" y="508"/>
      <point x="406" y="566"/>
      <point x="406" y="643" type="curve" smooth="yes"/>
      <point x="406" y="684"/>
      <point x="394" y="703"/>
      <point x="381" y="716" type="curve"/>
      <point x="329" y="712" type="line"/>
      <point x="329" y="692" type="line"/>
      <point x="361" y="692"/>
      <point x="377" y="679"/>
      <point x="377" y="637" type="curve" smooth="yes"/>
      <point x="377" y="572"/>
      <point x="325" y="525"/>
      <point x="228" y="446" type="curve" smooth="yes"/>
      <point x="121" y="359"/>
      <point x="60" y="302"/>
      <point x="60" y="187" type="curve" smooth="yes"/>
      <point x="60" y="55"/>
      <point x="144" y="0"/>
    </contour>
  </outline>
</glyph>
<glyph name="re-ethiopic" format="2">
  <advance width="519"/>
  <unicode hex="122D"/>
  <note>
uni122D
</note>
  <anchor x="274" y="714" name="top"/>
  <outline>
    <contour>
      <point x="455" y="-33" type="curve" smooth="yes"/>
      <point x="461" y="-33"/>
      <point x="465" y="-32"/>
      <point x="469" y="-30" type="curve"/>
      <point x="460" y="-20"/>
      <point x="456" y="-3"/>
      <point x="456" y="13" type="curve" smooth="yes"/>
      <point x="456" y="29"/>
      <point x="460" y="46"/>
      <point x="469" y="56" type="curve"/>
      <point x="465" y="58"/>
      <point x="461" y="59"/>
      <point x="455" y="59" type="curve" smooth="yes"/>
      <point x="435" y="59"/>
      <point x="421" y="45"/>
      <point x="418" y="25" type="curve"/>
      <point x="315" y="25" type="line" smooth="yes"/>
      <point x="165" y="25"/>
      <point x="106" y="82"/>
      <point x="106" y="221" type="curve" smooth="yes"/>
      <point x="106" y="312" type="line" smooth="yes"/>
      <point x="106" y="597"/>
      <point x="214" y="689"/>
      <point x="377" y="689" type="curve" smooth="yes"/>
      <point x="420" y="689" type="line"/>
      <point x="419" y="684"/>
      <point x="418" y="679"/>
      <point x="418" y="672" type="curve" smooth="yes"/>
      <point x="418" y="650"/>
      <point x="432" y="632"/>
      <point x="455" y="632" type="curve" smooth="yes"/>
      <point x="461" y="632"/>
      <point x="465" y="633"/>
      <point x="469" y="635" type="curve"/>
      <point x="460" y="645"/>
      <point x="456" y="660"/>
      <point x="456" y="676" type="curve" smooth="yes"/>
      <point x="456" y="692"/>
      <point x="459" y="705"/>
      <point x="462" y="714" type="curve"/>
      <point x="390" y="714" type="line" smooth="yes"/>
      <point x="185" y="714"/>
      <point x="80" y="605"/>
      <point x="80" y="316" type="curve" smooth="yes"/>
      <point x="80" y="217" type="line" smooth="yes"/>
      <point x="80" y="62"/>
      <point x="152" y="0"/>
      <point x="310" y="0" type="curve" smooth="yes"/>
      <point x="418" y="0" type="line"/>
      <point x="421" y="-19"/>
      <point x="435" y="-33"/>
    </contour>
  </outline>
</glyph>
<glyph name="ro-ethiopic" format="2">
  <advance width="597"/>
  <unicode hex="122E"/>
  <note>
uni122E
</note>
  <anchor x="323" y="714" name="top"/>
  <outline>
    <contour>
      <point x="482" y="-33" type="curve" smooth="yes"/>
      <point x="488" y="-33"/>
      <point x="492" y="-32"/>
      <point x="496" y="-30" type="curve"/>
      <point x="487" y="-20"/>
      <point x="483" y="-3"/>
      <point x="483" y="13" type="curve" smooth="yes"/>
      <point x="483" y="29"/>
      <point x="487" y="46"/>
      <point x="496" y="56" type="curve"/>
      <point x="492" y="58"/>
      <point x="488" y="59"/>
      <point x="482" y="59" type="curve" smooth="yes"/>
      <point x="462" y="59"/>
      <point x="448" y="45"/>
      <point x="445" y="25" type="curve"/>
      <point x="315" y="25" type="line" smooth="yes"/>
      <point x="165" y="25"/>
      <point x="106" y="82"/>
      <point x="106" y="221" type="curve" smooth="yes"/>
      <point x="106" y="312" type="line" smooth="yes"/>
      <point x="106" y="597"/>
      <point x="214" y="689"/>
      <point x="377" y="689" type="curve" smooth="yes"/>
      <point x="400" y="689" type="line"/>
      <point x="458" y="714" type="line"/>
      <point x="390" y="714" type="line" smooth="yes"/>
      <point x="185" y="714"/>
      <point x="80" y="605"/>
      <point x="80" y="316" type="curve" smooth="yes"/>
      <point x="80" y="217" type="line" smooth="yes"/>
      <point x="80" y="62"/>
      <point x="152" y="0"/>
      <point x="310" y="0" type="curve" smooth="yes"/>
      <point x="445" y="0" type="line"/>
      <point x="448" y="-19"/>
      <point x="462" y="-33"/>
    </contour>
    <component base="ballsmall" xOffset="298" yOffset="308"/>
  </outline>
</glyph>
<glyph name="rwa-ethiopic" format="2">
  <advance width="620"/>
  <unicode hex="122F"/>
  <note>
uni122F
</note>
  <anchor x="325" y="771" name="top"/>
  <outline>
    <contour>
      <point x="275" y="0" type="curve" smooth="yes"/>
      <point x="338" y="0" type="line"/>
      <point x="338" y="26" type="line" smooth="yes"/>
      <point x="338" y="181"/>
      <point x="397" y="261"/>
      <point x="514" y="261" type="curve" smooth="yes"/>
      <point x="543" y="261" type="line"/>
      <point x="542" y="256"/>
      <point x="541" y="251"/>
      <point x="541" y="244" type="curve" smooth="yes"/>
      <point x="541" y="220"/>
      <point x="553" y="202"/>
      <point x="576" y="202" type="curve" smooth="yes"/>
      <point x="582" y="202"/>
      <point x="586" y="203"/>
      <point x="590" y="205" type="curve"/>
      <point x="581" y="215"/>
      <point x="577" y="232"/>
      <point x="577" y="248" type="curve" smooth="yes"/>
      <point x="577" y="264"/>
      <point x="580" y="277"/>
      <point x="583" y="286" type="curve"/>
      <point x="514" y="286" type="line" smooth="yes"/>
      <point x="384" y="286"/>
      <point x="312" y="196"/>
      <point x="312" y="25" type="curve"/>
      <point x="275" y="25" type="line" smooth="yes"/>
      <point x="160" y="25"/>
      <point x="86" y="70"/>
      <point x="86" y="186" type="curve" smooth="yes"/>
      <point x="86" y="299"/>
      <point x="153" y="355"/>
      <point x="250" y="433" type="curve" smooth="yes"/>
      <point x="344" y="508"/>
      <point x="406" y="563"/>
      <point x="406" y="640" type="curve" smooth="yes"/>
      <point x="406" y="681"/>
      <point x="394" y="696"/>
      <point x="381" y="709" type="curve"/>
      <point x="329" y="709" type="line"/>
      <point x="329" y="689" type="line"/>
      <point x="361" y="689"/>
      <point x="377" y="676"/>
      <point x="377" y="634" type="curve" smooth="yes"/>
      <point x="377" y="569"/>
      <point x="325" y="525"/>
      <point x="228" y="446" type="curve" smooth="yes"/>
      <point x="121" y="359"/>
      <point x="60" y="302"/>
      <point x="60" y="187" type="curve" smooth="yes"/>
      <point x="60" y="55"/>
      <point x="144" y="0"/>
    </contour>
    <contour>
      <point x="575" y="771" type="curve" smooth="yes"/>
      <point x="554" y="771"/>
      <point x="540" y="753"/>
      <point x="540" y="729" type="curve" smooth="yes"/>
      <point x="540" y="725"/>
      <point x="540" y="719"/>
      <point x="541" y="714" type="curve"/>
      <point x="146" y="714" type="line"/>
      <point x="147" y="719"/>
      <point x="147" y="725"/>
      <point x="147" y="729" type="curve" smooth="yes"/>
      <point x="147" y="753"/>
      <point x="133" y="771"/>
      <point x="112" y="771" type="curve" smooth="yes"/>
      <point x="105" y="771"/>
      <point x="101" y="770"/>
      <point x="97" y="768" type="curve"/>
      <point x="106" y="758"/>
      <point x="110" y="740"/>
      <point x="110" y="724" type="curve" smooth="yes"/>
      <point x="110" y="708"/>
      <point x="107" y="698"/>
      <point x="104" y="689" type="curve"/>
      <point x="583" y="689" type="line"/>
      <point x="580" y="698"/>
      <point x="577" y="708"/>
      <point x="577" y="724" type="curve" smooth="yes"/>
      <point x="577" y="740"/>
      <point x="581" y="758"/>
      <point x="590" y="768" type="curve"/>
      <point x="586" y="770"/>
      <point x="582" y="771"/>
    </contour>
  </outline>
</glyph>
<glyph name="sa-ethiopic" format="2">
	<advance width="597"/>
	<unicode hex="1230"/>
	<anchor x="311" y="762" name="top"/>
	<note>
		uni1230
	</note>
	<outline>
		<contour>
			<point x="292" y="591" type="line"/>
			<point x="320" y="591" type="line"/>
			<point x="320" y="695" type="line" smooth="yes"/>
			<point x="320" y="733"/>
			<point x="313" y="753"/>
			<point x="299" y="762" type="curve"/>
			<point x="249" y="758" type="line"/>
			<point x="249" y="738" type="line"/>
			<point x="279" y="738"/>
			<point x="292" y="728"/>
			<point x="292" y="686" type="curve" smooth="yes"/>
		</contour>
		<component base="shortnarch"/>
	</outline>
</glyph>
<glyph name="saa-ethiopic" format="2">
	<advance width="567"/>
	<unicode hex="1233"/>
	<anchor x="281" y="762" name="top"/>
	<note>
		uni1233
	</note>
	<outline>
		<contour>
			<point x="257" y="591" type="line"/>
			<point x="285" y="591" type="line"/>
			<point x="285" y="695" type="line" smooth="yes"/>
			<point x="285" y="733"/>
			<point x="278" y="753"/>
			<point x="264" y="762" type="curve"/>
			<point x="214" y="758" type="line"/>
			<point x="214" y="738" type="line"/>
			<point x="244" y="738"/>
			<point x="257" y="728"/>
			<point x="257" y="686" type="curve" smooth="yes"/>
		</contour>
		<component base="baashort"/>
	</outline>
</glyph>
<glyph name="see-ethiopic" format="2">
  <advance width="757"/>
  <unicode hex="1234"/>
  <note>
uni1234
</note>
  <anchor x="413" y="762" name="top"/>
  <outline>
    <contour>
      <point x="117" y="-3" type="curve"/>
      <point x="176" y="2" type="line"/>
      <point x="176" y="21" type="line"/>
      <point x="148" y="21"/>
      <point x="128" y="31"/>
      <point x="128" y="87" type="curve" smooth="yes"/>
      <point x="128" y="298" type="line" smooth="yes"/>
      <point x="128" y="483"/>
      <point x="196" y="578"/>
      <point x="312" y="578" type="curve" smooth="yes"/>
      <point x="405" y="578"/>
      <point x="450" y="518"/>
      <point x="450" y="393" type="curve" smooth="yes"/>
      <point x="450" y="317"/>
      <point x="448" y="169"/>
      <point x="448" y="107" type="curve" smooth="yes"/>
      <point x="448" y="44"/>
      <point x="482" y="12"/>
      <point x="541" y="0" type="curve"/>
      <point x="583" y="0" type="line" smooth="yes"/>
      <point x="676" y="0"/>
      <point x="727" y="52"/>
      <point x="727" y="122" type="curve" smooth="yes"/>
      <point x="727" y="185"/>
      <point x="688" y="230"/>
      <point x="597" y="230" type="curve" smooth="yes"/>
      <point x="476" y="230" type="line"/>
      <point x="476" y="259"/>
      <point x="478" y="354"/>
      <point x="478" y="395" type="curve" smooth="yes"/>
      <point x="478" y="537"/>
      <point x="426" y="600"/>
      <point x="319" y="602" type="curve"/>
      <point x="319" y="674" type="line" smooth="yes"/>
      <point x="319" y="716"/>
      <point x="312" y="746"/>
      <point x="302" y="762" type="curve"/>
      <point x="243" y="758" type="line"/>
      <point x="243" y="738" type="line"/>
      <point x="271" y="738"/>
      <point x="291" y="728"/>
      <point x="291" y="672" type="curve" smooth="yes"/>
      <point x="291" y="601" type="line"/>
      <point x="163" y="589"/>
      <point x="100" y="471"/>
      <point x="100" y="304" type="curve" smooth="yes"/>
      <point x="100" y="85" type="line" smooth="yes"/>
      <point x="100" y="43"/>
      <point x="107" y="13"/>
    </contour>
    <contour>
      <point x="581" y="22" type="curve" smooth="yes"/>
      <point x="502" y="22"/>
      <point x="476" y="58"/>
      <point x="476" y="106" type="curve" smooth="yes"/>
      <point x="476" y="207" type="line"/>
      <point x="593" y="207" type="line" smooth="yes"/>
      <point x="670" y="207"/>
      <point x="699" y="172"/>
      <point x="699" y="122" type="curve" smooth="yes"/>
      <point x="699" y="68"/>
      <point x="666" y="22"/>
    </contour>
  </outline>
</glyph>
<glyph name="se-ethiopic" format="2">
  <advance width="597"/>
  <unicode hex="1235"/>
  <note>
uni1235
</note>
  <anchor x="311" y="762" name="top"/>
  <outline>
    <contour>
      <point x="279" y="582" type="line"/>
      <point x="305" y="583" type="line"/>
      <point x="273" y="671" type="line" smooth="yes"/>
      <point x="266" y="690"/>
      <point x="263" y="704"/>
      <point x="263" y="716" type="curve" smooth="yes"/>
      <point x="263" y="732"/>
      <point x="273" y="741"/>
      <point x="296" y="742" type="curve"/>
      <point x="296" y="762" type="line"/>
      <point x="240" y="759" type="line"/>
      <point x="234" y="752"/>
      <point x="231" y="742"/>
      <point x="231" y="729" type="curve" smooth="yes"/>
      <point x="231" y="715"/>
      <point x="236" y="696"/>
      <point x="244" y="674" type="curve" smooth="yes"/>
    </contour>
    <component base="shortnarch"/>
  </outline>
</glyph>
<glyph name="so-ethiopic" format="2">
  <advance width="554"/>
  <unicode hex="1236"/>
  <note>
uni1236
</note>
  <anchor x="312" y="762" name="top"/>
  <outline>
    <contour>
      <point x="286" y="591" type="line"/>
      <point x="314" y="591" type="line"/>
      <point x="314" y="695" type="line" smooth="yes"/>
      <point x="314" y="733"/>
      <point x="307" y="753"/>
      <point x="293" y="762" type="curve"/>
      <point x="243" y="758" type="line"/>
      <point x="243" y="738" type="line"/>
      <point x="273" y="738"/>
      <point x="286" y="728"/>
      <point x="286" y="686" type="curve" smooth="yes"/>
    </contour>
    <component base="boshort"/>
  </outline>
</glyph>
<glyph name="swa-ethiopic" format="2">
  <advance width="674"/>
  <unicode hex="1237"/>
  <note>
uni1237
</note>
  <anchor x="337" y="762" name="top"/>
  <outline>
    <contour>
      <point x="450" y="0" type="curve"/>
      <point x="509" y="0" type="line"/>
      <point x="509" y="25" type="line"/>
      <point x="481" y="25"/>
      <point x="461" y="31"/>
      <point x="461" y="88" type="curve" smooth="yes"/>
      <point x="461" y="164"/>
      <point x="464" y="324"/>
      <point x="464" y="395" type="curve" smooth="yes"/>
      <point x="464" y="540"/>
      <point x="410" y="602"/>
      <point x="299" y="602" type="curve" smooth="yes"/>
      <point x="156" y="602"/>
      <point x="86" y="480"/>
      <point x="86" y="344" type="curve" smooth="yes"/>
      <point x="86" y="326" type="line" smooth="yes"/>
      <point x="86" y="284"/>
      <point x="93" y="254"/>
      <point x="103" y="238" type="curve"/>
      <point x="162" y="242" type="line"/>
      <point x="162" y="262" type="line"/>
      <point x="134" y="262"/>
      <point x="114" y="272"/>
      <point x="114" y="328" type="curve" smooth="yes"/>
      <point x="114" y="338" type="line" smooth="yes"/>
      <point x="114" y="483"/>
      <point x="182" y="578"/>
      <point x="298" y="578" type="curve" smooth="yes"/>
      <point x="391" y="578"/>
      <point x="436" y="518"/>
      <point x="436" y="393" type="curve" smooth="yes"/>
      <point x="436" y="309"/>
      <point x="433" y="178"/>
      <point x="433" y="86" type="curve" smooth="yes"/>
      <point x="433" y="38"/>
      <point x="440" y="16"/>
    </contour>
    <contour>
      <point x="282" y="591" type="line"/>
      <point x="310" y="591" type="line"/>
      <point x="310" y="695" type="line" smooth="yes"/>
      <point x="310" y="733"/>
      <point x="303" y="753"/>
      <point x="289" y="762" type="curve"/>
      <point x="239" y="758" type="line"/>
      <point x="239" y="738" type="line"/>
      <point x="269" y="738"/>
      <point x="282" y="728"/>
      <point x="282" y="686" type="curve" smooth="yes"/>
    </contour>
    <component base="footlong"/>
  </outline>
</glyph>
<glyph name="sha-ethiopic" format="2">
	<advance width="585"/>
	<unicode hex="1238"/>
	<anchor x="294" y="794" name="top"/>
	<note>
		uni1238
	</note>
	<outline>
		<contour>
			<point x="280" y="591" type="line"/>
			<point x="308" y="591" type="line"/>
			<point x="308" y="751" type="line"/>
			<point x="280" y="751" type="line"/>
		</contour>
		<component base="shortnarch" xOffset="-8"/>
		<component base="bonemiddle" xOffset="44" yOffset="-12"/>
	</outline>
</glyph>
<glyph name="shi-ethiopic" format="2">
  <advance width="699"/>
  <unicode hex="123A"/>
  <note>
uni123A
</note>
  <anchor x="371" y="794" name="top"/>
  <outline>
    <contour>
      <point x="110" y="-3" type="curve"/>
      <point x="169" y="2" type="line"/>
      <point x="169" y="21" type="line"/>
      <point x="141" y="21"/>
      <point x="121" y="31"/>
      <point x="121" y="87" type="curve" smooth="yes"/>
      <point x="121" y="298" type="line" smooth="yes"/>
      <point x="121" y="483"/>
      <point x="189" y="578"/>
      <point x="305" y="578" type="curve" smooth="yes"/>
      <point x="398" y="578"/>
      <point x="443" y="518"/>
      <point x="443" y="393" type="curve" smooth="yes"/>
      <point x="443" y="309"/>
      <point x="440" y="177"/>
      <point x="440" y="85" type="curve" smooth="yes"/>
      <point x="440" y="37"/>
      <point x="450" y="15"/>
      <point x="465" y="0" type="curve"/>
      <point x="516" y="0" type="line"/>
      <point x="516" y="25" type="line"/>
      <point x="488" y="25"/>
      <point x="468" y="34"/>
      <point x="468" y="87" type="curve" smooth="yes"/>
      <point x="468" y="163"/>
      <point x="471" y="324"/>
      <point x="471" y="395" type="curve" smooth="yes"/>
      <point x="471" y="540"/>
      <point x="417" y="602"/>
      <point x="306" y="602" type="curve" smooth="yes"/>
      <point x="163" y="602"/>
      <point x="93" y="480"/>
      <point x="93" y="304" type="curve" smooth="yes"/>
      <point x="93" y="85" type="line" smooth="yes"/>
      <point x="93" y="43"/>
      <point x="100" y="13"/>
    </contour>
    <contour>
      <point x="655" y="-34" type="curve" smooth="yes"/>
      <point x="661" y="-34"/>
      <point x="665" y="-33"/>
      <point x="669" y="-31" type="curve"/>
      <point x="660" y="-21"/>
      <point x="656" y="-4"/>
      <point x="656" y="12" type="curve" smooth="yes"/>
      <point x="656" y="28"/>
      <point x="660" y="45"/>
      <point x="669" y="55" type="curve"/>
      <point x="665" y="57"/>
      <point x="661" y="58"/>
      <point x="655" y="58" type="curve" smooth="yes"/>
      <point x="635" y="58"/>
      <point x="621" y="44"/>
      <point x="618" y="25" type="curve"/>
      <point x="467" y="25" type="line"/>
      <point x="467" y="0" type="line"/>
      <point x="618" y="0" type="line"/>
      <point x="621" y="-20"/>
      <point x="635" y="-34"/>
    </contour>
    <contour>
      <point x="280" y="591" type="line"/>
      <point x="308" y="591" type="line"/>
      <point x="308" y="751" type="line"/>
      <point x="280" y="751" type="line"/>
    </contour>
    <component base="bonemiddle" xOffset="44" yOffset="-12"/>
  </outline>
</glyph>
<glyph name="shaa-ethiopic" format="2">
	<advance width="572"/>
	<unicode hex="123B"/>
	<anchor x="283" y="794" name="top"/>
	<note>
		uni123B
	</note>
	<outline>
		<contour>
			<point x="272" y="591" type="line"/>
			<point x="300" y="591" type="line"/>
			<point x="300" y="751" type="line"/>
			<point x="272" y="751" type="line"/>
		</contour>
		<component base="bonemiddle" xOffset="34" yOffset="-12"/>
		<component base="baashort" xOffset="9"/>
	</outline>
</glyph>
<glyph name="shee-ethiopic" format="2">
  <advance width="745"/>
  <unicode hex="123C"/>
  <note>
uni123C
</note>
  <anchor x="394" y="794" name="top"/>
  <outline>
    <contour>
      <point x="105" y="-3" type="curve"/>
      <point x="164" y="2" type="line"/>
      <point x="164" y="21" type="line"/>
      <point x="136" y="21"/>
      <point x="116" y="31"/>
      <point x="116" y="87" type="curve" smooth="yes"/>
      <point x="116" y="298" type="line" smooth="yes"/>
      <point x="116" y="483"/>
      <point x="184" y="578"/>
      <point x="300" y="578" type="curve" smooth="yes"/>
      <point x="392" y="578"/>
      <point x="437" y="518"/>
      <point x="437" y="393" type="curve" smooth="yes"/>
      <point x="437" y="349"/>
      <point x="437" y="275"/>
      <point x="437" y="217" type="curve"/>
      <point x="464" y="217" type="line"/>
      <point x="464" y="279"/>
      <point x="465" y="357"/>
      <point x="465" y="395" type="curve" smooth="yes"/>
      <point x="465" y="540"/>
      <point x="411" y="602"/>
      <point x="301" y="602" type="curve" smooth="yes"/>
      <point x="158" y="602"/>
      <point x="88" y="480"/>
      <point x="88" y="304" type="curve" smooth="yes"/>
      <point x="88" y="85" type="line" smooth="yes"/>
      <point x="88" y="43"/>
      <point x="95" y="13"/>
    </contour>
    <contour>
      <point x="279" y="591" type="line"/>
      <point x="307" y="591" type="line"/>
      <point x="307" y="751" type="line"/>
      <point x="279" y="751" type="line"/>
    </contour>
    <component base="bonemiddle" xOffset="44" yOffset="-12"/>
    <component base="baselinebowl" xOffset="387"/>
  </outline>
</glyph>
<glyph name="sho-ethiopic" format="2">
	<advance width="587"/>
	<unicode hex="123E"/>
	<anchor x="295" y="794" name="top"/>
	<note>
		uni123E
	</note>
	<outline>
		<contour>
			<point x="281" y="591" type="line"/>
			<point x="309" y="591" type="line"/>
			<point x="309" y="751" type="line"/>
			<point x="281" y="751" type="line"/>
		</contour>
		<component base="boshort" xOffset="-7"/>
		<component base="bonemiddle" xOffset="44" yOffset="-12"/>
	</outline>
</glyph>
<glyph name="qi-ethiopic" format="2">
  <advance width="563"/>
  <unicode hex="1242"/>
  <note>
uni1242
</note>
  <anchor x="281" y="716" name="top"/>
  <outline>
    <contour>
      <point x="283" y="0" type="curve"/>
      <point x="342" y="0" type="line"/>
      <point x="342" y="25" type="line"/>
      <point x="314" y="25"/>
      <point x="294" y="34"/>
      <point x="294" y="91" type="curve" smooth="yes"/>
      <point x="294" y="649" type="line" smooth="yes"/>
      <point x="294" y="687"/>
      <point x="287" y="707"/>
      <point x="273" y="716" type="curve"/>
      <point x="223" y="712" type="line"/>
      <point x="223" y="692" type="line"/>
      <point x="253" y="692"/>
      <point x="266" y="682"/>
      <point x="266" y="640" type="curve" smooth="yes"/>
      <point x="266" y="89" type="line" smooth="yes"/>
      <point x="266" y="41"/>
      <point x="273" y="16"/>
    </contour>
    <component base="rightdoubleflag" xOffset="298" yOffset="-1"/>
    <component base="midring" yOffset="1"/>
  </outline>
</glyph>
<glyph name="qee-ethiopic" format="2">
  <advance width="563"/>
  <unicode hex="1244"/>
  <note>
uni1244
</note>
  <anchor x="281" y="716" name="top"/>
  <outline>
    <contour>
      <point x="367" y="0" type="curve"/>
      <point x="407" y="0" type="line" smooth="yes"/>
      <point x="482" y="0"/>
      <point x="533" y="37"/>
      <point x="533" y="98" type="curve" smooth="yes"/>
      <point x="533" y="148"/>
      <point x="498" y="186"/>
      <point x="412" y="186" type="curve" smooth="yes"/>
      <point x="294" y="186" type="line"/>
      <point x="294" y="649" type="line" smooth="yes"/>
      <point x="294" y="687"/>
      <point x="287" y="707"/>
      <point x="273" y="716" type="curve"/>
      <point x="223" y="712" type="line"/>
      <point x="223" y="692" type="line"/>
      <point x="253" y="692"/>
      <point x="266" y="682"/>
      <point x="266" y="640" type="curve" smooth="yes"/>
      <point x="266" y="95" type="line" smooth="yes"/>
      <point x="266" y="42"/>
      <point x="298" y="9"/>
    </contour>
    <contour>
      <point x="397" y="22" type="curve" smooth="yes"/>
      <point x="320" y="22"/>
      <point x="294" y="50"/>
      <point x="294" y="99" type="curve" smooth="yes"/>
      <point x="294" y="162" type="line"/>
      <point x="408" y="162" type="line" smooth="yes"/>
      <point x="480" y="162"/>
      <point x="505" y="133"/>
      <point x="505" y="97" type="curve" smooth="yes"/>
      <point x="505" y="52"/>
      <point x="472" y="22"/>
    </contour>
    <component base="midringshort" yOffset="33"/>
  </outline>
</glyph>
<glyph name="qe-ethiopic" format="2">
  <advance width="563"/>
  <unicode hex="1245"/>
  <note>
uni1245
</note>
  <anchor x="281" y="771" name="top"/>
  <outline>
    <contour>
      <point x="288" y="-3" type="curve"/>
      <point x="336" y="2" type="line"/>
      <point x="336" y="22" type="line"/>
      <point x="307" y="22"/>
      <point x="293" y="31"/>
      <point x="293" y="75" type="curve" smooth="yes"/>
      <point x="293" y="654" type="line" smooth="yes"/>
      <point x="293" y="686"/>
      <point x="282" y="706"/>
      <point x="267" y="714" type="curve"/>
      <point x="107" y="714" type="line"/>
      <point x="108" y="719"/>
      <point x="108" y="725"/>
      <point x="108" y="729" type="curve" smooth="yes"/>
      <point x="108" y="753"/>
      <point x="94" y="771"/>
      <point x="73" y="771" type="curve" smooth="yes"/>
      <point x="66" y="771"/>
      <point x="62" y="770"/>
      <point x="58" y="768" type="curve"/>
      <point x="67" y="758"/>
      <point x="71" y="740"/>
      <point x="71" y="724" type="curve" smooth="yes"/>
      <point x="71" y="708"/>
      <point x="68" y="698"/>
      <point x="65" y="689" type="curve"/>
      <point x="228" y="689" type="line" smooth="yes"/>
      <point x="255" y="689"/>
      <point x="265" y="677"/>
      <point x="265" y="639" type="curve" smooth="yes"/>
      <point x="265" y="64" type="line" smooth="yes"/>
      <point x="265" y="26"/>
      <point x="273" y="7"/>
    </contour>
    <component base="midring"/>
  </outline>
</glyph>
<glyph name="qoa-ethiopic" format="2">
  <advance width="563"/>
  <unicode hex="1247"/>
  <note>
uni1247
</note>
  <anchor x="281" y="773" name="top"/>
  <outline>
    <contour>
      <point x="85" y="-34" type="curve" smooth="yes"/>
      <point x="105" y="-34"/>
      <point x="119" y="-20"/>
      <point x="122" y="0" type="curve"/>
      <point x="266" y="0" type="line"/>
      <point x="281" y="8"/>
      <point x="292" y="30"/>
      <point x="292" y="62" type="curve" smooth="yes"/>
      <point x="292" y="483" type="line" smooth="yes"/>
      <point x="292" y="530"/>
      <point x="307" y="541"/>
      <point x="325" y="554" type="curve" smooth="yes"/>
      <point x="349" y="571"/>
      <point x="404" y="599"/>
      <point x="404" y="667" type="curve" smooth="yes"/>
      <point x="404" y="727"/>
      <point x="361" y="773"/>
      <point x="284" y="773" type="curve" smooth="yes"/>
      <point x="207" y="773"/>
      <point x="159" y="728"/>
      <point x="159" y="662" type="curve" smooth="yes"/>
      <point x="159" y="594"/>
      <point x="211" y="562"/>
      <point x="287" y="552" type="curve"/>
      <point x="271" y="536"/>
      <point x="264" y="513"/>
      <point x="264" y="483" type="curve" smooth="yes"/>
      <point x="264" y="77" type="line" smooth="yes"/>
      <point x="264" y="39"/>
      <point x="254" y="25"/>
      <point x="227" y="25" type="curve" smooth="yes"/>
      <point x="122" y="25" type="line"/>
      <point x="119" y="44"/>
      <point x="105" y="58"/>
      <point x="85" y="58" type="curve" smooth="yes"/>
      <point x="79" y="58"/>
      <point x="75" y="57"/>
      <point x="71" y="55" type="curve"/>
      <point x="80" y="45"/>
      <point x="84" y="28"/>
      <point x="84" y="12" type="curve" smooth="yes"/>
      <point x="84" y="-4"/>
      <point x="80" y="-21"/>
      <point x="71" y="-31" type="curve"/>
      <point x="75" y="-33"/>
      <point x="79" y="-34"/>
    </contour>
    <contour>
      <point x="305" y="569" type="curve"/>
      <point x="236" y="576"/>
      <point x="187" y="604"/>
      <point x="187" y="664" type="curve" smooth="yes"/>
      <point x="187" y="717"/>
      <point x="226" y="749"/>
      <point x="283" y="749" type="curve" smooth="yes"/>
      <point x="343" y="749"/>
      <point x="376" y="714"/>
      <point x="376" y="667" type="curve" smooth="yes"/>
      <point x="376" y="624"/>
      <point x="347" y="594"/>
    </contour>
    <component base="midringshort" yOffset="-93"/>
  </outline>
</glyph>
<glyph name="qwaa-ethiopic" format="2">
  <advance width="584"/>
  <unicode hex="124B"/>
  <note>
uni124B
</note>
  <anchor x="292" y="716" name="top"/>
  <outline>
    <contour>
      <point x="265" y="140" type="line"/>
      <point x="293" y="140" type="line"/>
      <point x="293" y="649" type="line" smooth="yes"/>
      <point x="293" y="687"/>
      <point x="286" y="707"/>
      <point x="272" y="716" type="curve"/>
      <point x="222" y="712" type="line"/>
      <point x="222" y="692" type="line"/>
      <point x="252" y="692"/>
      <point x="265" y="682"/>
      <point x="265" y="640" type="curve" smooth="yes"/>
    </contour>
    <contour>
      <point x="142" y="129" type="line"/>
      <point x="511" y="129" type="line"/>
      <point x="511" y="154" type="line"/>
      <point x="142" y="154" type="line"/>
    </contour>
    <contour>
      <point x="506" y="-3" type="curve"/>
      <point x="554" y="2" type="line"/>
      <point x="554" y="22" type="line"/>
      <point x="525" y="22"/>
      <point x="511" y="31"/>
      <point x="511" y="75" type="curve" smooth="yes"/>
      <point x="511" y="140" type="line"/>
      <point x="483" y="140" type="line"/>
      <point x="483" y="64" type="line" smooth="yes"/>
      <point x="483" y="26"/>
      <point x="491" y="7"/>
    </contour>
    <component base="midring" yOffset="46"/>
    <component base="leftsingleflag" xOffset="5" yOffset="-233"/>
  </outline>
</glyph>
<glyph name="qwee-ethiopic" format="2">
  <advance width="563"/>
  <unicode hex="124C"/>
  <note>
uni1244
</note>
  <anchor x="281" y="716" name="top"/>
  <outline>
    <contour>
      <point x="75" y="-57" type="curve" smooth="yes"/>
      <point x="96" y="-57"/>
      <point x="110" y="-39"/>
      <point x="110" y="-15" type="curve" smooth="yes"/>
      <point x="110" y="-11"/>
      <point x="110" y="-5"/>
      <point x="109" y="0" type="curve"/>
      <point x="384" y="0" type="line"/>
      <point x="352" y="23" type="line"/>
      <point x="67" y="25" type="line"/>
      <point x="70" y="16"/>
      <point x="73" y="6"/>
      <point x="73" y="-10" type="curve" smooth="yes"/>
      <point x="73" y="-26"/>
      <point x="69" y="-44"/>
      <point x="60" y="-54" type="curve"/>
      <point x="64" y="-56"/>
      <point x="68" y="-57"/>
    </contour>
    <component base="qee-ethiopic"/>
  </outline>
</glyph>
<glyph name="qha-ethiopic" format="2">
	<advance width="583"/>
	<unicode hex="1250"/>
	<anchor x="291" y="794" name="top"/>
	<note>
		uni1250
	</note>
	<outline>
		<contour>
			<point x="298" y="-3" type="curve"/>
			<point x="346" y="2" type="line"/>
			<point x="346" y="22" type="line"/>
			<point x="317" y="22"/>
			<point x="303" y="31"/>
			<point x="303" y="75" type="curve" smooth="yes"/>
			<point x="303" y="748" type="line"/>
			<point x="275" y="748" type="line"/>
			<point x="275" y="64" type="line" smooth="yes"/>
			<point x="275" y="26"/>
			<point x="283" y="7"/>
		</contour>
		<component base="midring" xOffset="10" yOffset="17"/>
		<component base="bonemiddle" xOffset="39" yOffset="-12"/>
	</outline>
</glyph>
<glyph name="qhi-ethiopic" format="2">
  <advance width="583"/>
  <unicode hex="1252"/>
  <note>
uni1252
</note>
  <anchor x="291" y="794" name="top"/>
  <outline>
    <contour>
      <point x="293" y="0" type="curve"/>
      <point x="352" y="0" type="line"/>
      <point x="352" y="25" type="line"/>
      <point x="324" y="25"/>
      <point x="304" y="34"/>
      <point x="304" y="91" type="curve" smooth="yes"/>
      <point x="304" y="748" type="line"/>
      <point x="276" y="748" type="line"/>
      <point x="276" y="89" type="line" smooth="yes"/>
      <point x="276" y="41"/>
      <point x="283" y="16"/>
    </contour>
    <component base="midring" xOffset="10" yOffset="17"/>
    <component base="bonemiddle" xOffset="46" yOffset="-12"/>
    <component base="rightdoubleflag" xOffset="302" yOffset="-1"/>
  </outline>
</glyph>
<glyph name="qhaa-ethiopic" format="2">
  <advance width="621"/>
  <unicode hex="1253"/>
  <note>
uni1253
</note>
  <anchor x="305" y="794" name="top"/>
  <outline>
    <contour>
      <point x="45" y="-57" type="curve" smooth="yes"/>
      <point x="66" y="-57"/>
      <point x="80" y="-39"/>
      <point x="80" y="-15" type="curve" smooth="yes"/>
      <point x="80" y="-11"/>
      <point x="80" y="-5"/>
      <point x="79" y="0" type="curve"/>
      <point x="120" y="0" type="line" smooth="yes"/>
      <point x="283" y="0"/>
      <point x="343" y="101"/>
      <point x="343" y="250" type="curve" smooth="yes"/>
      <point x="343" y="760" type="line"/>
      <point x="315" y="760" type="line"/>
      <point x="315" y="254" type="line" smooth="yes"/>
      <point x="315" y="116"/>
      <point x="267" y="25"/>
      <point x="116" y="25" type="curve" smooth="yes"/>
      <point x="37" y="25" type="line"/>
      <point x="40" y="16"/>
      <point x="43" y="6"/>
      <point x="43" y="-10" type="curve" smooth="yes"/>
      <point x="43" y="-26"/>
      <point x="39" y="-44"/>
      <point x="30" y="-54" type="curve"/>
      <point x="34" y="-56"/>
      <point x="38" y="-57"/>
    </contour>
    <component base="midring" xOffset="48"/>
    <component base="bonemiddle" xOffset="79" yOffset="-12"/>
  </outline>
</glyph>
<glyph name="qhee-ethiopic" format="2">
  <advance width="575"/>
  <unicode hex="1254"/>
  <note>
uni1254
</note>
  <anchor x="292" y="794" name="top"/>
  <outline>
    <contour>
      <point x="379" y="0" type="curve"/>
      <point x="419" y="0" type="line" smooth="yes"/>
      <point x="494" y="0"/>
      <point x="545" y="37"/>
      <point x="545" y="98" type="curve" smooth="yes"/>
      <point x="545" y="148"/>
      <point x="510" y="186"/>
      <point x="424" y="186" type="curve" smooth="yes"/>
      <point x="306" y="186" type="line"/>
      <point x="306" y="753" type="line"/>
      <point x="278" y="753" type="line"/>
      <point x="278" y="95" type="line" smooth="yes"/>
      <point x="278" y="42"/>
      <point x="310" y="9"/>
    </contour>
    <contour>
      <point x="409" y="22" type="curve" smooth="yes"/>
      <point x="332" y="22"/>
      <point x="306" y="50"/>
      <point x="306" y="99" type="curve" smooth="yes"/>
      <point x="306" y="162" type="line"/>
      <point x="420" y="162" type="line" smooth="yes"/>
      <point x="492" y="162"/>
      <point x="517" y="133"/>
      <point x="517" y="97" type="curve" smooth="yes"/>
      <point x="517" y="52"/>
      <point x="484" y="22"/>
    </contour>
    <component base="midringshort" xOffset="10" yOffset="57"/>
    <component base="bonemiddle" xOffset="44" yOffset="-12"/>
  </outline>
</glyph>
<glyph name="qhe-ethiopic" format="2">
  <advance width="626"/>
  <unicode hex="1255"/>
  <note>
uni1255
</note>
  <anchor x="313" y="793" name="top"/>
  <outline>
    <contour>
      <point x="321" y="-3" type="curve"/>
      <point x="369" y="2" type="line"/>
      <point x="369" y="22" type="line"/>
      <point x="340" y="22"/>
      <point x="326" y="31"/>
      <point x="326" y="75" type="curve" smooth="yes"/>
      <point x="326" y="159"/>
      <point x="386" y="394"/>
      <point x="386" y="496" type="curve" smooth="yes"/>
      <point x="386" y="533"/>
      <point x="368" y="566"/>
      <point x="309" y="566" type="curve" smooth="yes"/>
      <point x="231" y="566" type="line"/>
      <point x="231" y="749" type="line"/>
      <point x="203" y="749" type="line"/>
      <point x="203" y="541" type="line"/>
      <point x="300" y="541" type="line" smooth="yes"/>
      <point x="342" y="541"/>
      <point x="358" y="526"/>
      <point x="358" y="491" type="curve" smooth="yes"/>
      <point x="358" y="394"/>
      <point x="298" y="161"/>
      <point x="298" y="64" type="curve" smooth="yes"/>
      <point x="298" y="26"/>
      <point x="306" y="7"/>
    </contour>
    <component base="midringshort" xOffset="63" yOffset="-130"/>
    <component base="bone" yOffset="-13"/>
  </outline>
</glyph>
<glyph name="qho-ethiopic" format="2">
  <advance width="617"/>
  <unicode hex="1256"/>
  <note>
uni1256
</note>
  <anchor x="308" y="793" name="top"/>
  <outline>
    <contour>
      <point x="312" y="-3" type="curve"/>
      <point x="360" y="2" type="line"/>
      <point x="360" y="22" type="line"/>
      <point x="331" y="22"/>
      <point x="317" y="31"/>
      <point x="317" y="75" type="curve" smooth="yes"/>
      <point x="317" y="388" type="line" smooth="yes"/>
      <point x="317" y="435"/>
      <point x="332" y="446"/>
      <point x="350" y="459" type="curve" smooth="yes"/>
      <point x="374" y="476"/>
      <point x="435" y="504"/>
      <point x="435" y="584" type="curve" smooth="yes"/>
      <point x="435" y="656"/>
      <point x="386" y="702"/>
      <point x="309" y="702" type="curve" smooth="yes"/>
      <point x="232" y="702"/>
      <point x="179" y="657"/>
      <point x="179" y="579" type="curve" smooth="yes"/>
      <point x="179" y="499"/>
      <point x="236" y="467"/>
      <point x="312" y="457" type="curve"/>
      <point x="296" y="441"/>
      <point x="289" y="418"/>
      <point x="289" y="388" type="curve" smooth="yes"/>
      <point x="289" y="64" type="line" smooth="yes"/>
      <point x="289" y="26"/>
      <point x="297" y="7"/>
    </contour>
    <contour>
      <point x="330" y="474" type="curve"/>
      <point x="261" y="481"/>
      <point x="207" y="509"/>
      <point x="207" y="581" type="curve" smooth="yes"/>
      <point x="207" y="646"/>
      <point x="251" y="678"/>
      <point x="308" y="678" type="curve" smooth="yes"/>
      <point x="368" y="678"/>
      <point x="407" y="643"/>
      <point x="407" y="584" type="curve" smooth="yes"/>
      <point x="407" y="529"/>
      <point x="372" y="499"/>
    </contour>
    <contour>
      <point x="296" y="689" type="line"/>
      <point x="321" y="689" type="line"/>
      <point x="321" y="748" type="line"/>
      <point x="296" y="748" type="line"/>
    </contour>
    <component base="bonelong" xOffset="10" yOffset="-13"/>
    <component base="midringshort" xOffset="20" yOffset="-152"/>
  </outline>
</glyph>
<glyph name="qhwa-ethiopic" format="2">
	<advance width="736"/>
	<unicode hex="1258"/>
	<anchor x="373" y="794" name="top"/>
	<note>
		uni1258
	</note>
	<outline>
		<contour>
			<point x="301" y="-3" type="curve"/>
			<point x="349" y="2" type="line"/>
			<point x="349" y="22" type="line"/>
			<point x="320" y="22"/>
			<point x="306" y="31"/>
			<point x="306" y="75" type="curve" smooth="yes"/>
			<point x="306" y="748" type="line"/>
			<point x="278" y="748" type="line"/>
			<point x="278" y="64" type="line" smooth="yes"/>
			<point x="278" y="26"/>
			<point x="286" y="7"/>
		</contour>
		<component base="rightbulbsmall" xOffset="311" yOffset="-175"/>
		<component base="midringshort" xOffset="10" yOffset="47"/>
		<component base="bonemiddle" xOffset="46" yOffset="-12"/>
	</outline>
</glyph>
<glyph name="qhwaa-ethiopic" format="2">
  <advance width="629"/>
  <unicode hex="125B"/>
  <note>
uni125B
</note>
  <anchor x="314" y="794" name="top"/>
  <outline>
    <contour>
      <point x="287" y="140" type="line"/>
      <point x="315" y="140" type="line"/>
      <point x="315" y="748" type="line"/>
      <point x="287" y="748" type="line"/>
    </contour>
    <contour>
      <point x="176" y="129" type="line"/>
      <point x="536" y="129" type="line"/>
      <point x="536" y="154" type="line"/>
      <point x="176" y="154" type="line"/>
    </contour>
    <contour>
      <point x="531" y="-3" type="curve"/>
      <point x="579" y="2" type="line"/>
      <point x="579" y="22" type="line"/>
      <point x="550" y="25"/>
      <point x="536" y="33"/>
      <point x="536" y="75" type="curve" smooth="yes"/>
      <point x="536" y="154" type="line"/>
      <point x="508" y="154" type="line"/>
      <point x="508" y="64" type="line" smooth="yes"/>
      <point x="508" y="26"/>
      <point x="516" y="7"/>
    </contour>
    <component base="midringshort" xOffset="20" yOffset="44"/>
    <component base="leftsingleflag" xOffset="28" yOffset="-233"/>
    <component base="bonemiddle" xOffset="50" yOffset="-12"/>
  </outline>
</glyph>
<glyph name="qhwee-ethiopic" format="2">
  <advance width="605"/>
  <unicode hex="125C"/>
  <note>
uni125C
</note>
  <anchor x="302" y="794" name="top"/>
  <outline>
    <contour>
      <point x="225" y="0" type="line"/>
      <point x="401" y="0" type="line"/>
      <point x="370" y="25" type="line"/>
      <point x="225" y="25" type="line"/>
    </contour>
    <component base="qhee-ethiopic" xOffset="10"/>
    <component base="leftsingleflag" xOffset="45" yOffset="-362"/>
  </outline>
</glyph>
<glyph name="ba-ethiopic" format="2">
  <advance width="597"/>
  <unicode hex="1260"/>
  <note>
uni1260
</note>
  <anchor x="311" y="726" name="top"/>
  <outline>
    <contour>
      <point x="313" y="726" type="curve" smooth="yes"/>
      <point x="170" y="726"/>
      <point x="100" y="604"/>
      <point x="100" y="417" type="curve" smooth="yes"/>
      <point x="100" y="86" type="line" smooth="yes"/>
      <point x="100" y="44"/>
      <point x="107" y="14"/>
      <point x="117" y="-2" type="curve"/>
      <point x="176" y="2" type="line"/>
      <point x="176" y="22" type="line"/>
      <point x="148" y="22"/>
      <point x="128" y="32"/>
      <point x="128" y="88" type="curve" smooth="yes"/>
      <point x="128" y="411" type="line" smooth="yes"/>
      <point x="128" y="607"/>
      <point x="196" y="702"/>
      <point x="312" y="702" type="curve" smooth="yes"/>
      <point x="405" y="702"/>
      <point x="450" y="642"/>
      <point x="450" y="506" type="curve" smooth="yes"/>
      <point x="450" y="402"/>
      <point x="447" y="238"/>
      <point x="447" y="86" type="curve" smooth="yes"/>
      <point x="447" y="38"/>
      <point x="454" y="14"/>
      <point x="464" y="-2" type="curve"/>
      <point x="523" y="2" type="line"/>
      <point x="523" y="22" type="line"/>
      <point x="495" y="22"/>
      <point x="475" y="31"/>
      <point x="475" y="88" type="curve" smooth="yes"/>
      <point x="475" y="224"/>
      <point x="478" y="437"/>
      <point x="478" y="508" type="curve" smooth="yes"/>
      <point x="478" y="664"/>
      <point x="424" y="726"/>
    </contour>
  </outline>
</glyph>
<glyph name="bi-ethiopic" format="2">
  <advance width="723"/>
  <unicode hex="1262"/>
  <note>
uni1262
</note>
  <anchor x="396" y="726" name="top"/>
  <outline>
    <contour>
      <point x="679" y="-34" type="curve" smooth="yes"/>
      <point x="685" y="-34"/>
      <point x="689" y="-33"/>
      <point x="693" y="-31" type="curve"/>
      <point x="684" y="-21"/>
      <point x="680" y="-4"/>
      <point x="680" y="12" type="curve" smooth="yes"/>
      <point x="680" y="28"/>
      <point x="684" y="45"/>
      <point x="693" y="55" type="curve"/>
      <point x="689" y="57"/>
      <point x="685" y="58"/>
      <point x="679" y="58" type="curve" smooth="yes"/>
      <point x="659" y="58"/>
      <point x="645" y="44"/>
      <point x="642" y="25" type="curve"/>
      <point x="523" y="25" type="line" smooth="yes"/>
      <point x="495" y="25"/>
      <point x="475" y="31"/>
      <point x="475" y="88" type="curve" smooth="yes"/>
      <point x="475" y="224"/>
      <point x="478" y="437"/>
      <point x="478" y="508" type="curve" smooth="yes"/>
      <point x="478" y="664"/>
      <point x="424" y="726"/>
      <point x="313" y="726" type="curve" smooth="yes"/>
      <point x="170" y="726"/>
      <point x="100" y="604"/>
      <point x="100" y="417" type="curve" smooth="yes"/>
      <point x="100" y="86" type="line" smooth="yes"/>
      <point x="100" y="44"/>
      <point x="107" y="14"/>
      <point x="117" y="-2" type="curve"/>
      <point x="176" y="2" type="line"/>
      <point x="176" y="22" type="line"/>
      <point x="148" y="22"/>
      <point x="128" y="32"/>
      <point x="128" y="88" type="curve" smooth="yes"/>
      <point x="128" y="411" type="line" smooth="yes"/>
      <point x="128" y="607"/>
      <point x="196" y="702"/>
      <point x="312" y="702" type="curve" smooth="yes"/>
      <point x="405" y="702"/>
      <point x="450" y="642"/>
      <point x="450" y="506" type="curve" smooth="yes"/>
      <point x="450" y="402"/>
      <point x="447" y="238"/>
      <point x="447" y="86" type="curve" smooth="yes"/>
      <point x="447" y="38"/>
      <point x="454" y="16"/>
      <point x="464" y="0" type="curve"/>
      <point x="642" y="0" type="line"/>
      <point x="645" y="-20"/>
      <point x="659" y="-34"/>
    </contour>
  </outline>
</glyph>
<glyph name="baa-ethiopic" format="2">
  <advance width="567"/>
  <unicode hex="1263"/>
  <note>
uni1263
</note>
  <anchor x="281" y="726" name="top"/>
  <outline>
    <contour>
      <point x="434" y="-2" type="curve"/>
      <point x="493" y="2" type="line"/>
      <point x="493" y="22" type="line"/>
      <point x="465" y="22"/>
      <point x="445" y="31"/>
      <point x="445" y="88" type="curve" smooth="yes"/>
      <point x="445" y="224"/>
      <point x="448" y="437"/>
      <point x="448" y="508" type="curve" smooth="yes"/>
      <point x="448" y="664"/>
      <point x="394" y="726"/>
      <point x="283" y="726" type="curve" smooth="yes"/>
      <point x="140" y="726"/>
      <point x="70" y="604"/>
      <point x="70" y="417" type="curve" smooth="yes"/>
      <point x="70" y="326" type="line" smooth="yes"/>
      <point x="70" y="284"/>
      <point x="77" y="254"/>
      <point x="87" y="238" type="curve"/>
      <point x="146" y="242" type="line"/>
      <point x="146" y="262" type="line"/>
      <point x="118" y="262"/>
      <point x="98" y="272"/>
      <point x="98" y="328" type="curve" smooth="yes"/>
      <point x="98" y="411" type="line" smooth="yes"/>
      <point x="98" y="607"/>
      <point x="166" y="702"/>
      <point x="282" y="702" type="curve" smooth="yes"/>
      <point x="375" y="702"/>
      <point x="420" y="642"/>
      <point x="420" y="506" type="curve" smooth="yes"/>
      <point x="420" y="402"/>
      <point x="417" y="238"/>
      <point x="417" y="86" type="curve" smooth="yes"/>
      <point x="417" y="38"/>
      <point x="424" y="14"/>
    </contour>
  </outline>
</glyph>
<glyph name="bee-ethiopic" format="2">
  <advance width="757"/>
  <unicode hex="1264"/>
  <note>
uni1264
</note>
  <anchor x="413" y="726" name="top"/>
  <outline>
    <contour>
      <point x="117" y="-2" type="curve"/>
      <point x="176" y="2" type="line"/>
      <point x="176" y="22" type="line"/>
      <point x="148" y="22"/>
      <point x="128" y="32"/>
      <point x="128" y="88" type="curve" smooth="yes"/>
      <point x="128" y="411" type="line" smooth="yes"/>
      <point x="128" y="607"/>
      <point x="196" y="702"/>
      <point x="312" y="702" type="curve" smooth="yes"/>
      <point x="405" y="702"/>
      <point x="450" y="642"/>
      <point x="450" y="506" type="curve" smooth="yes"/>
      <point x="450" y="430"/>
      <point x="448" y="222"/>
      <point x="448" y="107" type="curve" smooth="yes"/>
      <point x="448" y="44"/>
      <point x="482" y="12"/>
      <point x="541" y="0" type="curve"/>
      <point x="583" y="0" type="line" smooth="yes"/>
      <point x="676" y="0"/>
      <point x="727" y="52"/>
      <point x="727" y="122" type="curve" smooth="yes"/>
      <point x="727" y="185"/>
      <point x="688" y="230"/>
      <point x="597" y="230" type="curve" smooth="yes"/>
      <point x="476" y="230" type="line"/>
      <point x="476" y="280"/>
      <point x="478" y="432"/>
      <point x="478" y="508" type="curve" smooth="yes"/>
      <point x="478" y="664"/>
      <point x="424" y="726"/>
      <point x="313" y="726" type="curve" smooth="yes"/>
      <point x="170" y="726"/>
      <point x="100" y="604"/>
      <point x="100" y="417" type="curve" smooth="yes"/>
      <point x="100" y="86" type="line" smooth="yes"/>
      <point x="100" y="44"/>
      <point x="107" y="14"/>
    </contour>
    <contour>
      <point x="581" y="22" type="curve" smooth="yes"/>
      <point x="502" y="22"/>
      <point x="476" y="58"/>
      <point x="476" y="106" type="curve" smooth="yes"/>
      <point x="476" y="207" type="line"/>
      <point x="593" y="207" type="line" smooth="yes"/>
      <point x="670" y="207"/>
      <point x="699" y="172"/>
      <point x="699" y="122" type="curve" smooth="yes"/>
      <point x="699" y="68"/>
      <point x="666" y="22"/>
    </contour>
  </outline>
</glyph>
<glyph name="bo-ethiopic" format="2">
  <advance width="563"/>
  <unicode hex="1266"/>
  <note>
uni1266
</note>
  <anchor x="311" y="726" name="top"/>
  <outline>
    <contour>
      <point x="117" y="-2" type="curve"/>
      <point x="176" y="2" type="line"/>
      <point x="176" y="22" type="line"/>
      <point x="148" y="22"/>
      <point x="128" y="32"/>
      <point x="128" y="88" type="curve" smooth="yes"/>
      <point x="128" y="411" type="line" smooth="yes"/>
      <point x="128" y="607"/>
      <point x="196" y="702"/>
      <point x="312" y="702" type="curve" smooth="yes"/>
      <point x="405" y="702"/>
      <point x="450" y="642"/>
      <point x="450" y="506" type="curve" smooth="yes"/>
      <point x="450" y="442"/>
      <point x="447" y="368"/>
      <point x="447" y="326" type="curve" smooth="yes"/>
      <point x="447" y="278"/>
      <point x="454" y="254"/>
      <point x="464" y="238" type="curve"/>
      <point x="523" y="242" type="line"/>
      <point x="523" y="262" type="line"/>
      <point x="495" y="262"/>
      <point x="475" y="271"/>
      <point x="475" y="328" type="curve" smooth="yes"/>
      <point x="475" y="374"/>
      <point x="478" y="447"/>
      <point x="478" y="508" type="curve" smooth="yes"/>
      <point x="478" y="664"/>
      <point x="424" y="726"/>
      <point x="313" y="726" type="curve" smooth="yes"/>
      <point x="170" y="726"/>
      <point x="100" y="604"/>
      <point x="100" y="417" type="curve" smooth="yes"/>
      <point x="100" y="86" type="line" smooth="yes"/>
      <point x="100" y="44"/>
      <point x="107" y="14"/>
    </contour>
  </outline>
</glyph>
<glyph name="bwa-ethiopic" format="2">
  <advance width="684"/>
  <unicode hex="1267"/>
  <note>
uni1267
</note>
  <anchor x="347" y="726" name="top"/>
  <outline>
    <contour>
      <point x="436" y="12" type="line"/>
      <point x="464" y="12" type="line"/>
      <point x="464" y="508" type="line" smooth="yes"/>
      <point x="464" y="664"/>
      <point x="411" y="726"/>
      <point x="300" y="726" type="curve" smooth="yes"/>
      <point x="157" y="726"/>
      <point x="87" y="604"/>
      <point x="87" y="417" type="curve" smooth="yes"/>
      <point x="87" y="326" type="line" smooth="yes"/>
      <point x="87" y="284"/>
      <point x="94" y="254"/>
      <point x="104" y="238" type="curve"/>
      <point x="163" y="242" type="line"/>
      <point x="163" y="262" type="line"/>
      <point x="135" y="262"/>
      <point x="115" y="272"/>
      <point x="115" y="328" type="curve" smooth="yes"/>
      <point x="115" y="411" type="line" smooth="yes"/>
      <point x="115" y="607"/>
      <point x="183" y="702"/>
      <point x="299" y="702" type="curve" smooth="yes"/>
      <point x="392" y="702"/>
      <point x="436" y="642"/>
      <point x="436" y="506" type="curve" smooth="yes"/>
    </contour>
    <component base="footlong" xOffset="10"/>
  </outline>
</glyph>
<glyph name="vi-ethiopic" format="2">
  <advance width="701"/>
  <unicode hex="126A"/>
  <note>
uni126A
</note>
  <anchor x="385" y="793" name="top"/>
  <outline>
    <contour>
      <point x="117" y="-3" type="curve"/>
      <point x="176" y="2" type="line"/>
      <point x="176" y="21" type="line"/>
      <point x="148" y="21"/>
      <point x="128" y="31"/>
      <point x="128" y="87" type="curve" smooth="yes"/>
      <point x="128" y="298" type="line" smooth="yes"/>
      <point x="128" y="483"/>
      <point x="196" y="578"/>
      <point x="312" y="578" type="curve" smooth="yes"/>
      <point x="405" y="578"/>
      <point x="450" y="518"/>
      <point x="450" y="393" type="curve" smooth="yes"/>
      <point x="450" y="309"/>
      <point x="447" y="181"/>
      <point x="447" y="89" type="curve" smooth="yes"/>
      <point x="447" y="41"/>
      <point x="454" y="16"/>
      <point x="464" y="0" type="curve"/>
      <point x="523" y="0" type="line"/>
      <point x="523" y="25" type="line"/>
      <point x="495" y="25"/>
      <point x="475" y="34"/>
      <point x="475" y="91" type="curve" smooth="yes"/>
      <point x="475" y="167"/>
      <point x="478" y="324"/>
      <point x="478" y="395" type="curve" smooth="yes"/>
      <point x="478" y="540"/>
      <point x="424" y="602"/>
      <point x="313" y="602" type="curve" smooth="yes"/>
      <point x="170" y="602"/>
      <point x="100" y="480"/>
      <point x="100" y="304" type="curve" smooth="yes"/>
      <point x="100" y="85" type="line" smooth="yes"/>
      <point x="100" y="43"/>
      <point x="107" y="13"/>
    </contour>
    <component base="bone" xOffset="95" yOffset="-13"/>
    <component base="rightdoubleflag" xOffset="479"/>
  </outline>
</glyph>
<glyph name="vee-ethiopic" format="2">
  <advance width="757"/>
  <unicode hex="126C"/>
  <note>
uni126C
</note>
  <anchor x="413" y="793" name="top"/>
  <outline>
    <contour>
      <point x="117" y="-3" type="curve"/>
      <point x="176" y="2" type="line"/>
      <point x="176" y="21" type="line"/>
      <point x="148" y="21"/>
      <point x="128" y="31"/>
      <point x="128" y="87" type="curve" smooth="yes"/>
      <point x="128" y="298" type="line" smooth="yes"/>
      <point x="128" y="483"/>
      <point x="196" y="578"/>
      <point x="312" y="578" type="curve" smooth="yes"/>
      <point x="405" y="578"/>
      <point x="450" y="518"/>
      <point x="450" y="393" type="curve" smooth="yes"/>
      <point x="450" y="317"/>
      <point x="448" y="169"/>
      <point x="448" y="107" type="curve" smooth="yes"/>
      <point x="448" y="44"/>
      <point x="482" y="12"/>
      <point x="541" y="0" type="curve"/>
      <point x="583" y="0" type="line" smooth="yes"/>
      <point x="676" y="0"/>
      <point x="727" y="52"/>
      <point x="727" y="122" type="curve" smooth="yes"/>
      <point x="727" y="185"/>
      <point x="688" y="230"/>
      <point x="597" y="230" type="curve" smooth="yes"/>
      <point x="476" y="230" type="line"/>
      <point x="476" y="259"/>
      <point x="478" y="354"/>
      <point x="478" y="395" type="curve" smooth="yes"/>
      <point x="478" y="540"/>
      <point x="424" y="602"/>
      <point x="313" y="602" type="curve" smooth="yes"/>
      <point x="170" y="602"/>
      <point x="100" y="480"/>
      <point x="100" y="304" type="curve" smooth="yes"/>
      <point x="100" y="85" type="line" smooth="yes"/>
      <point x="100" y="43"/>
      <point x="107" y="13"/>
    </contour>
    <contour>
      <point x="581" y="22" type="curve" smooth="yes"/>
      <point x="502" y="22"/>
      <point x="476" y="58"/>
      <point x="476" y="106" type="curve" smooth="yes"/>
      <point x="476" y="207" type="line"/>
      <point x="593" y="207" type="line" smooth="yes"/>
      <point x="670" y="207"/>
      <point x="699" y="172"/>
      <point x="699" y="122" type="curve" smooth="yes"/>
      <point x="699" y="68"/>
      <point x="666" y="22"/>
    </contour>
    <component base="bone" xOffset="102" yOffset="-13"/>
  </outline>
</glyph>
<glyph name="vwa-ethiopic" format="2">
  <advance width="674"/>
  <unicode hex="126F"/>
  <note>
uni126F
</note>
  <anchor x="337" y="794" name="top"/>
  <outline>
    <contour>
      <point x="428" y="12" type="curve"/>
      <point x="456" y="12" type="line"/>
      <point x="456" y="89"/>
      <point x="459" y="324"/>
      <point x="459" y="395" type="curve" smooth="yes"/>
      <point x="459" y="540"/>
      <point x="405" y="602"/>
      <point x="294" y="602" type="curve" smooth="yes"/>
      <point x="151" y="602"/>
      <point x="81" y="480"/>
      <point x="81" y="344" type="curve" smooth="yes"/>
      <point x="81" y="326" type="line" smooth="yes"/>
      <point x="81" y="284"/>
      <point x="88" y="254"/>
      <point x="98" y="238" type="curve"/>
      <point x="157" y="242" type="line"/>
      <point x="157" y="262" type="line"/>
      <point x="129" y="262"/>
      <point x="109" y="272"/>
      <point x="109" y="328" type="curve" smooth="yes"/>
      <point x="109" y="338" type="line" smooth="yes"/>
      <point x="109" y="483"/>
      <point x="177" y="578"/>
      <point x="293" y="578" type="curve" smooth="yes"/>
      <point x="386" y="578"/>
      <point x="431" y="518"/>
      <point x="431" y="393" type="curve" smooth="yes"/>
      <point x="431" y="309"/>
      <point x="428" y="103"/>
    </contour>
    <component base="footlong"/>
    <component base="bonemiddle" xOffset="41" yOffset="-12"/>
  </outline>
</glyph>
<glyph name="ti-ethiopic" format="2">
  <advance width="543"/>
  <unicode hex="1272"/>
  <note>
uni1272
</note>
  <anchor x="266" y="716" name="top"/>
  <outline>
    <contour>
      <point x="475" y="-34" type="curve" smooth="yes"/>
      <point x="481" y="-34"/>
      <point x="485" y="-33"/>
      <point x="489" y="-31" type="curve"/>
      <point x="480" y="-21"/>
      <point x="476" y="-4"/>
      <point x="476" y="12" type="curve" smooth="yes"/>
      <point x="476" y="28"/>
      <point x="480" y="45"/>
      <point x="489" y="55" type="curve"/>
      <point x="485" y="57"/>
      <point x="481" y="58"/>
      <point x="475" y="58" type="curve" smooth="yes"/>
      <point x="455" y="58"/>
      <point x="441" y="44"/>
      <point x="438" y="25" type="curve"/>
      <point x="318" y="25" type="line" smooth="yes"/>
      <point x="289" y="25"/>
      <point x="275" y="34"/>
      <point x="275" y="78" type="curve" smooth="yes"/>
      <point x="275" y="649" type="line" smooth="yes"/>
      <point x="275" y="687"/>
      <point x="268" y="707"/>
      <point x="254" y="716" type="curve"/>
      <point x="204" y="712" type="line"/>
      <point x="204" y="692" type="line"/>
      <point x="234" y="692"/>
      <point x="247" y="682"/>
      <point x="247" y="640" type="curve" smooth="yes"/>
      <point x="247" y="67" type="line" smooth="yes"/>
      <point x="247" y="29"/>
      <point x="255" y="10"/>
      <point x="270" y="0" type="curve"/>
      <point x="438" y="0" type="line"/>
      <point x="441" y="-20"/>
      <point x="455" y="-34"/>
    </contour>
    <component base="footmiddle" xOffset="-10" yOffset="511"/>
  </outline>
</glyph>
<glyph name="tee-ethiopic" format="2">
  <advance width="548"/>
  <unicode hex="1274"/>
  <note>
uni1274
</note>
  <anchor x="269" y="716" name="top"/>
  <outline>
    <contour>
      <point x="352" y="0" type="curve"/>
      <point x="392" y="0" type="line" smooth="yes"/>
      <point x="467" y="0"/>
      <point x="518" y="37"/>
      <point x="518" y="98" type="curve" smooth="yes"/>
      <point x="518" y="148"/>
      <point x="483" y="186"/>
      <point x="397" y="186" type="curve" smooth="yes"/>
      <point x="279" y="186" type="line"/>
      <point x="279" y="649" type="line" smooth="yes"/>
      <point x="279" y="687"/>
      <point x="272" y="707"/>
      <point x="258" y="716" type="curve"/>
      <point x="208" y="712" type="line"/>
      <point x="208" y="692" type="line"/>
      <point x="238" y="692"/>
      <point x="251" y="682"/>
      <point x="251" y="640" type="curve" smooth="yes"/>
      <point x="251" y="95" type="line" smooth="yes"/>
      <point x="251" y="42"/>
      <point x="283" y="9"/>
    </contour>
    <contour>
      <point x="382" y="22" type="curve" smooth="yes"/>
      <point x="305" y="22"/>
      <point x="279" y="50"/>
      <point x="279" y="99" type="curve" smooth="yes"/>
      <point x="279" y="162" type="line"/>
      <point x="393" y="162" type="line" smooth="yes"/>
      <point x="465" y="162"/>
      <point x="490" y="133"/>
      <point x="490" y="97" type="curve" smooth="yes"/>
      <point x="490" y="52"/>
      <point x="457" y="22"/>
    </contour>
    <component base="footmiddle" xOffset="-10" yOffset="511"/>
  </outline>
</glyph>
<glyph name="te-ethiopic" format="2">
  <advance width="543"/>
  <unicode hex="1275"/>
  <note>
uni1275
</note>
  <anchor x="276" y="771" name="top"/>
  <outline>
    <contour>
      <point x="290" y="-3" type="curve"/>
      <point x="338" y="2" type="line"/>
      <point x="338" y="22" type="line"/>
      <point x="309" y="22"/>
      <point x="295" y="31"/>
      <point x="295" y="75" type="curve" smooth="yes"/>
      <point x="295" y="654" type="line" smooth="yes"/>
      <point x="295" y="686"/>
      <point x="284" y="706"/>
      <point x="269" y="714" type="curve"/>
      <point x="109" y="714" type="line"/>
      <point x="110" y="719"/>
      <point x="110" y="725"/>
      <point x="110" y="729" type="curve" smooth="yes"/>
      <point x="110" y="753"/>
      <point x="96" y="771"/>
      <point x="75" y="771" type="curve" smooth="yes"/>
      <point x="68" y="771"/>
      <point x="64" y="770"/>
      <point x="60" y="768" type="curve"/>
      <point x="69" y="758"/>
      <point x="73" y="740"/>
      <point x="73" y="724" type="curve" smooth="yes"/>
      <point x="73" y="708"/>
      <point x="70" y="698"/>
      <point x="67" y="689" type="curve"/>
      <point x="230" y="689" type="line" smooth="yes"/>
      <point x="257" y="689"/>
      <point x="267" y="677"/>
      <point x="267" y="639" type="curve" smooth="yes"/>
      <point x="267" y="64" type="line" smooth="yes"/>
      <point x="267" y="26"/>
      <point x="275" y="7"/>
    </contour>
    <component base="footmiddle" yOffset="414"/>
  </outline>
</glyph>
<glyph name="twa-ethiopic" format="2">
  <advance width="573"/>
  <unicode hex="1277"/>
  <note>
uni1277
</note>
  <anchor x="286" y="716" name="top"/>
  <outline>
    <contour>
      <point x="296" y="4" type="curve"/>
      <point x="343" y="4" type="line"/>
      <point x="343" y="25" type="line"/>
      <point x="314" y="25"/>
      <point x="300" y="34"/>
      <point x="300" y="75" type="curve" smooth="yes"/>
      <point x="300" y="649" type="line" smooth="yes"/>
      <point x="300" y="687"/>
      <point x="293" y="707"/>
      <point x="279" y="716" type="curve"/>
      <point x="229" y="712" type="line"/>
      <point x="229" y="692" type="line"/>
      <point x="259" y="692"/>
      <point x="272" y="682"/>
      <point x="272" y="640" type="curve" smooth="yes"/>
      <point x="272" y="64" type="line" smooth="yes"/>
      <point x="272" y="26"/>
      <point x="281" y="14"/>
    </contour>
    <component base="footmiddle" xOffset="10" yOffset="511"/>
    <component base="footmiddle" xOffset="10"/>
  </outline>
</glyph>
<glyph name="ca-ethiopic" format="2">
  <advance width="573"/>
  <unicode hex="1278"/>
  <note>
uni1278
</note>
  <anchor x="286" y="794" name="top"/>
  <outline>
    <contour>
      <point x="298" y="-3" type="curve"/>
      <point x="346" y="2" type="line"/>
      <point x="346" y="23" type="line"/>
      <point x="317" y="23"/>
      <point x="303" y="33"/>
      <point x="303" y="80" type="curve" smooth="yes"/>
      <point x="303" y="756" type="line"/>
      <point x="275" y="756" type="line"/>
      <point x="275" y="68" type="line" smooth="yes"/>
      <point x="275" y="28"/>
      <point x="283" y="7"/>
    </contour>
    <component base="bonemiddle" xOffset="42" yOffset="-12"/>
    <component base="footmiddle" xOffset="10" yOffset="494"/>
  </outline>
</glyph>
<glyph name="ci-ethiopic" format="2">
  <advance width="593"/>
  <unicode hex="127A"/>
  <note>
uni127A
</note>
  <anchor x="296" y="794" name="top"/>
  <outline>
    <contour>
      <point x="490" y="-34" type="curve" smooth="yes"/>
      <point x="496" y="-34"/>
      <point x="500" y="-33"/>
      <point x="504" y="-31" type="curve"/>
      <point x="495" y="-21"/>
      <point x="491" y="-4"/>
      <point x="491" y="12" type="curve" smooth="yes"/>
      <point x="491" y="28"/>
      <point x="495" y="45"/>
      <point x="504" y="55" type="curve"/>
      <point x="500" y="57"/>
      <point x="496" y="58"/>
      <point x="490" y="58" type="curve" smooth="yes"/>
      <point x="470" y="58"/>
      <point x="456" y="44"/>
      <point x="453" y="25" type="curve"/>
      <point x="350" y="25" type="line" smooth="yes"/>
      <point x="321" y="25"/>
      <point x="307" y="35"/>
      <point x="307" y="80" type="curve" smooth="yes"/>
      <point x="307" y="746" type="line"/>
      <point x="279" y="746" type="line"/>
      <point x="279" y="68" type="line" smooth="yes"/>
      <point x="279" y="28"/>
      <point x="288" y="10"/>
      <point x="301" y="0" type="curve"/>
      <point x="453" y="0" type="line"/>
      <point x="456" y="-20"/>
      <point x="470" y="-34"/>
    </contour>
    <component base="bonemiddle" xOffset="46" yOffset="-12"/>
    <component base="footmiddle" xOffset="20" yOffset="493"/>
  </outline>
</glyph>
<glyph name="cee-ethiopic" format="2">
  <advance width="593"/>
  <unicode hex="127C"/>
  <note>
uni127C
</note>
  <anchor x="296" y="794" name="top"/>
  <outline>
    <contour>
      <point x="376" y="0" type="curve"/>
      <point x="416" y="0" type="line" smooth="yes"/>
      <point x="491" y="0"/>
      <point x="542" y="37"/>
      <point x="542" y="98" type="curve" smooth="yes"/>
      <point x="542" y="148"/>
      <point x="507" y="186"/>
      <point x="421" y="186" type="curve" smooth="yes"/>
      <point x="303" y="186" type="line"/>
      <point x="303" y="754" type="line"/>
      <point x="275" y="754" type="line"/>
      <point x="275" y="95" type="line" smooth="yes"/>
      <point x="275" y="42"/>
      <point x="307" y="9"/>
    </contour>
    <contour>
      <point x="406" y="22" type="curve" smooth="yes"/>
      <point x="329" y="22"/>
      <point x="303" y="50"/>
      <point x="303" y="99" type="curve" smooth="yes"/>
      <point x="303" y="162" type="line"/>
      <point x="417" y="162" type="line" smooth="yes"/>
      <point x="489" y="162"/>
      <point x="514" y="133"/>
      <point x="514" y="97" type="curve" smooth="yes"/>
      <point x="514" y="52"/>
      <point x="481" y="22"/>
    </contour>
    <component base="bonemiddle" xOffset="37" yOffset="-12"/>
    <component base="footmiddle" xOffset="20" yOffset="491"/>
  </outline>
</glyph>
<glyph name="ce-ethiopic" format="2">
  <advance width="622"/>
  <unicode hex="127D"/>
  <note>
uni127D
</note>
  <anchor x="292" y="794" name="top"/>
  <outline>
    <contour>
      <point x="316" y="-3" type="curve"/>
      <point x="364" y="2" type="line"/>
      <point x="364" y="22" type="line"/>
      <point x="335" y="22"/>
      <point x="321" y="31"/>
      <point x="321" y="75" type="curve" smooth="yes"/>
      <point x="321" y="149"/>
      <point x="381" y="388"/>
      <point x="381" y="480" type="curve" smooth="yes"/>
      <point x="381" y="517"/>
      <point x="363" y="550"/>
      <point x="304" y="550" type="curve" smooth="yes"/>
      <point x="226" y="550" type="line"/>
      <point x="226" y="760" type="line"/>
      <point x="198" y="760" type="line"/>
      <point x="198" y="525" type="line"/>
      <point x="295" y="525" type="line" smooth="yes"/>
      <point x="337" y="525"/>
      <point x="353" y="510"/>
      <point x="353" y="475" type="curve" smooth="yes"/>
      <point x="353" y="388"/>
      <point x="293" y="151"/>
      <point x="293" y="64" type="curve" smooth="yes"/>
      <point x="293" y="26"/>
      <point x="301" y="7"/>
    </contour>
    <component base="footmiddle" xOffset="69" yOffset="359"/>
    <component base="bone.alt" yOffset="-13"/>
  </outline>
</glyph>
<glyph name="co-ethiopic" format="2">
  <advance width="553"/>
  <unicode hex="127E"/>
  <note>
uni127E
</note>
  <anchor x="276" y="833" name="top"/>
  <outline>
    <contour>
      <point x="217" y="751" type="line"/>
      <point x="335" y="751" type="line"/>
      <point x="335" y="776" type="line"/>
      <point x="217" y="776" type="line"/>
    </contour>
    <contour>
      <point x="487" y="833" type="curve" smooth="yes"/>
      <point x="466" y="833"/>
      <point x="452" y="815"/>
      <point x="452" y="791" type="curve" smooth="yes"/>
      <point x="452" y="787"/>
      <point x="452" y="781"/>
      <point x="453" y="776" type="curve"/>
      <point x="279" y="776" type="line"/>
      <point x="279" y="751" type="line"/>
      <point x="495" y="751" type="line"/>
      <point x="492" y="760"/>
      <point x="489" y="770"/>
      <point x="489" y="786" type="curve" smooth="yes"/>
      <point x="489" y="802"/>
      <point x="493" y="820"/>
      <point x="502" y="830" type="curve"/>
      <point x="498" y="832"/>
      <point x="494" y="833"/>
    </contour>
    <component base="to-ethiopic"/>
    <component base="leftdoubleflag" xOffset="3" yOffset="751"/>
  </outline>
</glyph>
<glyph name="cwa-ethiopic" format="2">
	<advance width="583"/>
	<unicode hex="127F"/>
	<anchor x="291" y="794" name="top"/>
	<note>
		uni127F
	</note>
	<outline>
		<contour>
			<point x="304" y="2" type="curve"/>
			<point x="352" y="2" type="line"/>
			<point x="352" y="25" type="line"/>
			<point x="323" y="25"/>
			<point x="309" y="35"/>
			<point x="309" y="80" type="curve" smooth="yes"/>
			<point x="309" y="747" type="line"/>
			<point x="281" y="747" type="line"/>
			<point x="281" y="68" type="line" smooth="yes"/>
			<point x="281" y="28"/>
			<point x="289" y="12"/>
		</contour>
		<component base="bonemiddle" xOffset="43" yOffset="-12"/>
		<component base="footmiddle" xOffset="15" yOffset="511"/>
		<component base="footmiddle" xOffset="15"/>
	</outline>
</glyph>
<glyph name="xaa-ethiopic" format="2">
  <advance width="514"/>
  <unicode hex="1283"/>
  <note>
uni1283
</note>
  <anchor x="217" y="716" name="top"/>
  <outline>
    <contour>
      <point x="96" y="-57" type="curve" smooth="yes"/>
      <point x="117" y="-57"/>
      <point x="131" y="-39"/>
      <point x="131" y="-15" type="curve" smooth="yes"/>
      <point x="131" y="-11"/>
      <point x="131" y="-5"/>
      <point x="130" y="0" type="curve"/>
      <point x="171" y="0" type="line" smooth="yes"/>
      <point x="334" y="0"/>
      <point x="414" y="121"/>
      <point x="414" y="300" type="curve" smooth="yes"/>
      <point x="414" y="446" type="line" smooth="yes"/>
      <point x="414" y="483"/>
      <point x="396" y="516"/>
      <point x="337" y="516" type="curve" smooth="yes"/>
      <point x="259" y="516" type="line"/>
      <point x="259" y="663" type="line" smooth="yes"/>
      <point x="259" y="691"/>
      <point x="252" y="707"/>
      <point x="238" y="716" type="curve"/>
      <point x="188" y="712" type="line"/>
      <point x="188" y="692" type="line"/>
      <point x="218" y="692"/>
      <point x="231" y="683"/>
      <point x="231" y="654" type="curve" smooth="yes"/>
      <point x="231" y="491" type="line"/>
      <point x="328" y="491" type="line" smooth="yes"/>
      <point x="370" y="491"/>
      <point x="386" y="476"/>
      <point x="386" y="441" type="curve" smooth="yes"/>
      <point x="386" y="304" type="line" smooth="yes"/>
      <point x="386" y="136"/>
      <point x="318" y="25"/>
      <point x="167" y="25" type="curve" smooth="yes"/>
      <point x="88" y="25" type="line"/>
      <point x="91" y="16"/>
      <point x="94" y="6"/>
      <point x="94" y="-10" type="curve" smooth="yes"/>
      <point x="94" y="-26"/>
      <point x="90" y="-44"/>
      <point x="81" y="-54" type="curve"/>
      <point x="85" y="-56"/>
      <point x="89" y="-57"/>
    </contour>
    <component base="leftsingleflag" xOffset="-10" yOffset="230"/>
  </outline>
</glyph>
<glyph name="xe-ethiopic" format="2">
  <advance width="481"/>
  <unicode hex="1285"/>
  <note>
uni1285
</note>
  <anchor x="216" y="716" name="top"/>
  <outline>
    <contour>
      <point x="55" y="334" type="curve"/>
      <point x="103" y="339" type="line"/>
      <point x="103" y="359" type="line"/>
      <point x="74" y="359"/>
      <point x="60" y="368"/>
      <point x="60" y="412" type="curve" smooth="yes"/>
      <point x="60" y="551"/>
      <point x="139" y="620"/>
      <point x="240" y="631" type="curve"/>
      <point x="237" y="655" type="line"/>
      <point x="120" y="643"/>
      <point x="32" y="563"/>
      <point x="32" y="401" type="curve" smooth="yes"/>
      <point x="32" y="363"/>
      <point x="40" y="344"/>
    </contour>
    <component base="na-ethiopic" xOffset="145"/>
  </outline>
</glyph>
<glyph name="xwaa-ethiopic" format="2">
  <advance width="619"/>
  <unicode hex="128B"/>
  <note>
uni128B
</note>
  <anchor x="304" y="716" name="top"/>
  <outline>
    <contour>
      <point x="365" y="130" type="curve"/>
      <point x="413" y="134" type="line"/>
      <point x="413" y="154" type="line"/>
      <point x="384" y="154"/>
      <point x="370" y="163"/>
      <point x="370" y="207" type="curve" smooth="yes"/>
      <point x="370" y="255"/>
      <point x="404" y="387"/>
      <point x="404" y="446" type="curve" smooth="yes"/>
      <point x="404" y="483"/>
      <point x="386" y="516"/>
      <point x="327" y="516" type="curve" smooth="yes"/>
      <point x="249" y="516" type="line"/>
      <point x="249" y="663" type="line" smooth="yes"/>
      <point x="249" y="691"/>
      <point x="242" y="707"/>
      <point x="228" y="716" type="curve"/>
      <point x="178" y="712" type="line"/>
      <point x="178" y="692" type="line"/>
      <point x="208" y="692"/>
      <point x="221" y="683"/>
      <point x="221" y="654" type="curve" smooth="yes"/>
      <point x="221" y="491" type="line"/>
      <point x="318" y="491" type="line" smooth="yes"/>
      <point x="360" y="491"/>
      <point x="376" y="476"/>
      <point x="376" y="441" type="curve" smooth="yes"/>
      <point x="376" y="384"/>
      <point x="342" y="253"/>
      <point x="342" y="196" type="curve" smooth="yes"/>
      <point x="342" y="158"/>
      <point x="350" y="140"/>
    </contour>
    <contour>
      <point x="191" y="129" type="line"/>
      <point x="546" y="129" type="line"/>
      <point x="546" y="154" type="line"/>
      <point x="191" y="154" type="line"/>
    </contour>
    <contour>
      <point x="539" y="-3" type="curve"/>
      <point x="589" y="0" type="line"/>
      <point x="589" y="20" type="line"/>
      <point x="559" y="20"/>
      <point x="546" y="29"/>
      <point x="546" y="58" type="curve" smooth="yes"/>
      <point x="546" y="154" type="line"/>
      <point x="518" y="154" type="line"/>
      <point x="518" y="49" type="line" smooth="yes"/>
      <point x="518" y="21"/>
      <point x="525" y="6"/>
    </contour>
    <component base="leftsingleflag" xOffset="75" yOffset="-233"/>
    <component base="leftsingleflag" xOffset="-10" yOffset="228"/>
  </outline>
</glyph>
<glyph name="xwee-ethiopic" format="2">
	<advance width="591"/>
	<unicode hex="128C"/>
	<anchor x="290" y="716" name="top"/>
	<note>
		uni128C
	</note>
	<outline>
		<contour>
			<point x="255" y="0" type="line"/>
			<point x="409" y="0" type="line"/>
			<point x="363" y="25" type="line"/>
			<point x="255" y="25" type="line"/>
		</contour>
		<component base="xee-ethiopic"/>
		<component base="leftsingleflag" xOffset="89" yOffset="-362"/>
	</outline>
</glyph>
<glyph name="na-ethiopic" format="2">
  <advance width="336"/>
  <unicode hex="1290"/>
  <note>
uni1290
</note>
  <anchor x="143" y="716" name="top"/>
  <outline>
    <contour>
      <point x="191" y="-3" type="curve"/>
      <point x="239" y="2" type="line"/>
      <point x="239" y="22" type="line"/>
      <point x="210" y="22"/>
      <point x="196" y="31"/>
      <point x="196" y="75" type="curve" smooth="yes"/>
      <point x="196" y="149"/>
      <point x="256" y="354"/>
      <point x="256" y="446" type="curve" smooth="yes"/>
      <point x="256" y="483"/>
      <point x="238" y="516"/>
      <point x="179" y="516" type="curve" smooth="yes"/>
      <point x="101" y="516" type="line"/>
      <point x="101" y="663" type="line" smooth="yes"/>
      <point x="101" y="691"/>
      <point x="94" y="707"/>
      <point x="80" y="716" type="curve"/>
      <point x="30" y="712" type="line"/>
      <point x="30" y="692" type="line"/>
      <point x="60" y="692"/>
      <point x="73" y="683"/>
      <point x="73" y="654" type="curve" smooth="yes"/>
      <point x="73" y="491" type="line"/>
      <point x="170" y="491" type="line" smooth="yes"/>
      <point x="212" y="491"/>
      <point x="228" y="476"/>
      <point x="228" y="441" type="curve" smooth="yes"/>
      <point x="228" y="354"/>
      <point x="168" y="151"/>
      <point x="168" y="64" type="curve" smooth="yes"/>
      <point x="168" y="26"/>
      <point x="176" y="7"/>
    </contour>
  </outline>
</glyph>
<glyph name="ni-ethiopic" format="2">
  <advance width="415"/>
  <unicode hex="1292"/>
  <note>
uni1292
</note>
  <anchor x="207" y="716" name="top"/>
  <outline>
    <contour>
      <point x="188" y="0" type="curve"/>
      <point x="239" y="0" type="line"/>
      <point x="239" y="25" type="line"/>
      <point x="210" y="25"/>
      <point x="196" y="33"/>
      <point x="196" y="75" type="curve" smooth="yes"/>
      <point x="196" y="149"/>
      <point x="256" y="354"/>
      <point x="256" y="446" type="curve" smooth="yes"/>
      <point x="256" y="483"/>
      <point x="238" y="516"/>
      <point x="179" y="516" type="curve" smooth="yes"/>
      <point x="101" y="516" type="line"/>
      <point x="101" y="663" type="line" smooth="yes"/>
      <point x="101" y="691"/>
      <point x="94" y="707"/>
      <point x="80" y="716" type="curve"/>
      <point x="30" y="712" type="line"/>
      <point x="30" y="692" type="line"/>
      <point x="60" y="692"/>
      <point x="73" y="683"/>
      <point x="73" y="654" type="curve" smooth="yes"/>
      <point x="73" y="491" type="line"/>
      <point x="170" y="491" type="line" smooth="yes"/>
      <point x="212" y="491"/>
      <point x="228" y="476"/>
      <point x="228" y="441" type="curve" smooth="yes"/>
      <point x="228" y="354"/>
      <point x="168" y="151"/>
      <point x="168" y="64" type="curve" smooth="yes"/>
      <point x="168" y="26"/>
      <point x="176" y="11"/>
    </contour>
    <component base="rightdoubleflag" xOffset="193"/>
  </outline>
</glyph>
<glyph name="naa-ethiopic" format="2">
  <advance width="466"/>
  <unicode hex="1293"/>
  <note>
uni1293
</note>
  <anchor x="243" y="714" name="top"/>
  <outline>
    <contour>
      <point x="297" y="-2" type="curve"/>
      <point x="356" y="2" type="line"/>
      <point x="356" y="22" type="line"/>
      <point x="328" y="22"/>
      <point x="308" y="32"/>
      <point x="308" y="89" type="curve" smooth="yes"/>
      <point x="308" y="173" type="line" smooth="yes"/>
      <point x="308" y="296"/>
      <point x="258" y="318"/>
      <point x="175" y="318" type="curve" smooth="yes"/>
      <point x="76" y="318" type="line"/>
      <point x="77" y="557"/>
      <point x="173" y="689"/>
      <point x="356" y="689" type="curve" smooth="yes"/>
      <point x="387" y="689" type="line"/>
      <point x="386" y="684"/>
      <point x="386" y="678"/>
      <point x="386" y="674" type="curve" smooth="yes"/>
      <point x="386" y="650"/>
      <point x="400" y="632"/>
      <point x="421" y="632" type="curve" smooth="yes"/>
      <point x="428" y="632"/>
      <point x="432" y="633"/>
      <point x="436" y="635" type="curve"/>
      <point x="427" y="645"/>
      <point x="423" y="663"/>
      <point x="423" y="679" type="curve" smooth="yes"/>
      <point x="423" y="695"/>
      <point x="426" y="705"/>
      <point x="429" y="714" type="curve"/>
      <point x="363" y="714" type="line" smooth="yes"/>
      <point x="159" y="714"/>
      <point x="50" y="571"/>
      <point x="50" y="322" type="curve" smooth="yes"/>
      <point x="50" y="294" type="line"/>
      <point x="166" y="294" type="line" smooth="yes"/>
      <point x="243" y="294"/>
      <point x="281" y="272"/>
      <point x="281" y="166" type="curve" smooth="yes"/>
      <point x="281" y="87" type="line" smooth="yes"/>
      <point x="281" y="39"/>
      <point x="287" y="14"/>
    </contour>
  </outline>
</glyph>
<glyph name="nee-ethiopic" format="2">
  <advance width="441"/>
  <unicode hex="1294"/>
  <note>
uni1294
</note>
  <anchor x="220" y="716" name="top"/>
  <outline>
    <contour>
      <point x="259" y="0" type="curve" smooth="yes"/>
      <point x="267" y="0" type="line" smooth="yes"/>
      <point x="360" y="0"/>
      <point x="411" y="52"/>
      <point x="411" y="122" type="curve" smooth="yes"/>
      <point x="411" y="185"/>
      <point x="372" y="230"/>
      <point x="281" y="230" type="curve" smooth="yes"/>
      <point x="187" y="230" type="line"/>
      <point x="207" y="274" type="line" smooth="yes"/>
      <point x="234" y="334"/>
      <point x="259" y="385"/>
      <point x="259" y="438" type="curve" smooth="yes"/>
      <point x="259" y="478"/>
      <point x="238" y="516"/>
      <point x="179" y="516" type="curve" smooth="yes"/>
      <point x="101" y="516" type="line"/>
      <point x="101" y="663" type="line" smooth="yes"/>
      <point x="101" y="691"/>
      <point x="94" y="707"/>
      <point x="80" y="716" type="curve"/>
      <point x="30" y="712" type="line"/>
      <point x="30" y="692" type="line"/>
      <point x="60" y="692"/>
      <point x="73" y="683"/>
      <point x="73" y="654" type="curve" smooth="yes"/>
      <point x="73" y="491" type="line"/>
      <point x="170" y="491" type="line" smooth="yes"/>
      <point x="212" y="491"/>
      <point x="231" y="471"/>
      <point x="231" y="433" type="curve" smooth="yes"/>
      <point x="231" y="391"/>
      <point x="212" y="349"/>
      <point x="188" y="295" type="curve" smooth="yes"/>
      <point x="161" y="234" type="line" smooth="yes"/>
      <point x="140" y="187"/>
      <point x="133" y="154"/>
      <point x="133" y="120" type="curve" smooth="yes"/>
      <point x="133" y="42"/>
      <point x="184" y="0"/>
    </contour>
    <contour>
      <point x="265" y="22" type="curve" smooth="yes"/>
      <point x="196" y="22"/>
      <point x="159" y="62"/>
      <point x="159" y="121" type="curve" smooth="yes"/>
      <point x="159" y="157"/>
      <point x="168" y="184"/>
      <point x="178" y="207" type="curve"/>
      <point x="277" y="207" type="line" smooth="yes"/>
      <point x="354" y="207"/>
      <point x="383" y="172"/>
      <point x="383" y="122" type="curve" smooth="yes"/>
      <point x="383" y="68"/>
      <point x="350" y="22"/>
    </contour>
  </outline>
</glyph>
<glyph name="ne-ethiopic" format="2">
  <advance width="484"/>
  <unicode hex="1295"/>
  <note>
uni1295
</note>
  <anchor x="217" y="714" name="top"/>
  <outline>
    <contour>
      <point x="339" y="-3" type="curve"/>
      <point x="387" y="2" type="line"/>
      <point x="387" y="22" type="line"/>
      <point x="360" y="22"/>
      <point x="344" y="31"/>
      <point x="344" y="72" type="curve" smooth="yes"/>
      <point x="344" y="150"/>
      <point x="404" y="358"/>
      <point x="404" y="440" type="curve" smooth="yes"/>
      <point x="404" y="483"/>
      <point x="388" y="516"/>
      <point x="327" y="516" type="curve" smooth="yes"/>
      <point x="249" y="516" type="line"/>
      <point x="249" y="591" type="line" smooth="yes"/>
      <point x="249" y="677"/>
      <point x="203" y="714"/>
      <point x="131" y="714" type="curve" smooth="yes"/>
      <point x="37" y="714" type="line"/>
      <point x="40" y="705"/>
      <point x="43" y="695"/>
      <point x="43" y="680" type="curve" smooth="yes"/>
      <point x="43" y="663"/>
      <point x="39" y="645"/>
      <point x="30" y="635" type="curve"/>
      <point x="34" y="633"/>
      <point x="38" y="632"/>
      <point x="43" y="632" type="curve" smooth="yes"/>
      <point x="67" y="632"/>
      <point x="80" y="651"/>
      <point x="80" y="674" type="curve" smooth="yes"/>
      <point x="80" y="678"/>
      <point x="80" y="684"/>
      <point x="79" y="689" type="curve"/>
      <point x="122" y="689" type="line" smooth="yes"/>
      <point x="190" y="689"/>
      <point x="221" y="663"/>
      <point x="221" y="570" type="curve" smooth="yes"/>
      <point x="221" y="491" type="line"/>
      <point x="318" y="491" type="line" smooth="yes"/>
      <point x="362" y="491"/>
      <point x="376" y="476"/>
      <point x="376" y="437" type="curve" smooth="yes"/>
      <point x="376" y="357"/>
      <point x="316" y="152"/>
      <point x="316" y="60" type="curve" smooth="yes"/>
      <point x="316" y="27"/>
      <point x="324" y="7"/>
    </contour>
  </outline>
</glyph>
<glyph name="no-ethiopic" format="2">
  <advance width="567"/>
  <unicode hex="1296"/>
  <note>
uni1296
</note>
  <anchor x="293" y="714" name="top"/>
  <outline>
    <contour>
      <point x="297" y="-2" type="curve"/>
      <point x="356" y="2" type="line"/>
      <point x="356" y="22" type="line"/>
      <point x="328" y="22"/>
      <point x="308" y="32"/>
      <point x="308" y="89" type="curve" smooth="yes"/>
      <point x="308" y="147" type="line" smooth="yes"/>
      <point x="308" y="293"/>
      <point x="265" y="316"/>
      <point x="154" y="316" type="curve" smooth="yes"/>
      <point x="76" y="316" type="line"/>
      <point x="76" y="328" type="line" smooth="yes"/>
      <point x="76" y="601"/>
      <point x="187" y="689"/>
      <point x="347" y="689" type="curve" smooth="yes"/>
      <point x="370" y="689" type="line"/>
      <point x="428" y="714" type="line"/>
      <point x="360" y="714" type="line" smooth="yes"/>
      <point x="160" y="714"/>
      <point x="50" y="605"/>
      <point x="50" y="316" type="curve" smooth="yes"/>
      <point x="50" y="294" type="line"/>
      <point x="153" y="294" type="line" smooth="yes"/>
      <point x="246" y="294"/>
      <point x="281" y="271"/>
      <point x="281" y="145" type="curve" smooth="yes"/>
      <point x="281" y="87" type="line" smooth="yes"/>
      <point x="281" y="39"/>
      <point x="287" y="14"/>
    </contour>
    <component base="ballsmall" xOffset="268" yOffset="308"/>
  </outline>
</glyph>
<glyph name="nwa-ethiopic" format="2">
  <advance width="579"/>
  <unicode hex="1297"/>
  <note>
uni1297
</note>
  <anchor x="302" y="714" name="top"/>
  <outline>
    <contour>
      <point x="310" y="5" type="line"/>
      <point x="337" y="5" type="line"/>
      <point x="337" y="127" type="line" smooth="yes"/>
      <point x="337" y="283"/>
      <point x="284" y="316"/>
      <point x="173" y="316" type="curve" smooth="yes"/>
      <point x="105" y="316" type="line"/>
      <point x="106" y="541"/>
      <point x="159" y="689"/>
      <point x="385" y="689" type="curve" smooth="yes"/>
      <point x="416" y="689" type="line"/>
      <point x="415" y="684"/>
      <point x="415" y="678"/>
      <point x="415" y="674" type="curve" smooth="yes"/>
      <point x="415" y="650"/>
      <point x="429" y="632"/>
      <point x="450" y="632" type="curve" smooth="yes"/>
      <point x="457" y="632"/>
      <point x="461" y="633"/>
      <point x="465" y="635" type="curve"/>
      <point x="456" y="645"/>
      <point x="452" y="663"/>
      <point x="452" y="679" type="curve" smooth="yes"/>
      <point x="452" y="695"/>
      <point x="455" y="705"/>
      <point x="458" y="714" type="curve"/>
      <point x="392" y="714" type="line" smooth="yes"/>
      <point x="188" y="714"/>
      <point x="79" y="611"/>
      <point x="79" y="322" type="curve" smooth="yes"/>
      <point x="79" y="294" type="line"/>
      <point x="172" y="294" type="line" smooth="yes"/>
      <point x="265" y="294"/>
      <point x="310" y="261"/>
      <point x="310" y="125" type="curve" smooth="yes"/>
    </contour>
    <component base="footmiddle" xOffset="26"/>
  </outline>
</glyph>
<glyph name="nya-ethiopic" format="2">
  <advance width="517"/>
  <unicode hex="1298"/>
  <note>
uni1298
</note>
  <anchor x="248" y="748" name="top"/>
  <outline>
    <contour>
      <point x="352" y="-3" type="curve"/>
      <point x="400" y="2" type="line"/>
      <point x="400" y="22" type="line"/>
      <point x="371" y="22"/>
      <point x="357" y="31"/>
      <point x="357" y="75" type="curve" smooth="yes"/>
      <point x="357" y="149"/>
      <point x="417" y="348"/>
      <point x="417" y="440" type="curve" smooth="yes"/>
      <point x="417" y="477"/>
      <point x="399" y="510"/>
      <point x="340" y="510" type="curve" smooth="yes"/>
      <point x="262" y="510" type="line"/>
      <point x="262" y="706" type="line"/>
      <point x="234" y="706" type="line"/>
      <point x="234" y="485" type="line"/>
      <point x="331" y="485" type="line" smooth="yes"/>
      <point x="373" y="485"/>
      <point x="389" y="470"/>
      <point x="389" y="435" type="curve" smooth="yes"/>
      <point x="389" y="348"/>
      <point x="329" y="151"/>
      <point x="329" y="64" type="curve" smooth="yes"/>
      <point x="329" y="26"/>
      <point x="337" y="7"/>
    </contour>
    <component base="bonemiddle" yOffset="-58"/>
  </outline>
</glyph>
<glyph name="nyi-ethiopic" format="2">
  <advance width="581"/>
  <unicode hex="129A"/>
  <note>
uni129A
</note>
  <anchor x="290" y="748" name="top"/>
  <outline>
    <contour>
      <point x="349" y="0" type="curve"/>
      <point x="397" y="0" type="line"/>
      <point x="397" y="25" type="line"/>
      <point x="368" y="25"/>
      <point x="354" y="34"/>
      <point x="354" y="75" type="curve" smooth="yes"/>
      <point x="354" y="149"/>
      <point x="414" y="348"/>
      <point x="414" y="440" type="curve" smooth="yes"/>
      <point x="414" y="477"/>
      <point x="396" y="510"/>
      <point x="337" y="510" type="curve" smooth="yes"/>
      <point x="259" y="510" type="line"/>
      <point x="259" y="699" type="line"/>
      <point x="231" y="699" type="line"/>
      <point x="231" y="485" type="line"/>
      <point x="328" y="485" type="line" smooth="yes"/>
      <point x="370" y="485"/>
      <point x="386" y="470"/>
      <point x="386" y="435" type="curve" smooth="yes"/>
      <point x="386" y="348"/>
      <point x="326" y="151"/>
      <point x="326" y="64" type="curve" smooth="yes"/>
      <point x="326" y="29"/>
      <point x="334" y="10"/>
    </contour>
    <component base="rightdoubleflag" xOffset="359"/>
    <component base="bonemiddle" yOffset="-58"/>
  </outline>
</glyph>
<glyph name="nyaa-ethiopic" format="2">
  <advance width="517"/>
  <unicode hex="129B"/>
  <note>
uni129B
</note>
  <anchor x="268" y="748" name="top"/>
  <outline>
    <contour>
      <point x="295" y="-2" type="curve"/>
      <point x="354" y="2" type="line"/>
      <point x="354" y="22" type="line"/>
      <point x="326" y="22"/>
      <point x="306" y="32"/>
      <point x="306" y="89" type="curve" smooth="yes"/>
      <point x="306" y="116" type="line" smooth="yes"/>
      <point x="306" y="217"/>
      <point x="255" y="253"/>
      <point x="164" y="253" type="curve" smooth="yes"/>
      <point x="84" y="253" type="line"/>
      <point x="85" y="388"/>
      <point x="138" y="523"/>
      <point x="364" y="523" type="curve" smooth="yes"/>
      <point x="395" y="523" type="line"/>
      <point x="394" y="518"/>
      <point x="394" y="512"/>
      <point x="394" y="508" type="curve" smooth="yes"/>
      <point x="394" y="484"/>
      <point x="408" y="466"/>
      <point x="429" y="466" type="curve" smooth="yes"/>
      <point x="436" y="466"/>
      <point x="440" y="467"/>
      <point x="444" y="469" type="curve"/>
      <point x="435" y="479"/>
      <point x="431" y="497"/>
      <point x="431" y="513" type="curve" smooth="yes"/>
      <point x="431" y="529"/>
      <point x="434" y="539"/>
      <point x="437" y="548" type="curve"/>
      <point x="371" y="548" type="line" smooth="yes"/>
      <point x="167" y="548"/>
      <point x="58" y="455"/>
      <point x="58" y="259" type="curve" smooth="yes"/>
      <point x="58" y="231" type="line"/>
      <point x="163" y="231" type="line" smooth="yes"/>
      <point x="236" y="231"/>
      <point x="279" y="200"/>
      <point x="279" y="114" type="curve" smooth="yes"/>
      <point x="279" y="87" type="line" smooth="yes"/>
      <point x="279" y="39"/>
      <point x="285" y="14"/>
    </contour>
    <contour>
      <point x="253" y="526" type="line"/>
      <point x="279" y="526" type="line"/>
      <point x="279" y="708" type="line"/>
      <point x="253" y="708" type="line"/>
    </contour>
    <component base="bonemiddle" xOffset="20" yOffset="-58"/>
  </outline>
</glyph>
<glyph name="nyee-ethiopic" format="2">
  <advance width="601"/>
  <unicode hex="129C"/>
  <note>
uni129C
</note>
  <anchor x="300" y="748" name="top"/>
  <outline>
    <contour>
      <point x="419" y="0" type="curve" smooth="yes"/>
      <point x="427" y="0" type="line" smooth="yes"/>
      <point x="520" y="0"/>
      <point x="571" y="52"/>
      <point x="571" y="122" type="curve" smooth="yes"/>
      <point x="571" y="185"/>
      <point x="532" y="230"/>
      <point x="441" y="230" type="curve" smooth="yes"/>
      <point x="347" y="230" type="line"/>
      <point x="367" y="274" type="line" smooth="yes"/>
      <point x="394" y="334"/>
      <point x="419" y="385"/>
      <point x="419" y="438" type="curve" smooth="yes"/>
      <point x="419" y="478"/>
      <point x="398" y="516"/>
      <point x="339" y="516" type="curve" smooth="yes"/>
      <point x="261" y="516" type="line"/>
      <point x="261" y="703" type="line"/>
      <point x="233" y="702" type="line"/>
      <point x="233" y="491" type="line"/>
      <point x="330" y="491" type="line" smooth="yes"/>
      <point x="372" y="491"/>
      <point x="391" y="471"/>
      <point x="391" y="433" type="curve" smooth="yes"/>
      <point x="391" y="391"/>
      <point x="372" y="349"/>
      <point x="348" y="295" type="curve" smooth="yes"/>
      <point x="321" y="234" type="line" smooth="yes"/>
      <point x="300" y="187"/>
      <point x="293" y="154"/>
      <point x="293" y="120" type="curve" smooth="yes"/>
      <point x="293" y="42"/>
      <point x="344" y="0"/>
    </contour>
    <contour>
      <point x="425" y="22" type="curve" smooth="yes"/>
      <point x="356" y="22"/>
      <point x="319" y="62"/>
      <point x="319" y="121" type="curve" smooth="yes"/>
      <point x="319" y="157"/>
      <point x="328" y="184"/>
      <point x="338" y="207" type="curve"/>
      <point x="437" y="207" type="line" smooth="yes"/>
      <point x="514" y="207"/>
      <point x="543" y="172"/>
      <point x="543" y="122" type="curve" smooth="yes"/>
      <point x="543" y="68"/>
      <point x="510" y="22"/>
    </contour>
    <component base="bonemiddle" yOffset="-58"/>
  </outline>
</glyph>
<glyph name="nye-ethiopic" format="2">
  <advance width="504"/>
  <unicode hex="129D"/>
  <note>
uni129D
</note>
  <anchor x="227" y="771" name="top"/>
  <outline>
    <contour>
      <point x="372" y="-3" type="curve"/>
      <point x="420" y="2" type="line"/>
      <point x="420" y="22" type="line"/>
      <point x="393" y="22"/>
      <point x="377" y="31"/>
      <point x="377" y="72" type="curve" smooth="yes"/>
      <point x="377" y="120"/>
      <point x="424" y="269"/>
      <point x="424" y="331" type="curve" smooth="yes"/>
      <point x="424" y="374"/>
      <point x="408" y="407"/>
      <point x="347" y="407" type="curve" smooth="yes"/>
      <point x="269" y="407" type="line"/>
      <point x="269" y="427" type="line" smooth="yes"/>
      <point x="269" y="513"/>
      <point x="223" y="550"/>
      <point x="151" y="550" type="curve" smooth="yes"/>
      <point x="57" y="550" type="line"/>
      <point x="60" y="541"/>
      <point x="63" y="531"/>
      <point x="63" y="516" type="curve" smooth="yes"/>
      <point x="63" y="499"/>
      <point x="59" y="481"/>
      <point x="50" y="471" type="curve"/>
      <point x="54" y="469"/>
      <point x="58" y="468"/>
      <point x="63" y="468" type="curve" smooth="yes"/>
      <point x="87" y="468"/>
      <point x="100" y="487"/>
      <point x="100" y="510" type="curve" smooth="yes"/>
      <point x="100" y="514"/>
      <point x="100" y="520"/>
      <point x="99" y="525" type="curve"/>
      <point x="142" y="525" type="line" smooth="yes"/>
      <point x="210" y="525"/>
      <point x="241" y="499"/>
      <point x="241" y="406" type="curve" smooth="yes"/>
      <point x="241" y="382" type="line"/>
      <point x="338" y="382" type="line" smooth="yes"/>
      <point x="382" y="382"/>
      <point x="396" y="367"/>
      <point x="396" y="328" type="curve" smooth="yes"/>
      <point x="396" y="268"/>
      <point x="349" y="122"/>
      <point x="349" y="60" type="curve" smooth="yes"/>
      <point x="349" y="27"/>
      <point x="357" y="7"/>
    </contour>
    <contour>
      <point x="183" y="532" type="line"/>
      <point x="209" y="532" type="line"/>
      <point x="209" y="703" type="line"/>
      <point x="183" y="703" type="line"/>
    </contour>
    <contour>
      <point x="385" y="771" type="curve" smooth="yes"/>
      <point x="364" y="771"/>
      <point x="350" y="753"/>
      <point x="350" y="729" type="curve" smooth="yes"/>
      <point x="350" y="725"/>
      <point x="350" y="719"/>
      <point x="351" y="714" type="curve"/>
      <point x="79" y="714" type="line"/>
      <point x="80" y="719"/>
      <point x="80" y="725"/>
      <point x="80" y="729" type="curve" smooth="yes"/>
      <point x="80" y="753"/>
      <point x="66" y="771"/>
      <point x="45" y="771" type="curve" smooth="yes"/>
      <point x="38" y="771"/>
      <point x="34" y="770"/>
      <point x="30" y="768" type="curve"/>
      <point x="39" y="758"/>
      <point x="43" y="740"/>
      <point x="43" y="724" type="curve" smooth="yes"/>
      <point x="43" y="708"/>
      <point x="40" y="698"/>
      <point x="37" y="689" type="curve"/>
      <point x="393" y="689" type="line"/>
      <point x="390" y="698"/>
      <point x="387" y="708"/>
      <point x="387" y="724" type="curve" smooth="yes"/>
      <point x="387" y="740"/>
      <point x="391" y="758"/>
      <point x="400" y="768" type="curve"/>
      <point x="396" y="770"/>
      <point x="392" y="771"/>
    </contour>
  </outline>
</glyph>
<glyph name="nyo-ethiopic" format="2">
  <advance width="567"/>
  <unicode hex="129E"/>
  <note>
uni129E
</note>
  <anchor x="293" y="794" name="top"/>
  <outline>
    <contour>
      <point x="296" y="-3" type="curve"/>
      <point x="356" y="2" type="line"/>
      <point x="356" y="22" type="line"/>
      <point x="328" y="22"/>
      <point x="308" y="32"/>
      <point x="308" y="89" type="curve" smooth="yes"/>
      <point x="308" y="118" type="line" smooth="yes"/>
      <point x="308" y="214"/>
      <point x="260" y="236"/>
      <point x="169" y="236" type="curve" smooth="yes"/>
      <point x="76" y="236" type="line"/>
      <point x="76" y="409"/>
      <point x="160" y="497"/>
      <point x="338" y="509" type="curve"/>
      <point x="434" y="536" type="line"/>
      <point x="393" y="536" type="line" smooth="yes"/>
      <point x="153" y="536"/>
      <point x="50" y="428"/>
      <point x="50" y="237" type="curve" smooth="yes"/>
      <point x="50" y="214" type="line"/>
      <point x="168" y="214" type="line" smooth="yes"/>
      <point x="241" y="214"/>
      <point x="281" y="192"/>
      <point x="281" y="116" type="curve" smooth="yes"/>
      <point x="281" y="87" type="line" smooth="yes"/>
      <point x="281" y="36"/>
      <point x="286" y="13"/>
    </contour>
    <contour>
      <point x="270" y="517" type="line"/>
      <point x="296" y="517" type="line"/>
      <point x="296" y="754" type="line"/>
      <point x="270" y="754" type="line"/>
    </contour>
    <component base="bonemiddle" xOffset="36" yOffset="-12"/>
    <component base="ballsmall" xOffset="268" yOffset="130"/>
  </outline>
</glyph>
<glyph name="nywa-ethiopic" format="2">
  <advance width="573"/>
  <unicode hex="129F"/>
  <note>
uni129F
</note>
  <anchor x="296" y="794" name="top"/>
  <outline>
    <contour>
      <point x="307" y="5" type="curve"/>
      <point x="366" y="5" type="line"/>
      <point x="366" y="25" type="line"/>
      <point x="338" y="25"/>
      <point x="318" y="35"/>
      <point x="318" y="92" type="curve" smooth="yes"/>
      <point x="318" y="116" type="line" smooth="yes"/>
      <point x="318" y="217"/>
      <point x="267" y="253"/>
      <point x="176" y="253" type="curve" smooth="yes"/>
      <point x="96" y="253" type="line"/>
      <point x="97" y="388"/>
      <point x="150" y="523"/>
      <point x="376" y="523" type="curve" smooth="yes"/>
      <point x="407" y="523" type="line"/>
      <point x="406" y="518"/>
      <point x="406" y="512"/>
      <point x="406" y="508" type="curve" smooth="yes"/>
      <point x="406" y="484"/>
      <point x="420" y="466"/>
      <point x="441" y="466" type="curve" smooth="yes"/>
      <point x="448" y="466"/>
      <point x="452" y="467"/>
      <point x="456" y="469" type="curve"/>
      <point x="447" y="479"/>
      <point x="443" y="497"/>
      <point x="443" y="513" type="curve" smooth="yes"/>
      <point x="443" y="529"/>
      <point x="446" y="539"/>
      <point x="449" y="548" type="curve"/>
      <point x="383" y="548" type="line" smooth="yes"/>
      <point x="179" y="548"/>
      <point x="70" y="455"/>
      <point x="70" y="259" type="curve" smooth="yes"/>
      <point x="70" y="231" type="line"/>
      <point x="175" y="231" type="line" smooth="yes"/>
      <point x="248" y="231"/>
      <point x="291" y="200"/>
      <point x="291" y="114" type="curve" smooth="yes"/>
      <point x="291" y="90" type="line" smooth="yes"/>
      <point x="291" y="42"/>
      <point x="297" y="21"/>
    </contour>
    <contour>
      <point x="265" y="526" type="line"/>
      <point x="291" y="526" type="line"/>
      <point x="291" y="754" type="line"/>
      <point x="265" y="754" type="line"/>
    </contour>
    <component base="bonemiddle" xOffset="31" yOffset="-12"/>
    <component base="footmiddle" xOffset="20"/>
  </outline>
</glyph>
<glyph name="iGlottal-ethiopic" format="2">
  <advance width="648"/>
  <unicode hex="12A2"/>
  <note>
uni12A2
</note>
  <anchor x="333" y="716" name="top"/>
  <outline>
    <contour>
      <point x="106" y="-3" type="curve"/>
      <point x="149" y="2" type="line"/>
      <point x="149" y="22" type="line"/>
      <point x="119" y="22"/>
      <point x="109" y="35"/>
      <point x="109" y="69" type="curve" smooth="yes"/>
      <point x="109" y="95"/>
      <point x="122" y="134"/>
      <point x="143" y="184" type="curve" smooth="yes"/>
      <point x="203" y="329" type="line" smooth="yes"/>
      <point x="228" y="389"/>
      <point x="241" y="421"/>
      <point x="241" y="455" type="curve" smooth="yes"/>
      <point x="241" y="499"/>
      <point x="214" y="523"/>
      <point x="163" y="523" type="curve" smooth="yes"/>
      <point x="120" y="523" type="line"/>
      <point x="120" y="643" type="line" smooth="yes"/>
      <point x="120" y="678"/>
      <point x="116" y="701"/>
      <point x="102" y="716" type="curve"/>
      <point x="49" y="712" type="line"/>
      <point x="49" y="692" type="line"/>
      <point x="81" y="692"/>
      <point x="92" y="679"/>
      <point x="92" y="643" type="curve" smooth="yes"/>
      <point x="92" y="498" type="line"/>
      <point x="155" y="498" type="line" smooth="yes"/>
      <point x="194" y="498"/>
      <point x="212" y="482"/>
      <point x="212" y="449" type="curve" smooth="yes"/>
      <point x="212" y="423"/>
      <point x="198" y="388"/>
      <point x="179" y="341" type="curve" smooth="yes"/>
      <point x="122" y="202" type="line" smooth="yes"/>
      <point x="104" y="159"/>
      <point x="81" y="102"/>
      <point x="81" y="56" type="curve" smooth="yes"/>
      <point x="81" y="26"/>
      <point x="92" y="7"/>
    </contour>
    <contour>
      <point x="414" y="0" type="curve"/>
      <point x="460" y="0" type="line"/>
      <point x="460" y="25" type="line"/>
      <point x="430" y="25"/>
      <point x="418" y="35"/>
      <point x="408" y="103" type="curve" smooth="yes"/>
      <point x="378" y="307"/>
      <point x="324" y="342"/>
      <point x="210" y="370" type="curve"/>
      <point x="202" y="347" type="line"/>
      <point x="304" y="320"/>
      <point x="352" y="290"/>
      <point x="380" y="98" type="curve" smooth="yes"/>
      <point x="387" y="50"/>
      <point x="392" y="23"/>
    </contour>
    <component base="rightdoubleflag" xOffset="426"/>
  </outline>
</glyph>
<glyph name="aaGlottal-ethiopic" format="2">
  <advance width="482"/>
  <unicode hex="12A3"/>
  <note>
uni12A3
</note>
  <anchor x="249" y="716" name="top"/>
  <outline>
    <contour>
      <point x="111" y="155" type="curve"/>
      <point x="154" y="160" type="line"/>
      <point x="154" y="180" type="line"/>
      <point x="124" y="180"/>
      <point x="114" y="193"/>
      <point x="114" y="217" type="curve" smooth="yes"/>
      <point x="114" y="239"/>
      <point x="137" y="273"/>
      <point x="178" y="329" type="curve" smooth="yes"/>
      <point x="218" y="383"/>
      <point x="241" y="421"/>
      <point x="241" y="455" type="curve" smooth="yes"/>
      <point x="241" y="499"/>
      <point x="214" y="523"/>
      <point x="163" y="523" type="curve" smooth="yes"/>
      <point x="120" y="523" type="line"/>
      <point x="120" y="643" type="line" smooth="yes"/>
      <point x="120" y="678"/>
      <point x="116" y="701"/>
      <point x="102" y="716" type="curve"/>
      <point x="49" y="712" type="line"/>
      <point x="49" y="692" type="line"/>
      <point x="81" y="692"/>
      <point x="92" y="679"/>
      <point x="92" y="643" type="curve" smooth="yes"/>
      <point x="92" y="498" type="line"/>
      <point x="155" y="498" type="line" smooth="yes"/>
      <point x="194" y="498"/>
      <point x="212" y="482"/>
      <point x="212" y="449" type="curve" smooth="yes"/>
      <point x="212" y="420"/>
      <point x="192" y="389"/>
      <point x="160" y="346" type="curve" smooth="yes"/>
      <point x="116" y="287"/>
      <point x="86" y="245"/>
      <point x="86" y="207" type="curve" smooth="yes"/>
      <point x="86" y="177"/>
      <point x="97" y="165"/>
    </contour>
    <contour>
      <point x="406" y="-3" type="curve"/>
      <point x="450" y="2" type="line"/>
      <point x="450" y="23" type="line"/>
      <point x="420" y="23"/>
      <point x="408" y="35"/>
      <point x="398" y="103" type="curve" smooth="yes"/>
      <point x="368" y="307"/>
      <point x="314" y="342"/>
      <point x="200" y="370" type="curve"/>
      <point x="182" y="349" type="line"/>
      <point x="297" y="322"/>
      <point x="342" y="290"/>
      <point x="370" y="98" type="curve" smooth="yes"/>
      <point x="377" y="50"/>
      <point x="384" y="20"/>
    </contour>
  </outline>
</glyph>
<glyph name="eeGlottal-ethiopic" format="2">
  <advance width="679"/>
  <unicode hex="12A4"/>
  <note>
uni12A4
</note>
  <anchor x="349" y="716" name="top"/>
  <outline>
    <contour>
      <point x="106" y="-3" type="curve"/>
      <point x="149" y="2" type="line"/>
      <point x="149" y="22" type="line"/>
      <point x="119" y="22"/>
      <point x="109" y="35"/>
      <point x="109" y="69" type="curve" smooth="yes"/>
      <point x="109" y="95"/>
      <point x="122" y="134"/>
      <point x="143" y="184" type="curve" smooth="yes"/>
      <point x="210" y="345" type="line"/>
      <point x="306" y="318"/>
      <point x="350" y="281"/>
      <point x="382" y="97" type="curve" smooth="yes"/>
      <point x="392" y="40"/>
      <point x="420" y="9"/>
      <point x="465" y="0" type="curve"/>
      <point x="505" y="0" type="line" smooth="yes"/>
      <point x="598" y="0"/>
      <point x="649" y="52"/>
      <point x="649" y="122" type="curve" smooth="yes"/>
      <point x="649" y="185"/>
      <point x="610" y="230"/>
      <point x="519" y="230" type="curve" smooth="yes"/>
      <point x="379" y="230" type="line"/>
      <point x="347" y="321"/>
      <point x="298" y="347"/>
      <point x="219" y="368" type="curve"/>
      <point x="233" y="404"/>
      <point x="241" y="429"/>
      <point x="241" y="455" type="curve" smooth="yes"/>
      <point x="241" y="499"/>
      <point x="214" y="523"/>
      <point x="163" y="523" type="curve" smooth="yes"/>
      <point x="120" y="523" type="line"/>
      <point x="120" y="643" type="line" smooth="yes"/>
      <point x="120" y="678"/>
      <point x="116" y="701"/>
      <point x="102" y="716" type="curve"/>
      <point x="49" y="712" type="line"/>
      <point x="49" y="692" type="line"/>
      <point x="81" y="692"/>
      <point x="92" y="679"/>
      <point x="92" y="643" type="curve" smooth="yes"/>
      <point x="92" y="498" type="line"/>
      <point x="155" y="498" type="line" smooth="yes"/>
      <point x="194" y="498"/>
      <point x="212" y="482"/>
      <point x="212" y="449" type="curve" smooth="yes"/>
      <point x="212" y="423"/>
      <point x="198" y="388"/>
      <point x="179" y="341" type="curve" smooth="yes"/>
      <point x="122" y="202" type="line" smooth="yes"/>
      <point x="104" y="159"/>
      <point x="81" y="102"/>
      <point x="81" y="56" type="curve" smooth="yes"/>
      <point x="81" y="26"/>
      <point x="92" y="7"/>
    </contour>
    <contour>
      <point x="503" y="22" type="curve" smooth="yes"/>
      <point x="440" y="22"/>
      <point x="420" y="52"/>
      <point x="410" y="103" type="curve" smooth="yes"/>
      <point x="402" y="144"/>
      <point x="395" y="178"/>
      <point x="387" y="207" type="curve"/>
      <point x="515" y="207" type="line" smooth="yes"/>
      <point x="592" y="207"/>
      <point x="621" y="172"/>
      <point x="621" y="122" type="curve" smooth="yes"/>
      <point x="621" y="68"/>
      <point x="588" y="22"/>
    </contour>
  </outline>
</glyph>
<glyph name="eGlottal-ethiopic" format="2">
  <advance width="476"/>
  <unicode hex="12A5"/>
  <note>
uni12A5
</note>
  <anchor x="216" y="716" name="top"/>
  <outline>
    <contour>
      <point x="90" y="-3" type="curve"/>
      <point x="133" y="2" type="line"/>
      <point x="133" y="22" type="line"/>
      <point x="103" y="22"/>
      <point x="93" y="35"/>
      <point x="93" y="69" type="curve" smooth="yes"/>
      <point x="93" y="95"/>
      <point x="106" y="134"/>
      <point x="127" y="184" type="curve" smooth="yes"/>
      <point x="194" y="346" type="line"/>
      <point x="290" y="319"/>
      <point x="337" y="285"/>
      <point x="364" y="98" type="curve" smooth="yes"/>
      <point x="371" y="50"/>
      <point x="378" y="20"/>
      <point x="400" y="-3" type="curve"/>
      <point x="444" y="2" type="line"/>
      <point x="444" y="23" type="line"/>
      <point x="414" y="23"/>
      <point x="402" y="35"/>
      <point x="392" y="103" type="curve" smooth="yes"/>
      <point x="363" y="302"/>
      <point x="311" y="340"/>
      <point x="203" y="368" type="curve"/>
      <point x="257" y="498" type="line"/>
      <point x="257" y="523" type="line"/>
      <point x="173" y="523" type="line"/>
      <point x="200" y="590" type="line"/>
      <point x="200" y="615" type="line"/>
      <point x="119" y="615" type="line"/>
      <point x="129" y="643" type="line" smooth="yes"/>
      <point x="141" y="676"/>
      <point x="141" y="701"/>
      <point x="127" y="716" type="curve"/>
      <point x="74" y="712" type="line"/>
      <point x="74" y="692" type="line"/>
      <point x="106" y="692"/>
      <point x="109" y="678"/>
      <point x="98" y="643" type="curve" smooth="yes"/>
      <point x="81" y="590" type="line"/>
      <point x="173" y="590" type="line"/>
      <point x="135" y="498" type="line"/>
      <point x="226" y="498" type="line"/>
      <point x="106" y="202" type="line" smooth="yes"/>
      <point x="89" y="159"/>
      <point x="65" y="102"/>
      <point x="65" y="56" type="curve" smooth="yes"/>
      <point x="65" y="26"/>
      <point x="76" y="7"/>
    </contour>
  </outline>
</glyph>
<glyph name="oGlottal-ethiopic" format="2">
  <advance width="481"/>
  <unicode hex="12A6"/>
  <note>
uni12A6
</note>
  <anchor x="255" y="716" name="top"/>
  <outline>
    <contour>
      <point x="117" y="-3" type="curve"/>
      <point x="160" y="2" type="line"/>
      <point x="160" y="22" type="line"/>
      <point x="130" y="22"/>
      <point x="120" y="35"/>
      <point x="120" y="69" type="curve" smooth="yes"/>
      <point x="120" y="95"/>
      <point x="133" y="134"/>
      <point x="154" y="184" type="curve" smooth="yes"/>
      <point x="214" y="329" type="line" smooth="yes"/>
      <point x="239" y="389"/>
      <point x="252" y="421"/>
      <point x="252" y="455" type="curve" smooth="yes"/>
      <point x="252" y="499"/>
      <point x="225" y="523"/>
      <point x="174" y="523" type="curve" smooth="yes"/>
      <point x="131" y="523" type="line"/>
      <point x="131" y="643" type="line" smooth="yes"/>
      <point x="131" y="678"/>
      <point x="127" y="701"/>
      <point x="113" y="716" type="curve"/>
      <point x="60" y="712" type="line"/>
      <point x="60" y="692" type="line"/>
      <point x="92" y="692"/>
      <point x="103" y="679"/>
      <point x="103" y="643" type="curve" smooth="yes"/>
      <point x="103" y="498" type="line"/>
      <point x="166" y="498" type="line" smooth="yes"/>
      <point x="205" y="498"/>
      <point x="223" y="482"/>
      <point x="223" y="449" type="curve" smooth="yes"/>
      <point x="223" y="423"/>
      <point x="209" y="388"/>
      <point x="190" y="341" type="curve" smooth="yes"/>
      <point x="133" y="202" type="line" smooth="yes"/>
      <point x="115" y="159"/>
      <point x="92" y="102"/>
      <point x="92" y="56" type="curve" smooth="yes"/>
      <point x="92" y="26"/>
      <point x="103" y="7"/>
    </contour>
    <contour>
      <point x="407" y="155" type="curve"/>
      <point x="451" y="160" type="line"/>
      <point x="451" y="181" type="line"/>
      <point x="421" y="181"/>
      <point x="414" y="199"/>
      <point x="409" y="225" type="curve" smooth="yes"/>
      <point x="390" y="326"/>
      <point x="325" y="357"/>
      <point x="221" y="370" type="curve"/>
      <point x="213" y="347" type="line"/>
      <point x="315" y="335"/>
      <point x="366" y="303"/>
      <point x="382" y="216" type="curve" smooth="yes"/>
      <point x="387" y="187"/>
      <point x="392" y="166"/>
    </contour>
  </outline>
</glyph>
<glyph name="waGlottal-ethiopic" format="2">
  <advance width="593"/>
  <unicode hex="12A7"/>
  <note>
uni12A7
</note>
  <anchor x="296" y="750" name="top"/>
  <outline>
    <contour>
      <point x="207" y="-3" type="curve"/>
      <point x="250" y="2" type="line"/>
      <point x="250" y="22" type="line"/>
      <point x="220" y="22"/>
      <point x="210" y="35"/>
      <point x="210" y="69" type="curve" smooth="yes"/>
      <point x="210" y="95"/>
      <point x="223" y="134"/>
      <point x="244" y="184" type="curve" smooth="yes"/>
      <point x="304" y="329" type="line" smooth="yes"/>
      <point x="329" y="389"/>
      <point x="342" y="421"/>
      <point x="342" y="455" type="curve" smooth="yes"/>
      <point x="342" y="499"/>
      <point x="315" y="523"/>
      <point x="264" y="523" type="curve" smooth="yes"/>
      <point x="221" y="523" type="line"/>
      <point x="221" y="703" type="line"/>
      <point x="193" y="703" type="line"/>
      <point x="193" y="498" type="line"/>
      <point x="256" y="498" type="line" smooth="yes"/>
      <point x="295" y="498"/>
      <point x="313" y="482"/>
      <point x="313" y="449" type="curve" smooth="yes"/>
      <point x="313" y="423"/>
      <point x="299" y="388"/>
      <point x="280" y="341" type="curve" smooth="yes"/>
      <point x="223" y="202" type="line" smooth="yes"/>
      <point x="205" y="159"/>
      <point x="182" y="102"/>
      <point x="182" y="56" type="curve" smooth="yes"/>
      <point x="182" y="26"/>
      <point x="193" y="7"/>
    </contour>
    <contour>
      <point x="517" y="-3" type="curve"/>
      <point x="561" y="2" type="line"/>
      <point x="561" y="23" type="line"/>
      <point x="531" y="23"/>
      <point x="519" y="35"/>
      <point x="509" y="103" type="curve" smooth="yes"/>
      <point x="479" y="307"/>
      <point x="425" y="342"/>
      <point x="311" y="370" type="curve"/>
      <point x="303" y="347" type="line"/>
      <point x="405" y="320"/>
      <point x="453" y="290"/>
      <point x="481" y="98" type="curve" smooth="yes"/>
      <point x="488" y="50"/>
      <point x="495" y="20"/>
    </contour>
    <component base="bone" xOffset="1" yOffset="-56"/>
  </outline>
</glyph>
<glyph name="ki-ethiopic" format="2">
  <advance width="702"/>
  <unicode hex="12AA"/>
  <note>
uni12AA
</note>
  <anchor x="363" y="766" name="top"/>
  <outline>
    <contour>
      <point x="658" y="-34" type="curve" smooth="yes"/>
      <point x="664" y="-34"/>
      <point x="668" y="-33"/>
      <point x="672" y="-31" type="curve"/>
      <point x="663" y="-21"/>
      <point x="659" y="-4"/>
      <point x="659" y="12" type="curve" smooth="yes"/>
      <point x="659" y="28"/>
      <point x="663" y="45"/>
      <point x="672" y="55" type="curve"/>
      <point x="668" y="57"/>
      <point x="664" y="58"/>
      <point x="658" y="58" type="curve" smooth="yes"/>
      <point x="638" y="58"/>
      <point x="624" y="44"/>
      <point x="621" y="25" type="curve"/>
      <point x="549" y="25" type="line" smooth="yes"/>
      <point x="521" y="25"/>
      <point x="501" y="34"/>
      <point x="501" y="91" type="curve" smooth="yes"/>
      <point x="501" y="167"/>
      <point x="504" y="324"/>
      <point x="504" y="395" type="curve" smooth="yes"/>
      <point x="504" y="540"/>
      <point x="450" y="602"/>
      <point x="339" y="602" type="curve" smooth="yes"/>
      <point x="196" y="602"/>
      <point x="126" y="480"/>
      <point x="126" y="304" type="curve" smooth="yes"/>
      <point x="126" y="85" type="line" smooth="yes"/>
      <point x="126" y="43"/>
      <point x="133" y="13"/>
      <point x="143" y="-3" type="curve"/>
      <point x="202" y="2" type="line"/>
      <point x="202" y="21" type="line"/>
      <point x="174" y="21"/>
      <point x="154" y="31"/>
      <point x="154" y="87" type="curve" smooth="yes"/>
      <point x="154" y="298" type="line" smooth="yes"/>
      <point x="154" y="483"/>
      <point x="222" y="578"/>
      <point x="338" y="578" type="curve" smooth="yes"/>
      <point x="431" y="578"/>
      <point x="476" y="518"/>
      <point x="476" y="393" type="curve" smooth="yes"/>
      <point x="476" y="309"/>
      <point x="473" y="180"/>
      <point x="473" y="88" type="curve" smooth="yes"/>
      <point x="473" y="40"/>
      <point x="480" y="16"/>
      <point x="490" y="0" type="curve"/>
      <point x="621" y="0" type="line"/>
      <point x="624" y="-20"/>
      <point x="638" y="-34"/>
    </contour>
    <contour>
      <point x="161" y="515" type="curve" smooth="yes"/>
      <point x="181" y="515"/>
      <point x="184" y="516"/>
      <point x="203" y="519" type="curve"/>
      <point x="203" y="537" type="line"/>
      <point x="131" y="537"/>
      <point x="126" y="546"/>
      <point x="126" y="590" type="curve" smooth="yes"/>
      <point x="126" y="699" type="line" smooth="yes"/>
      <point x="126" y="736"/>
      <point x="119" y="757"/>
      <point x="105" y="766" type="curve"/>
      <point x="55" y="762" type="line"/>
      <point x="55" y="742" type="line"/>
      <point x="85" y="742"/>
      <point x="98" y="732"/>
      <point x="98" y="690" type="curve" smooth="yes"/>
      <point x="98" y="572" type="line" smooth="yes"/>
      <point x="98" y="534"/>
      <point x="120" y="515"/>
    </contour>
  </outline>
</glyph>
<glyph name="kee-ethiopic" format="2">
  <advance width="785"/>
  <unicode hex="12AC"/>
  <note>
uni12AC
</note>
  <anchor x="405" y="766" name="top"/>
  <outline>
    <contour>
      <point x="145" y="-2" type="curve"/>
      <point x="204" y="2" type="line"/>
      <point x="204" y="22" type="line"/>
      <point x="176" y="22"/>
      <point x="156" y="32"/>
      <point x="156" y="88" type="curve" smooth="yes"/>
      <point x="156" y="286" type="line" smooth="yes"/>
      <point x="156" y="482"/>
      <point x="224" y="577"/>
      <point x="340" y="577" type="curve" smooth="yes"/>
      <point x="433" y="577"/>
      <point x="478" y="517"/>
      <point x="478" y="381" type="curve" smooth="yes"/>
      <point x="478" y="305"/>
      <point x="476" y="169"/>
      <point x="476" y="107" type="curve" smooth="yes"/>
      <point x="476" y="44"/>
      <point x="510" y="12"/>
      <point x="569" y="0" type="curve"/>
      <point x="611" y="0" type="line" smooth="yes"/>
      <point x="704" y="0"/>
      <point x="755" y="52"/>
      <point x="755" y="122" type="curve" smooth="yes"/>
      <point x="755" y="185"/>
      <point x="716" y="230"/>
      <point x="625" y="230" type="curve" smooth="yes"/>
      <point x="504" y="230" type="line"/>
      <point x="504" y="259"/>
      <point x="506" y="342"/>
      <point x="506" y="383" type="curve" smooth="yes"/>
      <point x="506" y="539"/>
      <point x="452" y="601"/>
      <point x="341" y="601" type="curve" smooth="yes"/>
      <point x="198" y="601"/>
      <point x="128" y="479"/>
      <point x="128" y="292" type="curve" smooth="yes"/>
      <point x="128" y="86" type="line" smooth="yes"/>
      <point x="128" y="44"/>
      <point x="135" y="14"/>
    </contour>
    <contour>
      <point x="609" y="22" type="curve" smooth="yes"/>
      <point x="530" y="22"/>
      <point x="504" y="58"/>
      <point x="504" y="106" type="curve" smooth="yes"/>
      <point x="504" y="207" type="line"/>
      <point x="621" y="207" type="line" smooth="yes"/>
      <point x="698" y="207"/>
      <point x="727" y="172"/>
      <point x="727" y="122" type="curve" smooth="yes"/>
      <point x="727" y="68"/>
      <point x="694" y="22"/>
    </contour>
    <contour>
      <point x="161" y="515" type="curve" smooth="yes"/>
      <point x="181" y="515"/>
      <point x="184" y="516"/>
      <point x="203" y="519" type="curve"/>
      <point x="203" y="537" type="line"/>
      <point x="131" y="537"/>
      <point x="126" y="546"/>
      <point x="126" y="590" type="curve" smooth="yes"/>
      <point x="126" y="699" type="line" smooth="yes"/>
      <point x="126" y="736"/>
      <point x="119" y="757"/>
      <point x="105" y="766" type="curve"/>
      <point x="55" y="762" type="line"/>
      <point x="55" y="742" type="line"/>
      <point x="85" y="742"/>
      <point x="98" y="732"/>
      <point x="98" y="690" type="curve" smooth="yes"/>
      <point x="98" y="572" type="line" smooth="yes"/>
      <point x="98" y="534"/>
      <point x="120" y="515"/>
    </contour>
  </outline>
</glyph>
<glyph name="ke-ethiopic" format="2">
  <advance width="631"/>
  <unicode hex="12AD"/>
  <note>
uni12AD
</note>
  <anchor x="306" y="766" name="top"/>
  <outline>
    <contour>
      <point x="151" y="-3" type="curve"/>
      <point x="210" y="2" type="line"/>
      <point x="210" y="21" type="line"/>
      <point x="182" y="21"/>
      <point x="162" y="31"/>
      <point x="162" y="87" type="curve" smooth="yes"/>
      <point x="162" y="164" type="line" smooth="yes"/>
      <point x="162" y="253"/>
      <point x="200" y="322"/>
      <point x="313" y="330" type="curve"/>
      <point x="313" y="353" type="line"/>
      <point x="162" y="353" type="line"/>
      <point x="162" y="488"/>
      <point x="230" y="578"/>
      <point x="346" y="578" type="curve" smooth="yes"/>
      <point x="439" y="578"/>
      <point x="484" y="518"/>
      <point x="484" y="393" type="curve" smooth="yes"/>
      <point x="484" y="309"/>
      <point x="481" y="177"/>
      <point x="481" y="85" type="curve" smooth="yes"/>
      <point x="481" y="37"/>
      <point x="488" y="13"/>
      <point x="498" y="-3" type="curve"/>
      <point x="557" y="2" type="line"/>
      <point x="557" y="21" type="line"/>
      <point x="529" y="21"/>
      <point x="509" y="30"/>
      <point x="509" y="87" type="curve" smooth="yes"/>
      <point x="509" y="163"/>
      <point x="512" y="324"/>
      <point x="512" y="395" type="curve" smooth="yes"/>
      <point x="512" y="540"/>
      <point x="458" y="602"/>
      <point x="347" y="602" type="curve" smooth="yes"/>
      <point x="217" y="602"/>
      <point x="134" y="511"/>
      <point x="134" y="330" type="curve"/>
      <point x="232" y="330" type="line"/>
      <point x="174" y="308"/>
      <point x="134" y="252"/>
      <point x="134" y="165" type="curve" smooth="yes"/>
      <point x="134" y="85" type="line" smooth="yes"/>
      <point x="134" y="43"/>
      <point x="141" y="13"/>
    </contour>
    <contour>
      <point x="161" y="515" type="curve" smooth="yes"/>
      <point x="181" y="515"/>
      <point x="184" y="516"/>
      <point x="203" y="519" type="curve"/>
      <point x="203" y="537" type="line"/>
      <point x="131" y="537"/>
      <point x="126" y="546"/>
      <point x="126" y="590" type="curve" smooth="yes"/>
      <point x="126" y="699" type="line" smooth="yes"/>
      <point x="126" y="736"/>
      <point x="119" y="757"/>
      <point x="105" y="766" type="curve"/>
      <point x="55" y="762" type="line"/>
      <point x="55" y="742" type="line"/>
      <point x="85" y="742"/>
      <point x="98" y="732"/>
      <point x="98" y="690" type="curve" smooth="yes"/>
      <point x="98" y="572" type="line" smooth="yes"/>
      <point x="98" y="534"/>
      <point x="120" y="515"/>
    </contour>
  </outline>
</glyph>
<glyph name="ko-ethiopic" format="2">
  <advance width="594"/>
  <unicode hex="12AE"/>
  <note>
uni12AE
</note>
  <anchor x="304" y="766" name="top"/>
  <outline>
    <contour>
      <point x="161" y="515" type="curve" smooth="yes"/>
      <point x="181" y="515"/>
      <point x="184" y="516"/>
      <point x="203" y="519" type="curve"/>
      <point x="203" y="537" type="line"/>
      <point x="131" y="537"/>
      <point x="126" y="546"/>
      <point x="126" y="590" type="curve" smooth="yes"/>
      <point x="126" y="699" type="line" smooth="yes"/>
      <point x="126" y="736"/>
      <point x="119" y="757"/>
      <point x="105" y="766" type="curve"/>
      <point x="55" y="762" type="line"/>
      <point x="55" y="742" type="line"/>
      <point x="85" y="742"/>
      <point x="98" y="732"/>
      <point x="98" y="690" type="curve" smooth="yes"/>
      <point x="98" y="572" type="line" smooth="yes"/>
      <point x="98" y="534"/>
      <point x="120" y="515"/>
    </contour>
    <component base="boshort" xOffset="30"/>
  </outline>
</glyph>
